<svg width="1031" height="385" viewBox="0 0 1031 385" fill="none" xmlns="http://www.w3.org/2000/svg">
<path d="M511.365 0L428.059 49.0396L300.537 17.3835L249.643 86.4968L126.163 66.5283L168.504 109.771L22.5298 125.351L117.018 171.239L0 208.503L134.434 235.515L66.6047 288.021L217.739 291.487L210.828 350.155L352.53 329.476L407.731 384.162L515.5 342.913L623.269 384.162L678.47 329.476L820.172 350.155L813.261 291.487L964.395 288.021L896.566 235.515L1031 208.503L913.981 171.239L1008.47 125.351L862.496 109.771L896.566 66.5283L746.876 75.3272L722.192 17.3835L594.67 49.0396L511.365 0Z" fill="#F1A800"/>
<path d="M511.365 0L428.059 49.0396L300.537 17.3835L249.643 86.4968L126.163 66.5283L168.504 109.771L22.5298 125.351L117.018 171.239L0 208.503L134.434 235.515L66.6047 288.021L217.739 291.487L210.828 350.155L352.53 329.476L407.731 384.162L515.5 342.913L623.269 384.162L678.47 329.476L820.172 350.155L813.261 291.487L964.395 288.021L896.566 235.515L1031 208.503L913.981 171.239L1008.47 125.351L862.496 109.771L896.566 66.5283L746.876 75.3272L722.192 17.3835L594.67 49.0396L511.365 0Z" fill="url(#paint0_radial_17_7)" fill-opacity="0.7"/>
<path d="M511.365 0L428.059 49.0396L300.537 17.3835L249.643 86.4968L126.163 66.5283L168.504 109.771L22.5298 125.351L117.018 171.239L0 208.503L134.434 235.515L66.6047 288.021L217.739 291.487L210.828 350.155L352.53 329.476L407.731 384.162L515.5 342.913L623.269 384.162L678.47 329.476L820.172 350.155L813.261 291.487L964.395 288.021L896.566 235.515L1031 208.503L913.981 171.239L1008.47 125.351L862.496 109.771L896.566 66.5283L746.876 75.3272L722.192 17.3835L594.67 49.0396L511.365 0Z" fill="url(#paint1_linear_17_7)" fill-opacity="0.5"/>
<path d="M295.309 116H291.188L288.336 107.895H275.758L272.906 116H268.98L279.566 86.918H284.723L295.309 116ZM287.145 104.574L282.047 90.2969L276.93 104.574H287.145ZM325.621 116H321.754V90.9414L313.668 107.992H311.363L303.336 90.9414V116H299.723V86.918H304.996L312.75 103.109L320.25 86.918H325.621V116ZM352.594 116H333.434V86.918H352.594V90.3555H337.301V98.3242H352.594V101.762H337.301V112.562H352.594V116ZM382.809 116H377.789L368.062 104.438H362.613V116H358.746V86.918H366.891C368.648 86.918 370.113 87.0352 371.285 87.2695C372.457 87.4909 373.512 87.8945 374.449 88.4805C375.504 89.1445 376.324 89.9844 376.91 91C377.509 92.0026 377.809 93.2786 377.809 94.8281C377.809 96.9245 377.281 98.6823 376.227 100.102C375.172 101.508 373.72 102.569 371.871 103.285L382.809 116ZM373.766 95.1016C373.766 94.2682 373.616 93.5326 373.316 92.8945C373.03 92.2435 372.548 91.6966 371.871 91.2539C371.311 90.8763 370.647 90.6159 369.879 90.4727C369.111 90.3164 368.206 90.2383 367.164 90.2383H362.613V101.215H366.52C367.743 101.215 368.811 101.111 369.723 100.902C370.634 100.681 371.409 100.277 372.047 99.6914C372.633 99.1445 373.062 98.5195 373.336 97.8164C373.622 97.1003 373.766 96.1953 373.766 95.1016ZM396.812 116H385.328V113.031H389.137V89.8867H385.328V86.918H396.812V89.8867H393.004V113.031H396.812V116ZM425.855 113.891C425.139 114.203 424.488 114.496 423.902 114.77C423.329 115.043 422.574 115.329 421.637 115.629C420.842 115.876 419.977 116.085 419.039 116.254C418.115 116.436 417.092 116.527 415.973 116.527C413.863 116.527 411.943 116.234 410.211 115.648C408.492 115.049 406.995 114.118 405.719 112.855C404.469 111.618 403.492 110.049 402.789 108.148C402.086 106.234 401.734 104.014 401.734 101.488C401.734 99.0924 402.073 96.9505 402.75 95.0625C403.427 93.1745 404.404 91.5794 405.68 90.2773C406.917 89.0143 408.408 88.0508 410.152 87.3867C411.91 86.7227 413.857 86.3906 415.992 86.3906C417.555 86.3906 419.111 86.5794 420.66 86.957C422.223 87.3346 423.954 87.9987 425.855 88.9492V93.5391H425.562C423.961 92.1979 422.372 91.2214 420.797 90.6094C419.221 89.9974 417.535 89.6914 415.738 89.6914C414.267 89.6914 412.939 89.9323 411.754 90.4141C410.582 90.8828 409.534 91.6185 408.609 92.6211C407.711 93.5977 407.008 94.8346 406.5 96.332C406.005 97.8164 405.758 99.5352 405.758 101.488C405.758 103.533 406.031 105.29 406.578 106.762C407.138 108.233 407.854 109.431 408.727 110.355C409.638 111.319 410.699 112.035 411.91 112.504C413.134 112.96 414.423 113.188 415.777 113.188C417.639 113.188 419.384 112.868 421.012 112.23C422.639 111.592 424.163 110.635 425.582 109.359H425.855V113.891ZM454.254 116H450.133L447.281 107.895H434.703L431.852 116H427.926L438.512 86.918H443.668L454.254 116ZM446.09 104.574L440.992 90.2969L435.875 104.574H446.09ZM463.531 85.6094L458.238 96.5273H455.543L458.766 85.6094H463.531ZM488.199 107.699C488.199 108.832 487.932 109.952 487.398 111.059C486.878 112.165 486.142 113.103 485.191 113.871C484.15 114.704 482.932 115.355 481.539 115.824C480.159 116.293 478.492 116.527 476.539 116.527C474.443 116.527 472.555 116.332 470.875 115.941C469.208 115.551 467.509 114.971 465.777 114.203V109.359H466.051C467.522 110.583 469.221 111.527 471.148 112.191C473.076 112.855 474.885 113.188 476.578 113.188C478.974 113.188 480.836 112.738 482.164 111.84C483.505 110.941 484.176 109.743 484.176 108.246C484.176 106.957 483.857 106.007 483.219 105.395C482.594 104.783 481.637 104.307 480.348 103.969C479.371 103.708 478.31 103.493 477.164 103.324C476.031 103.155 474.827 102.94 473.551 102.68C470.973 102.133 469.059 101.202 467.809 99.8867C466.572 98.5586 465.953 96.8333 465.953 94.7109C465.953 92.276 466.982 90.2839 469.039 88.7344C471.096 87.1719 473.707 86.3906 476.871 86.3906C478.915 86.3906 480.79 86.5859 482.496 86.9766C484.202 87.3672 485.712 87.849 487.027 88.4219V92.9922H486.754C485.647 92.0547 484.189 91.2799 482.379 90.668C480.582 90.043 478.74 89.7305 476.852 89.7305C474.781 89.7305 473.115 90.1602 471.852 91.0195C470.602 91.8789 469.977 92.9857 469.977 94.3398C469.977 95.5508 470.289 96.5013 470.914 97.1914C471.539 97.8815 472.639 98.4089 474.215 98.7734C475.048 98.9557 476.233 99.1771 477.77 99.4375C479.306 99.6979 480.608 99.9648 481.676 100.238C483.837 100.811 485.465 101.677 486.559 102.836C487.652 103.995 488.199 105.616 488.199 107.699ZM527.047 90.3555H512.34V98.5586H524.977V101.996H512.34V116H508.473V86.918H527.047V90.3555ZM552.457 116H548.336L545.484 107.895H532.906L530.055 116H526.129L536.715 86.918H541.871L552.457 116ZM544.293 104.574L539.195 90.2969L534.078 104.574H544.293ZM578.629 86.918L568.043 116H562.887L552.301 86.918H556.441L565.562 112.504L574.684 86.918H578.629ZM604.723 90.2578C605.908 91.5599 606.812 93.1549 607.438 95.043C608.076 96.931 608.395 99.0729 608.395 101.469C608.395 103.865 608.069 106.013 607.418 107.914C606.78 109.802 605.882 111.378 604.723 112.641C603.525 113.956 602.105 114.945 600.465 115.609C598.837 116.273 596.975 116.605 594.879 116.605C592.835 116.605 590.973 116.267 589.293 115.59C587.626 114.913 586.207 113.93 585.035 112.641C583.863 111.352 582.958 109.77 582.32 107.895C581.695 106.02 581.383 103.878 581.383 101.469C581.383 99.099 581.695 96.9766 582.32 95.1016C582.945 93.2135 583.857 91.599 585.055 90.2578C586.201 88.9818 587.62 88.0052 589.312 87.3281C591.018 86.651 592.874 86.3125 594.879 86.3125C596.962 86.3125 598.831 86.6576 600.484 87.3477C602.151 88.0247 603.564 88.9948 604.723 90.2578ZM604.371 101.469C604.371 97.6927 603.525 94.7826 601.832 92.7383C600.139 90.681 597.828 89.6523 594.898 89.6523C591.943 89.6523 589.618 90.681 587.926 92.7383C586.246 94.7826 585.406 97.6927 585.406 101.469C585.406 105.284 586.266 108.207 587.984 110.238C589.703 112.257 592.008 113.266 594.898 113.266C597.789 113.266 600.087 112.257 601.793 110.238C603.512 108.207 604.371 105.284 604.371 101.469ZM636.422 104.32C636.422 106.43 636.188 108.272 635.719 109.848C635.263 111.41 634.508 112.712 633.453 113.754C632.451 114.743 631.279 115.466 629.938 115.922C628.596 116.378 627.034 116.605 625.25 116.605C623.427 116.605 621.839 116.365 620.484 115.883C619.13 115.401 617.991 114.691 617.066 113.754C616.012 112.686 615.25 111.397 614.781 109.887C614.326 108.376 614.098 106.521 614.098 104.32V86.918H617.965V104.516C617.965 106.091 618.069 107.335 618.277 108.246C618.499 109.158 618.863 109.984 619.371 110.727C619.944 111.573 620.719 112.211 621.695 112.641C622.685 113.07 623.87 113.285 625.25 113.285C626.643 113.285 627.828 113.077 628.805 112.66C629.781 112.23 630.562 111.586 631.148 110.727C631.656 109.984 632.014 109.138 632.223 108.188C632.444 107.224 632.555 106.033 632.555 104.613V86.918H636.422V104.32ZM667.887 116H662.867L653.141 104.438H647.691V116H643.824V86.918H651.969C653.727 86.918 655.191 87.0352 656.363 87.2695C657.535 87.4909 658.59 87.8945 659.527 88.4805C660.582 89.1445 661.402 89.9844 661.988 91C662.587 92.0026 662.887 93.2786 662.887 94.8281C662.887 96.9245 662.359 98.6823 661.305 100.102C660.25 101.508 658.798 102.569 656.949 103.285L667.887 116ZM658.844 95.1016C658.844 94.2682 658.694 93.5326 658.395 92.8945C658.108 92.2435 657.626 91.6966 656.949 91.2539C656.389 90.8763 655.725 90.6159 654.957 90.4727C654.189 90.3164 653.284 90.2383 652.242 90.2383H647.691V101.215H651.598C652.822 101.215 653.889 101.111 654.801 100.902C655.712 100.681 656.487 100.277 657.125 99.6914C657.711 99.1445 658.141 98.5195 658.414 97.8164C658.701 97.1003 658.844 96.1953 658.844 95.1016ZM681.891 116H670.406V113.031H674.215V89.8867H670.406V86.918H681.891V89.8867H678.082V113.031H681.891V116ZM709.215 90.3555H698.824V116H694.957V90.3555H684.566V86.918H709.215V90.3555ZM732.281 116H713.121V86.918H732.281V90.3555H716.988V98.3242H732.281V101.762H716.988V112.562H732.281V116Z" fill="black"/>
<path d="M230.661 184.377L220.612 228H214.811L219.763 206.555H197.995L193.044 228H187.243L197.292 184.377H203.093L199.138 201.633H220.905L224.86 184.377H230.661ZM247.77 228H230.485L231.452 223.752H237.165L245.309 188.625H239.597L240.563 184.377H257.849L256.882 188.625H251.169L243.024 223.752H248.737L247.77 228ZM297.663 189.328H282.106L273.171 228H267.311L276.247 189.328H260.69L261.804 184.377H298.776L297.663 189.328ZM309.645 228.791C306.813 228.791 304.118 228.498 301.559 227.912C299.001 227.307 296.491 226.389 294.03 225.158L295.436 218.508H295.847C297.722 220.285 300.017 221.652 302.731 222.609C305.466 223.547 308.102 224.016 310.642 224.016C314.802 224.016 317.985 223.195 320.192 221.555C322.419 219.895 323.532 217.785 323.532 215.227C323.532 213.879 323.132 212.756 322.331 211.857C321.55 210.959 320.397 210.295 318.874 209.865C317.604 209.514 316.091 209.182 314.333 208.869C312.595 208.537 310.934 208.186 309.352 207.814C306.286 207.131 303.913 205.959 302.233 204.299C300.554 202.639 299.714 200.578 299.714 198.117C299.714 193.957 301.472 190.5 304.987 187.746C308.522 184.973 313.083 183.586 318.669 183.586C321.716 183.586 324.479 183.908 326.96 184.553C329.46 185.178 331.608 185.92 333.405 186.779L332.087 193.02H331.677C330.29 191.75 328.308 190.656 325.729 189.738C323.171 188.82 320.475 188.361 317.643 188.361C314.089 188.361 311.247 189.143 309.118 190.705C307.009 192.268 305.954 194.25 305.954 196.652C305.954 197.941 306.335 199.074 307.097 200.051C307.858 201.027 309.216 201.76 311.169 202.248C312.419 202.541 314.079 202.902 316.149 203.332C318.22 203.742 319.958 204.133 321.364 204.504C324.138 205.266 326.237 206.398 327.663 207.902C329.108 209.406 329.831 211.301 329.831 213.586C329.831 215.5 329.362 217.404 328.425 219.299C327.487 221.193 326.179 222.814 324.499 224.162C322.702 225.607 320.593 226.74 318.171 227.561C315.768 228.381 312.927 228.791 309.645 228.791ZM404.626 200.607C404.626 204.182 404.02 207.697 402.809 211.154C401.599 214.611 399.841 217.629 397.536 220.207C395.017 223.02 392.077 225.178 388.718 226.682C385.358 228.166 381.491 228.908 377.116 228.908C371.159 228.908 366.491 227.375 363.112 224.309C359.753 221.223 358.073 216.984 358.073 211.594C358.073 207.805 358.718 204.201 360.007 200.783C361.296 197.365 363.142 194.357 365.544 191.76C367.888 189.24 370.788 187.229 374.245 185.725C377.702 184.221 381.472 183.469 385.554 183.469C391.53 183.469 396.198 185.012 399.558 188.098C402.936 191.184 404.626 195.354 404.626 200.607ZM388.542 215.49C389.87 213.752 390.905 211.74 391.647 209.455C392.409 207.15 392.79 204.504 392.79 201.516C392.79 198.391 392.038 195.949 390.534 194.191C389.05 192.414 386.921 191.525 384.147 191.525C382.331 191.525 380.593 191.945 378.933 192.785C377.292 193.605 375.778 194.865 374.392 196.564C373.044 198.186 371.96 200.207 371.14 202.629C370.319 205.031 369.909 207.736 369.909 210.744C369.909 214.084 370.671 216.604 372.194 218.303C373.737 220.002 375.866 220.852 378.581 220.852C380.456 220.852 382.263 220.393 384.001 219.475C385.739 218.537 387.253 217.209 388.542 215.49ZM447.106 228H437.526L424.724 197.795L417.751 228H407.38L417.458 184.377H430.056L441.013 209.631L446.813 184.377H457.184L447.106 228ZM499.87 184.377L497.966 192.639H477.604L475.788 200.432H494.684L492.751 208.723H473.854L471.306 219.738H491.667L489.792 228H458.181L468.259 184.377H499.87ZM565.495 228H554.245L560.837 199.465L548.854 217.746H541.091L537.224 198.264L530.368 228H519.704L529.782 184.377H542.702L547.477 206.262L562.302 184.377H575.573L565.495 228ZM600.212 228H574.665L576.452 220.266H583.571L590.075 192.111H582.956L584.743 184.377H610.29L608.503 192.111H601.384L594.88 220.266H601.999L600.212 228ZM640.847 228H609.352L619.431 184.377H630.739L622.624 219.562H642.809L640.847 228ZM679.108 228H647.614L657.692 184.377H669.001L660.886 219.562H681.071L679.108 228ZM709.489 228H683.942L685.729 220.266H692.849L699.352 192.111H692.233L694.02 184.377H719.567L717.78 192.111H710.661L704.157 220.266H711.276L709.489 228ZM766.911 200.607C766.911 204.182 766.306 207.697 765.095 211.154C763.884 214.611 762.126 217.629 759.821 220.207C757.302 223.02 754.362 225.178 751.003 226.682C747.643 228.166 743.776 228.908 739.401 228.908C733.444 228.908 728.776 227.375 725.397 224.309C722.038 221.223 720.358 216.984 720.358 211.594C720.358 207.805 721.003 204.201 722.292 200.783C723.581 197.365 725.427 194.357 727.829 191.76C730.173 189.24 733.073 187.229 736.53 185.725C739.987 184.221 743.757 183.469 747.839 183.469C753.815 183.469 758.483 185.012 761.843 188.098C765.222 191.184 766.911 195.354 766.911 200.607ZM750.827 215.49C752.155 213.752 753.19 211.74 753.932 209.455C754.694 207.15 755.075 204.504 755.075 201.516C755.075 198.391 754.323 195.949 752.819 194.191C751.335 192.414 749.206 191.525 746.432 191.525C744.616 191.525 742.878 191.945 741.218 192.785C739.577 193.605 738.063 194.865 736.677 196.564C735.329 198.186 734.245 200.207 733.425 202.629C732.604 205.031 732.194 207.736 732.194 210.744C732.194 214.084 732.956 216.604 734.479 218.303C736.022 220.002 738.151 220.852 740.866 220.852C742.741 220.852 744.548 220.393 746.286 219.475C748.024 218.537 749.538 217.209 750.827 215.49ZM809.391 228H799.811L787.009 197.795L780.036 228H769.665L779.743 184.377H792.341L803.298 209.631L809.099 184.377H819.47L809.391 228Z" fill="black"/>
<path d="M354.938 142.659H351.764L348.297 129.012H354.059L354.938 142.659ZM345.075 142.659H341.901L338.434 129.012H344.196L345.075 142.659ZM370.465 167.659C368.105 167.659 365.859 167.415 363.727 166.927C361.595 166.422 359.503 165.657 357.452 164.632L358.624 159.09H358.966C360.529 160.571 362.441 161.71 364.703 162.508C366.982 163.289 369.179 163.68 371.295 163.68C374.762 163.68 377.415 162.996 379.254 161.629C381.11 160.245 382.037 158.488 382.037 156.355C382.037 155.232 381.704 154.297 381.036 153.548C380.385 152.799 379.425 152.246 378.156 151.888C377.098 151.595 375.836 151.318 374.371 151.058C372.923 150.781 371.539 150.488 370.221 150.179C367.666 149.609 365.688 148.632 364.288 147.249C362.889 145.866 362.189 144.148 362.189 142.098C362.189 138.631 363.654 135.75 366.583 133.455C369.529 131.144 373.33 129.988 377.985 129.988C380.524 129.988 382.827 130.257 384.894 130.794C386.977 131.315 388.768 131.933 390.265 132.649L389.166 137.85H388.825C387.669 136.792 386.017 135.88 383.868 135.115C381.736 134.35 379.49 133.968 377.13 133.968C374.168 133.968 371.8 134.619 370.026 135.921C368.268 137.223 367.389 138.875 367.389 140.877C367.389 141.951 367.706 142.895 368.341 143.709C368.976 144.523 370.107 145.133 371.735 145.54C372.776 145.784 374.16 146.085 375.885 146.443C377.61 146.785 379.059 147.111 380.231 147.42C382.542 148.055 384.292 148.999 385.48 150.252C386.684 151.505 387.286 153.084 387.286 154.988C387.286 156.583 386.896 158.17 386.115 159.749C385.333 161.328 384.243 162.679 382.843 163.802C381.346 165.006 379.588 165.95 377.57 166.634C375.568 167.317 373.2 167.659 370.465 167.659ZM421.149 167H416.242L415.021 156.771H399.347L393.39 167H388.287L409.918 130.647H416.315L421.149 167ZM414.484 152.815L412.213 134.871L401.666 152.815H414.484ZM449.225 167H426.202L434.601 130.647H439.484L432.037 162.874H450.177L449.225 167ZM486.383 130.647L485.431 134.773H466.315L463.971 145.027H483.087L482.135 149.129H463.019L459.845 162.874H478.961L478.009 167H454.059L462.433 130.647H486.383ZM498.248 167.659C495.888 167.659 493.642 167.415 491.51 166.927C489.378 166.422 487.286 165.657 485.236 164.632L486.408 159.09H486.749C488.312 160.571 490.224 161.71 492.487 162.508C494.765 163.289 496.963 163.68 499.078 163.68C502.545 163.68 505.198 162.996 507.037 161.629C508.893 160.245 509.821 158.488 509.821 156.355C509.821 155.232 509.487 154.297 508.82 153.548C508.169 152.799 507.208 152.246 505.939 151.888C504.881 151.595 503.619 151.318 502.155 151.058C500.706 150.781 499.323 150.488 498.004 150.179C495.449 149.609 493.471 148.632 492.072 147.249C490.672 145.866 489.972 144.148 489.972 142.098C489.972 138.631 491.437 135.75 494.367 133.455C497.313 131.144 501.113 129.988 505.768 129.988C508.307 129.988 510.61 130.257 512.677 130.794C514.76 131.315 516.551 131.933 518.048 132.649L516.95 137.85H516.608C515.452 136.792 513.8 135.88 511.652 135.115C509.52 134.35 507.273 133.968 504.913 133.968C501.951 133.968 499.583 134.619 497.809 135.921C496.051 137.223 495.172 138.875 495.172 140.877C495.172 141.951 495.49 142.895 496.124 143.709C496.759 144.523 497.89 145.133 499.518 145.54C500.56 145.784 501.943 146.085 503.668 146.443C505.394 146.785 506.842 147.111 508.014 147.42C510.325 148.055 512.075 148.999 513.263 150.252C514.467 151.505 515.07 153.084 515.07 154.988C515.07 156.583 514.679 158.17 513.898 159.749C513.117 161.328 512.026 162.679 510.626 163.802C509.129 165.006 507.371 165.95 505.353 166.634C503.351 167.317 500.983 167.659 498.248 167.659ZM537.14 153.304H521.906L522.931 148.885H538.165L537.14 153.304ZM558.16 157.552C557.412 160.758 555.882 163.224 553.571 164.949C551.259 166.658 548.46 167.513 545.172 167.513C544.391 167.513 543.366 167.439 542.096 167.293C540.827 167.163 539.777 167 538.947 166.805L539.972 162.459H540.241C540.875 162.687 541.648 162.923 542.56 163.167C543.471 163.411 544.44 163.533 545.465 163.533C546.946 163.533 548.175 163.346 549.152 162.972C550.128 162.597 550.893 162.076 551.447 161.409C552.033 160.709 552.496 159.871 552.838 158.895C553.18 157.918 553.473 156.86 553.717 155.721L558.6 134.334H550.69L551.544 130.647H564.337L558.16 157.552ZM597.662 130.647L596.71 134.773H577.594L575.25 145.027H594.367L593.414 149.129H574.298L571.124 162.874H590.241L589.288 167H565.338L573.712 130.647H597.662ZM621.93 139.681C621.93 138.818 621.8 138.094 621.539 137.508C621.279 136.906 620.88 136.393 620.343 135.97C619.725 135.465 618.968 135.115 618.073 134.92C617.177 134.725 616.079 134.627 614.777 134.627H609.308L606.061 148.641H611.188C612.783 148.641 614.166 148.494 615.338 148.201C616.51 147.908 617.576 147.396 618.536 146.663C619.611 145.849 620.441 144.832 621.027 143.611C621.629 142.374 621.93 141.064 621.93 139.681ZM627.35 167H621.661L612.091 152.474H605.182L601.837 167H596.954L605.328 130.647H615.241C617.454 130.647 619.253 130.794 620.636 131.087C622.02 131.364 623.224 131.876 624.249 132.625C625.161 133.292 625.877 134.098 626.398 135.042C626.919 135.986 627.179 137.166 627.179 138.582C627.179 141.609 626.227 144.271 624.323 146.565C622.435 148.844 619.952 150.431 616.876 151.326L627.35 167ZM661.383 167H655.67L644.464 150.765L639.484 154.988L636.725 167H631.842L640.241 130.647H645.123L640.729 149.52L662.091 130.647H668.243L648.297 148.055L661.383 167ZM693.781 129.012L684.015 142.659H680.646L687.824 129.012H693.781ZM683.917 129.012L674.152 142.659H670.783L677.96 129.012H683.917Z" fill="black"/>
<path d="M252.125 272.624C252.125 274.04 251.791 275.44 251.124 276.823C250.473 278.207 249.553 279.379 248.365 280.339C247.063 281.381 245.541 282.194 243.799 282.78C242.074 283.366 239.991 283.659 237.549 283.659C234.929 283.659 232.569 283.415 230.469 282.927C228.386 282.438 226.262 281.714 224.097 280.754V274.699H224.439C226.278 276.229 228.402 277.409 230.811 278.239C233.22 279.069 235.482 279.484 237.598 279.484C240.593 279.484 242.921 278.923 244.581 277.8C246.257 276.677 247.095 275.179 247.095 273.308C247.095 271.696 246.697 270.508 245.899 269.743C245.118 268.978 243.922 268.384 242.31 267.961C241.089 267.635 239.763 267.367 238.331 267.155C236.915 266.944 235.409 266.675 233.814 266.35C230.591 265.666 228.199 264.502 226.636 262.858C225.09 261.198 224.317 259.042 224.317 256.389C224.317 253.345 225.603 250.855 228.174 248.918C230.746 246.965 234.009 245.988 237.964 245.988C240.52 245.988 242.864 246.232 244.996 246.721C247.128 247.209 249.016 247.811 250.66 248.527V254.24H250.318C248.935 253.068 247.112 252.1 244.849 251.335C242.603 250.554 240.3 250.163 237.94 250.163C235.352 250.163 233.269 250.7 231.69 251.774C230.128 252.849 229.346 254.232 229.346 255.925C229.346 257.438 229.737 258.627 230.518 259.489C231.299 260.352 232.675 261.011 234.644 261.467C235.686 261.695 237.167 261.971 239.088 262.297C241.008 262.622 242.636 262.956 243.97 263.298C246.672 264.014 248.707 265.096 250.074 266.545C251.441 267.993 252.125 270.02 252.125 272.624ZM292.261 283H287.427V251.677L277.32 272.99H274.439L264.405 251.677V283H259.888V246.647H266.48L276.172 266.887L285.547 246.647H292.261V283ZM330.689 283H325.538L321.973 272.868H306.251L302.686 283H297.779L311.011 246.647H317.457L330.689 283ZM320.484 268.718L314.112 250.871L307.715 268.718H320.484ZM364.283 280.363C363.388 280.754 362.574 281.12 361.841 281.462C361.125 281.804 360.181 282.162 359.009 282.536C358.017 282.845 356.934 283.106 355.762 283.317C354.607 283.545 353.329 283.659 351.929 283.659C349.293 283.659 346.892 283.293 344.727 282.561C342.579 281.812 340.707 280.648 339.112 279.069C337.549 277.523 336.329 275.562 335.45 273.186C334.571 270.793 334.131 268.018 334.131 264.86C334.131 261.866 334.555 259.188 335.401 256.828C336.247 254.468 337.468 252.474 339.063 250.847C340.609 249.268 342.473 248.063 344.654 247.233C346.851 246.403 349.284 245.988 351.954 245.988C353.907 245.988 355.852 246.224 357.789 246.696C359.742 247.168 361.907 247.998 364.283 249.187V254.924H363.917C361.915 253.247 359.929 252.027 357.96 251.262C355.99 250.497 353.882 250.114 351.636 250.114C349.797 250.114 348.137 250.415 346.656 251.018C345.191 251.604 343.881 252.523 342.725 253.776C341.602 254.997 340.723 256.543 340.089 258.415C339.47 260.271 339.161 262.419 339.161 264.86C339.161 267.416 339.503 269.613 340.186 271.452C340.886 273.291 341.781 274.789 342.872 275.944C344.011 277.149 345.338 278.044 346.851 278.63C348.381 279.2 349.992 279.484 351.685 279.484C354.013 279.484 356.194 279.086 358.228 278.288C360.263 277.491 362.167 276.294 363.941 274.699H364.283V280.363ZM400.342 283H394.068L379.688 266.813L376.075 270.671V283H371.241V246.647H376.075V265.617L393.726 246.647H399.586L383.35 263.737L400.342 283ZM455.738 283H450.904V251.677L440.797 272.99H437.916L427.881 251.677V283H423.365V246.647H429.957L439.649 266.887L449.024 246.647H455.738V283ZM494.166 283H489.014L485.45 272.868H469.727L466.163 283H461.255L474.488 246.647H480.933L494.166 283ZM483.961 268.718L477.589 250.871L471.192 268.718H483.961ZM530.005 280.314C528.02 281.226 525.847 282.023 523.487 282.707C521.143 283.374 518.873 283.708 516.675 283.708C513.843 283.708 511.247 283.317 508.887 282.536C506.527 281.755 504.517 280.583 502.857 279.021C501.181 277.442 499.887 275.472 498.975 273.112C498.064 270.736 497.608 267.961 497.608 264.787C497.608 258.977 499.301 254.395 502.686 251.042C506.088 247.673 510.751 245.988 516.675 245.988C518.742 245.988 520.85 246.241 522.999 246.745C525.163 247.233 527.491 248.072 529.981 249.26V254.997H529.542C529.037 254.606 528.305 254.094 527.344 253.459C526.384 252.824 525.44 252.295 524.512 251.872C523.389 251.368 522.112 250.952 520.679 250.627C519.263 250.285 517.652 250.114 515.845 250.114C511.776 250.114 508.554 251.424 506.177 254.045C503.817 256.649 502.637 260.181 502.637 264.641C502.637 269.344 503.874 273.007 506.348 275.627C508.822 278.231 512.191 279.533 516.456 279.533C518.018 279.533 519.573 279.379 521.119 279.069C522.681 278.76 524.048 278.361 525.22 277.873V268.962H515.479V264.714H530.005V280.314ZM551.27 283H536.915V279.289H541.675V250.358H536.915V246.647H551.27V250.358H546.509V279.289H551.27V283ZM587.574 280.363C586.679 280.754 585.865 281.12 585.132 281.462C584.416 281.804 583.472 282.162 582.3 282.536C581.308 282.845 580.225 283.106 579.053 283.317C577.898 283.545 576.62 283.659 575.22 283.659C572.584 283.659 570.183 283.293 568.018 282.561C565.87 281.812 563.998 280.648 562.403 279.069C560.84 277.523 559.62 275.562 558.741 273.186C557.862 270.793 557.422 268.018 557.422 264.86C557.422 261.866 557.846 259.188 558.692 256.828C559.538 254.468 560.759 252.474 562.354 250.847C563.9 249.268 565.764 248.063 567.945 247.233C570.142 246.403 572.575 245.988 575.245 245.988C577.198 245.988 579.143 246.224 581.08 246.696C583.033 247.168 585.198 247.998 587.574 249.187V254.924H587.208C585.206 253.247 583.22 252.027 581.251 251.262C579.281 250.497 577.173 250.114 574.927 250.114C573.088 250.114 571.428 250.415 569.947 251.018C568.482 251.604 567.172 252.523 566.016 253.776C564.893 254.997 564.014 256.543 563.38 258.415C562.761 260.271 562.452 262.419 562.452 264.86C562.452 267.416 562.794 269.613 563.477 271.452C564.177 273.291 565.072 274.789 566.163 275.944C567.302 277.149 568.629 278.044 570.142 278.63C571.672 279.2 573.283 279.484 574.976 279.484C577.304 279.484 579.485 279.086 581.519 278.288C583.554 277.491 585.458 276.294 587.232 274.699H587.574V280.363ZM620.826 272.624C620.826 274.04 620.492 275.44 619.825 276.823C619.174 278.207 618.254 279.379 617.066 280.339C615.764 281.381 614.242 282.194 612.501 282.78C610.775 283.366 608.692 283.659 606.251 283.659C603.63 283.659 601.27 283.415 599.171 282.927C597.087 282.438 594.963 281.714 592.798 280.754V274.699H593.14C594.979 276.229 597.103 277.409 599.512 278.239C601.921 279.069 604.184 279.484 606.299 279.484C609.294 279.484 611.622 278.923 613.282 277.8C614.958 276.677 615.797 275.179 615.797 273.308C615.797 271.696 615.398 270.508 614.6 269.743C613.819 268.978 612.623 268.384 611.011 267.961C609.791 267.635 608.464 267.367 607.032 267.155C605.616 266.944 604.11 266.675 602.515 266.35C599.293 265.666 596.9 264.502 595.338 262.858C593.791 261.198 593.018 259.042 593.018 256.389C593.018 253.345 594.304 250.855 596.876 248.918C599.447 246.965 602.711 245.988 606.666 245.988C609.221 245.988 611.565 246.232 613.697 246.721C615.829 247.209 617.717 247.811 619.361 248.527V254.24H619.019C617.636 253.068 615.813 252.1 613.55 251.335C611.304 250.554 609.001 250.163 606.641 250.163C604.053 250.163 601.97 250.7 600.391 251.774C598.829 252.849 598.047 254.232 598.047 255.925C598.047 257.438 598.438 258.627 599.219 259.489C600.001 260.352 601.376 261.011 603.345 261.467C604.387 261.695 605.868 261.971 607.789 262.297C609.709 262.622 611.337 262.956 612.672 263.298C615.373 264.014 617.408 265.096 618.775 266.545C620.142 267.993 620.826 270.02 620.826 272.624ZM672.584 272.624C672.584 274.04 672.25 275.44 671.583 276.823C670.932 278.207 670.012 279.379 668.824 280.339C667.522 281.381 666 282.194 664.258 282.78C662.533 283.366 660.45 283.659 658.008 283.659C655.388 283.659 653.028 283.415 650.928 282.927C648.845 282.438 646.721 281.714 644.556 280.754V274.699H644.898C646.737 276.229 648.861 277.409 651.27 278.239C653.679 279.069 655.941 279.484 658.057 279.484C661.052 279.484 663.38 278.923 665.04 277.8C666.716 276.677 667.554 275.179 667.554 273.308C667.554 271.696 667.156 270.508 666.358 269.743C665.577 268.978 664.38 268.384 662.769 267.961C661.548 267.635 660.222 267.367 658.79 267.155C657.374 266.944 655.868 266.675 654.273 266.35C651.05 265.666 648.658 264.502 647.095 262.858C645.549 261.198 644.776 259.042 644.776 256.389C644.776 253.345 646.062 250.855 648.633 248.918C651.205 246.965 654.468 245.988 658.423 245.988C660.979 245.988 663.323 246.232 665.455 246.721C667.587 247.209 669.475 247.811 671.119 248.527V254.24H670.777C669.394 253.068 667.571 252.1 665.308 251.335C663.062 250.554 660.759 250.163 658.399 250.163C655.811 250.163 653.728 250.7 652.149 251.774C650.587 252.849 649.805 254.232 649.805 255.925C649.805 257.438 650.196 258.627 650.977 259.489C651.758 260.352 653.134 261.011 655.103 261.467C656.145 261.695 657.626 261.971 659.547 262.297C661.467 262.622 663.095 262.956 664.429 263.298C667.131 264.014 669.166 265.096 670.533 266.545C671.9 267.993 672.584 270.02 672.584 272.624ZM707.447 250.822C708.928 252.45 710.059 254.444 710.84 256.804C711.638 259.164 712.037 261.841 712.037 264.836C712.037 267.831 711.63 270.516 710.816 272.893C710.019 275.253 708.895 277.222 707.447 278.801C705.95 280.445 704.175 281.682 702.125 282.512C700.09 283.342 697.763 283.757 695.142 283.757C692.587 283.757 690.259 283.334 688.16 282.487C686.076 281.641 684.302 280.412 682.838 278.801C681.373 277.189 680.241 275.212 679.444 272.868C678.663 270.524 678.272 267.847 678.272 264.836C678.272 261.874 678.663 259.221 679.444 256.877C680.225 254.517 681.365 252.499 682.862 250.822C684.294 249.227 686.068 248.007 688.184 247.16C690.316 246.314 692.636 245.891 695.142 245.891C697.746 245.891 700.082 246.322 702.149 247.185C704.232 248.031 705.998 249.243 707.447 250.822ZM707.007 264.836C707.007 260.116 705.95 256.478 703.834 253.923C701.718 251.351 698.829 250.065 695.167 250.065C691.472 250.065 688.567 251.351 686.451 253.923C684.351 256.478 683.301 260.116 683.301 264.836C683.301 269.605 684.376 273.259 686.524 275.798C688.672 278.321 691.553 279.582 695.167 279.582C698.78 279.582 701.653 278.321 703.785 275.798C705.933 273.259 707.007 269.605 707.007 264.836ZM742.701 283H719.703V246.647H724.537V278.703H742.701V283ZM778.248 264.86C778.248 268.164 777.523 271.159 776.075 273.845C774.643 276.53 772.73 278.614 770.338 280.095C768.677 281.12 766.822 281.861 764.771 282.316C762.737 282.772 760.051 283 756.714 283H747.535V246.647H756.617C760.165 246.647 762.981 246.908 765.064 247.429C767.164 247.933 768.938 248.633 770.386 249.528C772.86 251.075 774.789 253.133 776.172 255.705C777.556 258.277 778.248 261.328 778.248 264.86ZM773.194 264.787C773.194 261.939 772.698 259.538 771.705 257.585C770.712 255.632 769.231 254.094 767.261 252.971C765.829 252.157 764.307 251.595 762.696 251.286C761.085 250.961 759.156 250.798 756.91 250.798H752.369V278.85H756.91C759.237 278.85 761.264 278.679 762.989 278.337C764.73 277.995 766.325 277.36 767.774 276.433C769.581 275.277 770.932 273.755 771.827 271.867C772.738 269.979 773.194 267.619 773.194 264.787Z" fill="black"/>
<path d="M574.944 311.152H567.327L567.84 308.942H575.457L574.944 311.152ZM601.275 318H598.418L592.815 309.882L590.325 311.994L588.945 318H586.504L590.703 299.824H593.145L590.947 309.26L601.629 299.824H604.705L594.732 308.527L601.275 318ZM610.296 299.702L609.746 302.082H607.158L607.708 299.702H610.296ZM609.075 304.365L605.925 318H603.631L606.78 304.365H609.075ZM620.696 304.365L620.281 306.22H615.545L614.08 312.507C613.998 312.824 613.925 313.19 613.86 313.605C613.795 314.012 613.762 314.338 613.762 314.582C613.762 315.176 613.913 315.62 614.214 315.913C614.515 316.197 615.073 316.34 615.886 316.34C616.22 316.34 616.615 316.283 617.07 316.169C617.534 316.055 617.848 315.965 618.01 315.9H618.133L617.705 317.878C617.25 317.992 616.761 318.085 616.24 318.159C615.728 318.232 615.272 318.269 614.873 318.269C613.75 318.269 612.879 318.024 612.261 317.536C611.651 317.04 611.345 316.258 611.345 315.192C611.345 314.932 611.362 314.676 611.394 314.423C611.435 314.163 611.488 313.87 611.553 313.544L613.25 306.22H611.699L612.114 304.365H613.665L614.58 300.446H616.875L615.96 304.365H620.696ZM626.238 318.305C625.375 318.305 624.61 318.203 623.943 318C623.284 317.797 622.706 317.475 622.21 317.036C621.73 316.612 621.359 316.079 621.099 315.437C620.838 314.794 620.708 314.045 620.708 313.19C620.708 311.913 620.908 310.721 621.306 309.614C621.705 308.507 622.271 307.535 623.003 306.696C623.711 305.882 624.586 305.24 625.628 304.768C626.669 304.287 627.792 304.047 628.997 304.047C629.794 304.047 630.543 304.157 631.243 304.377C631.951 304.597 632.573 304.857 633.111 305.158L632.61 307.636H632.476C632.313 307.49 632.11 307.319 631.865 307.124C631.621 306.928 631.332 306.745 630.999 306.574C630.665 306.395 630.295 306.249 629.888 306.135C629.481 306.013 629.017 305.952 628.496 305.952C626.918 305.952 625.628 306.619 624.627 307.954C623.634 309.288 623.137 310.912 623.137 312.824C623.137 313.972 623.43 314.855 624.016 315.473C624.61 316.092 625.453 316.401 626.543 316.401C627.056 316.401 627.569 316.328 628.081 316.181C628.594 316.035 629.029 315.876 629.387 315.705C629.786 315.518 630.156 315.319 630.498 315.107C630.84 314.895 631.088 314.737 631.243 314.631H631.377L630.889 317.133C630.181 317.451 629.432 317.727 628.643 317.963C627.853 318.191 627.052 318.305 626.238 318.305ZM647.027 307.478C647.027 307.673 647.006 307.937 646.966 308.271C646.933 308.605 646.884 308.898 646.819 309.15L644.768 318H642.473L644.268 310.236C644.365 309.805 644.439 309.431 644.487 309.113C644.544 308.788 644.573 308.466 644.573 308.149C644.573 307.465 644.402 306.953 644.06 306.611C643.727 306.261 643.12 306.086 642.241 306.086C641.623 306.086 640.939 306.257 640.191 306.599C639.45 306.94 638.726 307.347 638.018 307.819L635.662 318H633.367L637.749 299.006H640.044L638.457 305.878C639.328 305.268 640.142 304.8 640.899 304.475C641.664 304.149 642.449 303.986 643.255 303.986C644.443 303.986 645.366 304.287 646.026 304.89C646.693 305.484 647.027 306.346 647.027 307.478ZM660.222 309.699C660.263 309.463 660.292 309.264 660.308 309.101C660.324 308.938 660.332 308.759 660.332 308.564C660.332 307.693 660.092 307.014 659.612 306.525C659.14 306.037 658.379 305.793 657.329 305.793C656.174 305.793 655.148 306.151 654.253 306.867C653.358 307.583 652.752 308.527 652.434 309.699H660.222ZM655.633 318.317C653.744 318.317 652.263 317.874 651.189 316.987C650.115 316.1 649.578 314.802 649.578 313.093C649.578 310.594 650.367 308.454 651.946 306.672C653.525 304.882 655.478 303.986 657.805 303.986C659.352 303.986 660.536 304.373 661.358 305.146C662.18 305.911 662.591 306.989 662.591 308.381C662.591 308.625 662.554 309.012 662.481 309.541C662.416 310.069 662.306 310.684 662.151 311.384H652.105C652.056 311.62 652.019 311.852 651.995 312.08C651.979 312.307 651.97 312.519 651.97 312.714C651.97 313.862 652.32 314.765 653.02 315.424C653.72 316.075 654.713 316.401 655.999 316.401C656.894 316.401 657.813 316.226 658.758 315.876C659.71 315.526 660.507 315.131 661.15 314.692H661.284L660.784 317.17C660.377 317.316 660.011 317.451 659.685 317.573C659.36 317.695 658.945 317.817 658.44 317.939C657.936 318.061 657.488 318.155 657.097 318.22C656.707 318.285 656.218 318.317 655.633 318.317ZM677.739 307.478C677.739 307.673 677.719 307.937 677.678 308.271C677.646 308.605 677.597 308.898 677.532 309.15L675.481 318H673.186L674.981 310.236C675.078 309.805 675.152 309.431 675.2 309.113C675.257 308.788 675.286 308.466 675.286 308.149C675.286 307.465 675.115 306.953 674.773 306.611C674.439 306.261 673.833 306.086 672.954 306.086C672.336 306.086 671.652 306.257 670.904 306.599C670.163 306.94 669.439 307.347 668.731 307.819L666.375 318H664.08L667.229 304.365H669.524L669.17 305.878C670.041 305.268 670.855 304.8 671.612 304.475C672.376 304.149 673.162 303.986 673.967 303.986C675.156 303.986 676.079 304.287 676.738 304.89C677.406 305.484 677.739 306.346 677.739 307.478ZM714.104 299.824L705.376 318H702.581L702.044 302.949L694.988 318H692.302L691.558 299.824H694.011L694.5 314.912L701.616 299.824H704.07L704.558 315.058L711.724 299.824H714.104ZM724.48 309.699C724.521 309.463 724.549 309.264 724.566 309.101C724.582 308.938 724.59 308.759 724.59 308.564C724.59 307.693 724.35 307.014 723.87 306.525C723.398 306.037 722.637 305.793 721.587 305.793C720.431 305.793 719.406 306.151 718.511 306.867C717.616 307.583 717.009 308.527 716.692 309.699H724.48ZM719.89 318.317C718.002 318.317 716.521 317.874 715.447 316.987C714.373 316.1 713.836 314.802 713.836 313.093C713.836 310.594 714.625 308.454 716.204 306.672C717.783 304.882 719.736 303.986 722.063 303.986C723.609 303.986 724.793 304.373 725.615 305.146C726.437 305.911 726.848 306.989 726.848 308.381C726.848 308.625 726.812 309.012 726.738 309.541C726.673 310.069 726.563 310.684 726.409 311.384H716.362C716.314 311.62 716.277 311.852 716.253 312.08C716.236 312.307 716.228 312.519 716.228 312.714C716.228 313.862 716.578 314.765 717.278 315.424C717.978 316.075 718.971 316.401 720.257 316.401C721.152 316.401 722.071 316.226 723.015 315.876C723.967 315.526 724.765 315.131 725.408 314.692H725.542L725.042 317.17C724.635 317.316 724.269 317.451 723.943 317.573C723.618 317.695 723.202 317.817 722.698 317.939C722.193 318.061 721.746 318.155 721.355 318.22C720.965 318.285 720.476 318.317 719.89 318.317ZM739.373 309.699C739.413 309.463 739.442 309.264 739.458 309.101C739.474 308.938 739.483 308.759 739.483 308.564C739.483 307.693 739.243 307.014 738.762 306.525C738.29 306.037 737.529 305.793 736.48 305.793C735.324 305.793 734.299 306.151 733.404 306.867C732.508 307.583 731.902 308.527 731.585 309.699H739.373ZM734.783 318.317C732.895 318.317 731.414 317.874 730.34 316.987C729.265 316.1 728.728 314.802 728.728 313.093C728.728 310.594 729.518 308.454 731.096 306.672C732.675 304.882 734.628 303.986 736.956 303.986C738.502 303.986 739.686 304.373 740.508 305.146C741.33 305.911 741.741 306.989 741.741 308.381C741.741 308.625 741.704 309.012 741.631 309.541C741.566 310.069 741.456 310.684 741.301 311.384H731.255C731.206 311.62 731.17 311.852 731.145 312.08C731.129 312.307 731.121 312.519 731.121 312.714C731.121 313.862 731.471 314.765 732.171 315.424C732.87 316.075 733.863 316.401 735.149 316.401C736.044 316.401 736.964 316.226 737.908 315.876C738.86 315.526 739.658 315.131 740.3 314.692H740.435L739.934 317.17C739.527 317.316 739.161 317.451 738.836 317.573C738.51 317.695 738.095 317.817 737.591 317.939C737.086 318.061 736.638 318.155 736.248 318.22C735.857 318.285 735.369 318.317 734.783 318.317ZM755.755 318H752.971L748.613 312.006L746.636 313.605L745.635 318H743.316L747.71 299.006H750.029L747.197 311.213L755.193 304.365H758.208L750.432 310.81L755.755 318ZM764.617 299.006L760.222 318H757.927L762.322 299.006H764.617ZM767.229 323.029H764.702L768.67 317.207L766.204 304.365H768.56L770.488 314.509L777.007 304.365H779.509L767.229 323.029Z" fill="black"/>
<defs>
<radialGradient id="paint0_radial_17_7" cx="0" cy="0" r="1" gradientUnits="userSpaceOnUse" gradientTransform="translate(515.5 187.485) rotate(-90) scale(201.071 518.34)">
<stop stop-color="white" stop-opacity="0"/>
<stop offset="1" stop-color="white" stop-opacity="0.4"/>
</radialGradient>
<linearGradient id="paint1_linear_17_7" x1="515.5" y1="388.556" x2="515.5" y2="-13.5859" gradientUnits="userSpaceOnUse">
<stop offset="0.586" stop-color="white" stop-opacity="0"/>
<stop offset="1" stop-color="white" stop-opacity="0.62"/>
</linearGradient>
</defs>
</svg>
