<svg width="474" height="319" viewBox="0 0 474 319" fill="none" xmlns="http://www.w3.org/2000/svg">
<path d="M325.96 0L284.5 25.5L244.5 0L201.5 34L151.5 0L124.5 34L55 12.2196L69.7564 67.8529L30 76L55 133L0 160.5L47 207L7.5 237H69.7564L55 291.5L112 266.225L145.5 305.5L187 276L227.5 313.5L272.5 276L323 318.5L361 276L430.5 305.5L393.5 237L448 228L413.5 197L474 161L420 127L448 79L413.5 73.6567L430.5 12.1567L358 34L325.96 0Z" fill="#FF0606"/>
<path d="M160.91 58.6567H158.85L157.424 54.604H151.135L149.709 58.6567H147.746L153.039 44.1157H155.617L160.91 58.6567ZM156.828 52.9438L154.279 45.8051L151.721 52.9438H156.828ZM176.066 58.6567H174.133V46.1274L170.09 54.6528H168.938L164.924 46.1274V58.6567H163.117V44.1157H165.754L169.631 52.2114L173.381 44.1157H176.066V58.6567ZM189.553 58.6567H179.973V44.1157H189.553V45.8344H181.906V49.8188H189.553V51.5376H181.906V56.938H189.553V58.6567ZM204.66 58.6567H202.15L197.287 52.8755H194.562V58.6567H192.629V44.1157H196.701C197.58 44.1157 198.312 44.1743 198.898 44.2915C199.484 44.4022 200.012 44.604 200.48 44.8969C201.008 45.229 201.418 45.6489 201.711 46.1567C202.01 46.658 202.16 47.296 202.16 48.0708C202.16 49.1189 201.896 49.9979 201.369 50.7075C200.842 51.4106 200.116 51.9412 199.191 52.2993L204.66 58.6567ZM200.139 48.2075C200.139 47.7908 200.064 47.423 199.914 47.104C199.771 46.7785 199.53 46.505 199.191 46.2837C198.911 46.0949 198.579 45.9647 198.195 45.893C197.811 45.8149 197.359 45.7758 196.838 45.7758H194.562V51.2641H196.516C197.128 51.2641 197.661 51.212 198.117 51.1079C198.573 50.9972 198.96 50.7954 199.279 50.5024C199.572 50.229 199.787 49.9165 199.924 49.5649C200.067 49.2068 200.139 48.7544 200.139 48.2075ZM211.662 58.6567H205.92V57.1723H207.824V45.6001H205.92V44.1157H211.662V45.6001H209.758V57.1723H211.662V58.6567ZM226.184 57.602C225.826 57.7583 225.5 57.9048 225.207 58.0415C224.921 58.1782 224.543 58.3214 224.074 58.4712C223.677 58.5949 223.244 58.699 222.775 58.7837C222.313 58.8748 221.802 58.9204 221.242 58.9204C220.188 58.9204 219.227 58.7739 218.361 58.4809C217.502 58.1814 216.753 57.716 216.115 57.0844C215.49 56.466 215.002 55.6814 214.65 54.7309C214.299 53.7739 214.123 52.6639 214.123 51.4008C214.123 50.2029 214.292 49.132 214.631 48.188C214.969 47.2439 215.458 46.4464 216.096 45.7954C216.714 45.1639 217.46 44.6821 218.332 44.3501C219.211 44.018 220.184 43.852 221.252 43.852C222.033 43.852 222.811 43.9464 223.586 44.1352C224.367 44.324 225.233 44.6561 226.184 45.1313V47.4262H226.037C225.236 46.7557 224.442 46.2674 223.654 45.9614C222.867 45.6554 222.023 45.5024 221.125 45.5024C220.389 45.5024 219.725 45.6229 219.133 45.8637C218.547 46.0981 218.023 46.466 217.561 46.9673C217.111 47.4555 216.76 48.074 216.506 48.8227C216.258 49.5649 216.135 50.4243 216.135 51.4008C216.135 52.423 216.271 53.3019 216.545 54.0376C216.825 54.7732 217.183 55.3722 217.619 55.8344C218.075 56.3162 218.605 56.6743 219.211 56.9087C219.823 57.1365 220.467 57.2505 221.145 57.2505C222.076 57.2505 222.948 57.091 223.762 56.7719C224.576 56.4529 225.337 55.9744 226.047 55.3364H226.184V57.602ZM240.383 58.6567H238.322L236.896 54.604H230.607L229.182 58.6567H227.219L232.512 44.1157H235.09L240.383 58.6567ZM236.301 52.9438L233.752 45.8051L231.193 52.9438H236.301ZM245.021 43.4614L242.375 48.9204H241.027L242.639 43.4614H245.021ZM257.355 54.5063C257.355 55.0727 257.222 55.6326 256.955 56.186C256.695 56.7394 256.327 57.2081 255.852 57.5923C255.331 58.0089 254.722 58.3344 254.025 58.5688C253.335 58.8032 252.502 58.9204 251.525 58.9204C250.477 58.9204 249.533 58.8227 248.693 58.6274C247.86 58.4321 247.01 58.1424 246.145 57.7583V55.3364H246.281C247.017 55.9484 247.867 56.4204 248.83 56.7524C249.794 57.0844 250.699 57.2505 251.545 57.2505C252.743 57.2505 253.674 57.0258 254.338 56.5766C255.008 56.1274 255.344 55.5285 255.344 54.7798C255.344 54.1352 255.184 53.66 254.865 53.354C254.553 53.048 254.074 52.8104 253.43 52.6411C252.941 52.5109 252.411 52.4035 251.838 52.3188C251.271 52.2342 250.669 52.1268 250.031 51.9966C248.742 51.7231 247.785 51.2576 247.16 50.6001C246.542 49.936 246.232 49.0734 246.232 48.0122C246.232 46.7947 246.747 45.7986 247.775 45.0239C248.804 44.2426 250.109 43.852 251.691 43.852C252.714 43.852 253.651 43.9497 254.504 44.145C255.357 44.3403 256.112 44.5812 256.77 44.8676V47.1528H256.633C256.079 46.6841 255.35 46.2967 254.445 45.9907C253.547 45.6782 252.626 45.5219 251.682 45.5219C250.646 45.5219 249.813 45.7368 249.182 46.1665C248.557 46.5962 248.244 47.1495 248.244 47.8266C248.244 48.4321 248.4 48.9074 248.713 49.2524C249.025 49.5975 249.576 49.8611 250.363 50.0434C250.78 50.1346 251.372 50.2452 252.141 50.3755C252.909 50.5057 253.56 50.6391 254.094 50.7758C255.174 51.0623 255.988 51.4952 256.535 52.0747C257.082 52.6541 257.355 53.4647 257.355 54.5063ZM220.031 69.8344H212.678V73.936H218.996V75.6548H212.678V82.6567H210.744V68.1157H220.031V69.8344ZM232.736 82.6567H230.676L229.25 78.604H222.961L221.535 82.6567H219.572L224.865 68.1157H227.443L232.736 82.6567ZM228.654 76.9438L226.105 69.8051L223.547 76.9438H228.654ZM245.822 68.1157L240.529 82.6567H237.951L232.658 68.1157H234.729L239.289 80.9087L243.85 68.1157H245.822ZM258.869 69.7856C259.462 70.4367 259.914 71.2342 260.227 72.1782C260.546 73.1222 260.705 74.1932 260.705 75.3911C260.705 76.589 260.542 77.6632 260.217 78.6137C259.898 79.5577 259.449 80.3455 258.869 80.977C258.27 81.6346 257.561 82.1294 256.74 82.4614C255.926 82.7934 254.995 82.9594 253.947 82.9594C252.925 82.9594 251.994 82.7902 251.154 82.4516C250.321 82.1131 249.611 81.6216 249.025 80.977C248.439 80.3325 247.987 79.5415 247.668 78.604C247.355 77.6665 247.199 76.5955 247.199 75.3911C247.199 74.2062 247.355 73.145 247.668 72.2075C247.98 71.2635 248.436 70.4562 249.035 69.7856C249.608 69.1476 250.318 68.6593 251.164 68.3208C252.017 67.9822 252.945 67.813 253.947 67.813C254.989 67.813 255.923 67.9855 256.75 68.3305C257.583 68.6691 258.29 69.1541 258.869 69.7856ZM258.693 75.3911C258.693 73.5031 258.27 72.048 257.424 71.0258C256.577 69.9972 255.422 69.4829 253.957 69.4829C252.479 69.4829 251.317 69.9972 250.471 71.0258C249.631 72.048 249.211 73.5031 249.211 75.3911C249.211 77.2986 249.641 78.7602 250.5 79.7758C251.359 80.785 252.512 81.2895 253.957 81.2895C255.402 81.2895 256.551 80.785 257.404 79.7758C258.264 78.7602 258.693 77.2986 258.693 75.3911ZM274.719 76.8169C274.719 77.8716 274.602 78.7928 274.367 79.5805C274.139 80.3618 273.762 81.0128 273.234 81.5337C272.733 82.0285 272.147 82.3898 271.477 82.6176C270.806 82.8455 270.025 82.9594 269.133 82.9594C268.221 82.9594 267.427 82.839 266.75 82.5981C266.073 82.3572 265.503 82.0024 265.041 81.5337C264.514 80.9998 264.133 80.3553 263.898 79.6001C263.671 78.8449 263.557 77.9171 263.557 76.8169V68.1157H265.49V76.9145C265.49 77.7023 265.542 78.324 265.646 78.7798C265.757 79.2355 265.939 79.6489 266.193 80.02C266.48 80.4432 266.867 80.7622 267.355 80.977C267.85 81.1919 268.443 81.2993 269.133 81.2993C269.829 81.2993 270.422 81.1951 270.91 80.9868C271.398 80.7719 271.789 80.4497 272.082 80.02C272.336 79.6489 272.515 79.2257 272.619 78.7505C272.73 78.2687 272.785 77.673 272.785 76.9633V68.1157H274.719V76.8169ZM290.451 82.6567H287.941L283.078 76.8755H280.354V82.6567H278.42V68.1157H282.492C283.371 68.1157 284.104 68.1743 284.689 68.2915C285.275 68.4022 285.803 68.604 286.271 68.8969C286.799 69.229 287.209 69.6489 287.502 70.1567C287.801 70.658 287.951 71.296 287.951 72.0708C287.951 73.1189 287.688 73.9979 287.16 74.7075C286.633 75.4106 285.907 75.9412 284.982 76.2993L290.451 82.6567ZM285.93 72.2075C285.93 71.7908 285.855 71.423 285.705 71.104C285.562 70.7785 285.321 70.505 284.982 70.2837C284.702 70.0949 284.37 69.9647 283.986 69.893C283.602 69.8149 283.15 69.7758 282.629 69.7758H280.354V75.2641H282.307C282.919 75.2641 283.452 75.212 283.908 75.1079C284.364 74.9972 284.751 74.7954 285.07 74.5024C285.363 74.229 285.578 73.9165 285.715 73.5649C285.858 73.2068 285.93 72.7544 285.93 72.2075ZM297.453 82.6567H291.711V81.1723H293.615V69.6001H291.711V68.1157H297.453V69.6001H295.549V81.1723H297.453V82.6567ZM311.115 69.8344H305.92V82.6567H303.986V69.8344H298.791V68.1157H311.115V69.8344ZM322.648 82.6567H313.068V68.1157H322.648V69.8344H315.002V73.8188H322.648V75.5376H315.002V80.938H322.648V82.6567Z" fill="#F6FF79"/>
<path d="M218.439 134.116L215.09 148.657H213.156L214.807 141.508H207.551L205.9 148.657H203.967L207.316 134.116H209.25L207.932 139.868H215.188L216.506 134.116H218.439ZM224.143 148.657H218.381L218.703 147.241H220.607L223.322 135.532H221.418L221.74 134.116H227.502L227.18 135.532H225.275L222.561 147.241H224.465L224.143 148.657ZM240.773 135.766H235.588L232.609 148.657H230.656L233.635 135.766H228.449L228.82 134.116H241.145L240.773 135.766ZM244.768 148.92C243.824 148.92 242.925 148.823 242.072 148.627C241.219 148.426 240.383 148.12 239.562 147.709L240.031 145.493H240.168C240.793 146.085 241.558 146.541 242.463 146.86C243.374 147.172 244.253 147.329 245.1 147.329C246.486 147.329 247.548 147.055 248.283 146.508C249.025 145.955 249.396 145.252 249.396 144.399C249.396 143.95 249.263 143.575 248.996 143.276C248.736 142.976 248.352 142.755 247.844 142.612C247.421 142.495 246.916 142.384 246.33 142.28C245.751 142.169 245.197 142.052 244.67 141.928C243.648 141.7 242.857 141.31 242.297 140.756C241.737 140.203 241.457 139.516 241.457 138.696C241.457 137.309 242.043 136.157 243.215 135.239C244.393 134.314 245.913 133.852 247.775 133.852C248.791 133.852 249.712 133.959 250.539 134.174C251.372 134.383 252.089 134.63 252.688 134.916L252.248 136.997H252.111C251.649 136.573 250.988 136.209 250.129 135.903C249.276 135.597 248.378 135.444 247.434 135.444C246.249 135.444 245.301 135.704 244.592 136.225C243.889 136.746 243.537 137.407 243.537 138.207C243.537 138.637 243.664 139.015 243.918 139.34C244.172 139.666 244.624 139.91 245.275 140.073C245.692 140.17 246.245 140.291 246.936 140.434C247.626 140.571 248.205 140.701 248.674 140.825C249.598 141.079 250.298 141.456 250.773 141.957C251.255 142.459 251.496 143.09 251.496 143.852C251.496 144.49 251.34 145.125 251.027 145.756C250.715 146.388 250.279 146.928 249.719 147.377C249.12 147.859 248.417 148.237 247.609 148.51C246.809 148.784 245.861 148.92 244.768 148.92Z" fill="#F6FF79"/>
<path d="M124.27 172.221C124.27 174.366 123.906 176.475 123.18 178.549C122.453 180.624 121.398 182.434 120.016 183.981C118.504 185.668 116.74 186.963 114.725 187.866C112.709 188.756 110.389 189.202 107.764 189.202C104.189 189.202 101.389 188.282 99.3613 186.442C97.3457 184.59 96.3379 182.047 96.3379 178.813C96.3379 176.54 96.7246 174.377 97.498 172.327C98.2715 170.276 99.3789 168.471 100.82 166.913C102.227 165.401 103.967 164.194 106.041 163.291C108.115 162.389 110.377 161.938 112.826 161.938C116.412 161.938 119.213 162.864 121.229 164.715C123.256 166.567 124.27 169.069 124.27 172.221ZM114.619 181.151C115.416 180.108 116.037 178.901 116.482 177.53C116.939 176.147 117.168 174.559 117.168 172.766C117.168 170.891 116.717 169.426 115.814 168.372C114.924 167.305 113.646 166.772 111.982 166.772C110.893 166.772 109.85 167.024 108.854 167.528C107.869 168.02 106.961 168.776 106.129 169.795C105.32 170.768 104.67 171.981 104.178 173.434C103.686 174.875 103.439 176.499 103.439 178.303C103.439 180.307 103.896 181.819 104.811 182.838C105.736 183.858 107.014 184.368 108.643 184.368C109.768 184.368 110.852 184.092 111.895 183.541C112.938 182.979 113.846 182.182 114.619 181.151ZM149.758 188.657H144.01L136.328 170.534L132.145 188.657H125.922L131.969 162.483H139.527L146.102 177.635L149.582 162.483H155.805L149.758 188.657ZM181.416 162.483L180.273 167.44H168.057L166.967 172.116H178.305L177.145 177.09H165.807L164.277 183.7H176.494L175.369 188.657H156.402L162.449 162.483H181.416ZM220.791 188.657H214.041L217.996 171.536L210.807 182.504H206.148L203.828 170.815L199.715 188.657H193.316L199.363 162.483H207.115L209.98 175.614L218.875 162.483H226.838L220.791 188.657ZM241.621 188.657H226.293L227.365 184.016H231.637L235.539 167.124H231.268L232.34 162.483H247.668L246.596 167.124H242.324L238.422 184.016H242.693L241.621 188.657ZM266.002 188.657H247.105L253.152 162.483H259.938L255.068 183.594H267.18L266.002 188.657ZM288.959 188.657H270.062L276.109 162.483H282.895L278.025 183.594H290.137L288.959 188.657ZM307.188 188.657H291.859L292.932 184.016H297.203L301.105 167.124H296.834L297.906 162.483H313.234L312.162 167.124H307.891L303.988 184.016H308.26L307.188 188.657ZM341.641 172.221C341.641 174.366 341.277 176.475 340.551 178.549C339.824 180.624 338.77 182.434 337.387 183.981C335.875 185.668 334.111 186.963 332.096 187.866C330.08 188.756 327.76 189.202 325.135 189.202C321.561 189.202 318.76 188.282 316.732 186.442C314.717 184.59 313.709 182.047 313.709 178.813C313.709 176.54 314.096 174.377 314.869 172.327C315.643 170.276 316.75 168.471 318.191 166.913C319.598 165.401 321.338 164.194 323.412 163.291C325.486 162.389 327.748 161.938 330.197 161.938C333.783 161.938 336.584 162.864 338.6 164.715C340.627 166.567 341.641 169.069 341.641 172.221ZM331.99 181.151C332.787 180.108 333.408 178.901 333.854 177.53C334.311 176.147 334.539 174.559 334.539 172.766C334.539 170.891 334.088 169.426 333.186 168.372C332.295 167.305 331.018 166.772 329.354 166.772C328.264 166.772 327.221 167.024 326.225 167.528C325.24 168.02 324.332 168.776 323.5 169.795C322.691 170.768 322.041 171.981 321.549 173.434C321.057 174.875 320.811 176.499 320.811 178.303C320.811 180.307 321.268 181.819 322.182 182.838C323.107 183.858 324.385 184.368 326.014 184.368C327.139 184.368 328.223 184.092 329.266 183.541C330.309 182.979 331.217 182.182 331.99 181.151ZM367.129 188.657H361.381L353.699 170.534L349.516 188.657H343.293L349.34 162.483H356.898L363.473 177.635L366.953 162.483H373.176L367.129 188.657Z" fill="#F6FF79"/>
<path d="M99.1367 107.77H94.6445L91.6172 96.2661H98.7266L99.1367 107.77ZM88.5117 107.77H84.0195L80.9922 96.2661H88.1016L88.5117 107.77ZM112.477 127.184C109.99 127.184 107.77 126.969 105.816 126.54C103.876 126.11 102.197 125.576 100.777 124.938L102.281 117.965H103.102C104.443 119.189 106.018 120.14 107.828 120.817C109.638 121.481 111.585 121.813 113.668 121.813C115.803 121.813 117.372 121.526 118.375 120.954C119.378 120.368 119.879 119.534 119.879 118.454C119.879 118.05 119.794 117.705 119.625 117.418C119.469 117.119 119.156 116.826 118.688 116.54C118.219 116.253 117.574 115.973 116.754 115.7C115.947 115.413 114.898 115.088 113.609 114.723C112.19 114.332 110.914 113.909 109.781 113.454C108.661 112.998 107.704 112.457 106.91 111.832C106.116 111.194 105.51 110.459 105.094 109.625C104.69 108.792 104.488 107.796 104.488 106.637C104.488 103.721 105.771 101.396 108.336 99.6645C110.914 97.9197 114.436 97.0473 118.902 97.0473C121.051 97.0473 123.076 97.2231 124.977 97.5747C126.891 97.9262 128.512 98.4015 129.84 99.0005L128.414 105.7H127.613C126.598 104.762 125.257 103.981 123.59 103.356C121.936 102.718 120.126 102.399 118.16 102.399C116.233 102.399 114.742 102.679 113.688 103.239C112.633 103.799 112.105 104.573 112.105 105.563C112.105 106.019 112.184 106.396 112.34 106.696C112.496 106.995 112.815 107.288 113.297 107.575C113.714 107.835 114.371 108.122 115.27 108.434C116.168 108.734 117.223 109.046 118.434 109.372C121.689 110.244 124.013 111.266 125.406 112.438C126.799 113.61 127.496 115.198 127.496 117.204C127.496 118.883 127.118 120.361 126.363 121.637C125.608 122.913 124.566 123.948 123.238 124.743C121.845 125.589 120.263 126.207 118.492 126.598C116.721 126.989 114.716 127.184 112.477 127.184ZM157.418 126.657H149.859L149.195 120.719H138.492L135.094 126.657H127.262L144.703 97.5747H153.375L157.418 126.657ZM148.629 115.504L147.457 105.055L141.461 115.504H148.629ZM182.281 126.657H161.285L168.004 97.5747H175.543L170.133 121.032H183.59L182.281 126.657ZM214.586 97.5747L213.316 103.082H199.742L198.531 108.278H211.129L209.84 113.805H197.242L195.543 121.149H209.117L207.867 126.657H186.793L193.512 97.5747H214.586ZM224.82 127.184C222.333 127.184 220.113 126.969 218.16 126.54C216.22 126.11 214.54 125.576 213.121 124.938L214.625 117.965H215.445C216.786 119.189 218.362 120.14 220.172 120.817C221.982 121.481 223.928 121.813 226.012 121.813C228.147 121.813 229.716 121.526 230.719 120.954C231.721 120.368 232.223 119.534 232.223 118.454C232.223 118.05 232.138 117.705 231.969 117.418C231.812 117.119 231.5 116.826 231.031 116.54C230.562 116.253 229.918 115.973 229.098 115.7C228.29 115.413 227.242 115.088 225.953 114.723C224.534 114.332 223.258 113.909 222.125 113.454C221.005 112.998 220.048 112.457 219.254 111.832C218.46 111.194 217.854 110.459 217.438 109.625C217.034 108.792 216.832 107.796 216.832 106.637C216.832 103.721 218.115 101.396 220.68 99.6645C223.258 97.9197 226.78 97.0473 231.246 97.0473C233.395 97.0473 235.419 97.2231 237.32 97.5747C239.234 97.9262 240.855 98.4015 242.184 99.0005L240.758 105.7H239.957C238.941 104.762 237.6 103.981 235.934 103.356C234.28 102.718 232.47 102.399 230.504 102.399C228.577 102.399 227.086 102.679 226.031 103.239C224.977 103.799 224.449 104.573 224.449 105.563C224.449 106.019 224.527 106.396 224.684 106.696C224.84 106.995 225.159 107.288 225.641 107.575C226.057 107.835 226.715 108.122 227.613 108.434C228.512 108.734 229.566 109.046 230.777 109.372C234.033 110.244 236.357 111.266 237.75 112.438C239.143 113.61 239.84 115.198 239.84 117.204C239.84 118.883 239.462 120.361 238.707 121.637C237.952 122.913 236.91 123.948 235.582 124.743C234.189 125.589 232.607 126.207 230.836 126.598C229.065 126.989 227.06 127.184 224.82 127.184ZM258.277 116.54H243.375L244.664 110.915H259.566L258.277 116.54ZM279.195 117.067C278.401 120.478 276.91 123.004 274.723 124.645C272.535 126.286 269.54 127.106 265.738 127.106C264.345 127.106 263.089 127.054 261.969 126.95C260.849 126.859 259.846 126.722 258.961 126.54L260.348 120.524H261.051C261.611 120.745 262.203 120.96 262.828 121.168C263.466 121.377 264.312 121.481 265.367 121.481C267.359 121.481 268.85 121.006 269.84 120.055C270.829 119.105 271.637 117.256 272.262 114.508L274.938 102.926H268.297L269.527 97.5747H283.707L279.195 117.067ZM311.812 97.5747L310.543 103.082H296.969L295.758 108.278H308.355L307.066 113.805H294.469L292.77 121.149H306.344L305.094 126.657H284.02L290.738 97.5747H311.812ZM340.582 104.899C340.582 107.23 339.872 109.189 338.453 110.778C337.034 112.366 335.107 113.564 332.672 114.372L339.391 126.657H331.012L325.543 115.993H321.324L318.863 126.657H311.363L318.082 97.5747H329.43C332.984 97.5747 335.732 98.1801 337.672 99.3911C339.612 100.589 340.582 102.425 340.582 104.899ZM332.496 106.149C332.496 104.977 332.118 104.15 331.363 103.668C330.621 103.174 329.521 102.926 328.062 102.926H324.352L322.535 110.758H326.227C328.219 110.758 329.762 110.355 330.855 109.547C331.949 108.727 332.496 107.594 332.496 106.149ZM370.133 126.657H361.871L355.328 114.879L352.301 117.516L350.191 126.657H342.652L349.352 97.5747H356.891L353.941 110.387L367.066 97.5747H375.973L361.285 111.11L370.133 126.657ZM400.504 96.2661L392.164 107.77H387.516L393.238 96.2661H400.504ZM389.879 96.2661L381.539 107.77H376.891L382.613 96.2661H389.879Z" fill="#F6FF79"/>
<path d="M87.1738 220.774C87.1738 221.624 86.9736 222.464 86.5732 223.294C86.1826 224.124 85.6309 224.827 84.918 225.403C84.1367 226.028 83.2236 226.517 82.1787 226.868C81.1436 227.22 79.8936 227.396 78.4287 227.396C76.8564 227.396 75.4404 227.249 74.1807 226.956C72.9307 226.663 71.6562 226.229 70.3574 225.652V222.02H70.5625C71.666 222.938 72.9404 223.646 74.3857 224.144C75.8311 224.642 77.1885 224.891 78.458 224.891C80.2549 224.891 81.6514 224.554 82.6475 223.88C83.6533 223.206 84.1562 222.308 84.1562 221.185C84.1562 220.218 83.917 219.505 83.4385 219.046C82.9697 218.587 82.252 218.23 81.2852 217.977C80.5527 217.781 79.7568 217.62 78.8975 217.493C78.0479 217.366 77.1445 217.205 76.1875 217.01C74.2539 216.6 72.8184 215.901 71.8809 214.915C70.9531 213.919 70.4893 212.625 70.4893 211.033C70.4893 209.207 71.2607 207.713 72.8037 206.551C74.3467 205.379 76.3047 204.793 78.6777 204.793C80.2109 204.793 81.6172 204.939 82.8965 205.232C84.1758 205.525 85.3086 205.887 86.2949 206.316V209.744H86.0898C85.2598 209.041 84.166 208.46 82.8086 208.001C81.4609 207.532 80.0791 207.298 78.6631 207.298C77.1104 207.298 75.8604 207.62 74.9131 208.265C73.9756 208.909 73.5068 209.739 73.5068 210.755C73.5068 211.663 73.7412 212.376 74.21 212.894C74.6787 213.411 75.5039 213.807 76.6855 214.08C77.3105 214.217 78.1992 214.383 79.3516 214.578C80.5039 214.773 81.4805 214.974 82.2812 215.179C83.9023 215.608 85.123 216.258 85.9434 217.127C86.7637 217.996 87.1738 219.212 87.1738 220.774ZM111.256 227H108.355V208.206L102.291 220.994H100.562L94.542 208.206V227H91.832V205.188H95.7871L101.603 217.332L107.228 205.188H111.256V227ZM134.312 227H131.222L129.083 220.921H119.649L117.511 227H114.566L122.506 205.188H126.373L134.312 227ZM128.189 218.431L124.366 207.723L120.528 218.431H128.189ZM154.469 225.418C153.932 225.652 153.443 225.872 153.004 226.077C152.574 226.282 152.008 226.497 151.305 226.722C150.709 226.907 150.06 227.063 149.356 227.19C148.663 227.327 147.896 227.396 147.057 227.396C145.475 227.396 144.034 227.176 142.735 226.736C141.446 226.287 140.323 225.589 139.366 224.642C138.429 223.714 137.696 222.537 137.169 221.111C136.642 219.676 136.378 218.011 136.378 216.116C136.378 214.319 136.632 212.713 137.14 211.297C137.647 209.881 138.38 208.685 139.337 207.708C140.265 206.761 141.383 206.038 142.691 205.54C144.01 205.042 145.47 204.793 147.071 204.793C148.243 204.793 149.41 204.935 150.572 205.218C151.744 205.501 153.043 205.999 154.469 206.712V210.154H154.249C153.048 209.148 151.856 208.416 150.675 207.957C149.493 207.498 148.229 207.269 146.881 207.269C145.777 207.269 144.781 207.449 143.893 207.811C143.014 208.162 142.228 208.714 141.534 209.466C140.86 210.198 140.333 211.126 139.952 212.249C139.581 213.362 139.396 214.651 139.396 216.116C139.396 217.649 139.601 218.968 140.011 220.071C140.431 221.175 140.968 222.073 141.622 222.767C142.306 223.489 143.102 224.026 144.01 224.378C144.928 224.72 145.895 224.891 146.91 224.891C148.307 224.891 149.615 224.651 150.836 224.173C152.057 223.694 153.199 222.977 154.264 222.02H154.469V225.418ZM176.104 227H172.34L163.712 217.288L161.544 219.603V227H158.644V205.188H161.544V216.57L172.135 205.188H175.65L165.909 215.442L176.104 227ZM209.342 227H206.441V208.206L200.377 220.994H198.648L192.628 208.206V227H189.918V205.188H193.873L199.688 217.332L205.313 205.188H209.342V227ZM232.398 227H229.308L227.169 220.921H217.735L215.597 227H212.652L220.592 205.188H224.459L232.398 227ZM226.275 218.431L222.452 207.723L218.614 218.431H226.275ZM253.902 225.389C252.711 225.936 251.407 226.414 249.991 226.824C248.585 227.225 247.223 227.425 245.904 227.425C244.205 227.425 242.647 227.19 241.231 226.722C239.815 226.253 238.609 225.55 237.613 224.612C236.607 223.665 235.831 222.483 235.284 221.067C234.737 219.642 234.464 217.977 234.464 216.072C234.464 212.586 235.479 209.837 237.511 207.825C239.552 205.804 242.35 204.793 245.904 204.793C247.145 204.793 248.409 204.944 249.698 205.247C250.997 205.54 252.394 206.043 253.888 206.756V210.198H253.624C253.321 209.964 252.882 209.656 252.306 209.275C251.729 208.895 251.163 208.577 250.606 208.323C249.933 208.021 249.166 207.771 248.307 207.576C247.457 207.371 246.49 207.269 245.406 207.269C242.965 207.269 241.031 208.055 239.605 209.627C238.189 211.189 237.481 213.309 237.481 215.984C237.481 218.807 238.224 221.004 239.708 222.576C241.192 224.139 243.214 224.92 245.772 224.92C246.71 224.92 247.643 224.827 248.57 224.642C249.508 224.456 250.328 224.217 251.031 223.924V218.577H245.187V216.028H253.902V225.389ZM266.661 227H258.048V224.773H260.904V207.415H258.048V205.188H266.661V207.415H263.805V224.773H266.661V227ZM288.443 225.418C287.906 225.652 287.418 225.872 286.979 226.077C286.549 226.282 285.982 226.497 285.279 226.722C284.684 226.907 284.034 227.063 283.331 227.19C282.638 227.327 281.871 227.396 281.031 227.396C279.449 227.396 278.009 227.176 276.71 226.736C275.421 226.287 274.298 225.589 273.341 224.642C272.403 223.714 271.671 222.537 271.144 221.111C270.616 219.676 270.353 218.011 270.353 216.116C270.353 214.319 270.606 212.713 271.114 211.297C271.622 209.881 272.354 208.685 273.312 207.708C274.239 206.761 275.357 206.038 276.666 205.54C277.984 205.042 279.444 204.793 281.046 204.793C282.218 204.793 283.385 204.935 284.547 205.218C285.719 205.501 287.018 205.999 288.443 206.712V210.154H288.224C287.022 209.148 285.831 208.416 284.649 207.957C283.468 207.498 282.203 207.269 280.855 207.269C279.752 207.269 278.756 207.449 277.867 207.811C276.988 208.162 276.202 208.714 275.509 209.466C274.835 210.198 274.308 211.126 273.927 212.249C273.556 213.362 273.37 214.651 273.37 216.116C273.37 217.649 273.575 218.968 273.985 220.071C274.405 221.175 274.942 222.073 275.597 222.767C276.28 223.489 277.076 224.026 277.984 224.378C278.902 224.72 279.869 224.891 280.885 224.891C282.281 224.891 283.59 224.651 284.811 224.173C286.031 223.694 287.174 222.977 288.238 222.02H288.443V225.418ZM308.395 220.774C308.395 221.624 308.194 222.464 307.794 223.294C307.403 224.124 306.852 224.827 306.139 225.403C305.357 226.028 304.444 226.517 303.399 226.868C302.364 227.22 301.114 227.396 299.649 227.396C298.077 227.396 296.661 227.249 295.401 226.956C294.151 226.663 292.877 226.229 291.578 225.652V222.02H291.783C292.887 222.938 294.161 223.646 295.606 224.144C297.052 224.642 298.409 224.891 299.679 224.891C301.476 224.891 302.872 224.554 303.868 223.88C304.874 223.206 305.377 222.308 305.377 221.185C305.377 220.218 305.138 219.505 304.659 219.046C304.19 218.587 303.473 218.23 302.506 217.977C301.773 217.781 300.978 217.62 300.118 217.493C299.269 217.366 298.365 217.205 297.408 217.01C295.475 216.6 294.039 215.901 293.102 214.915C292.174 213.919 291.71 212.625 291.71 211.033C291.71 209.207 292.481 207.713 294.024 206.551C295.567 205.379 297.525 204.793 299.898 204.793C301.432 204.793 302.838 204.939 304.117 205.232C305.396 205.525 306.529 205.887 307.516 206.316V209.744H307.311C306.48 209.041 305.387 208.46 304.029 208.001C302.682 207.532 301.3 207.298 299.884 207.298C298.331 207.298 297.081 207.62 296.134 208.265C295.196 208.909 294.728 209.739 294.728 210.755C294.728 211.663 294.962 212.376 295.431 212.894C295.899 213.411 296.725 213.807 297.906 214.08C298.531 214.217 299.42 214.383 300.572 214.578C301.725 214.773 302.701 214.974 303.502 215.179C305.123 215.608 306.344 216.258 307.164 217.127C307.984 217.996 308.395 219.212 308.395 220.774ZM339.449 220.774C339.449 221.624 339.249 222.464 338.849 223.294C338.458 224.124 337.906 224.827 337.193 225.403C336.412 226.028 335.499 226.517 334.454 226.868C333.419 227.22 332.169 227.396 330.704 227.396C329.132 227.396 327.716 227.249 326.456 226.956C325.206 226.663 323.932 226.229 322.633 225.652V222.02H322.838C323.941 222.938 325.216 223.646 326.661 224.144C328.106 224.642 329.464 224.891 330.733 224.891C332.53 224.891 333.927 224.554 334.923 223.88C335.929 223.206 336.432 222.308 336.432 221.185C336.432 220.218 336.192 219.505 335.714 219.046C335.245 218.587 334.527 218.23 333.561 217.977C332.828 217.781 332.032 217.62 331.173 217.493C330.323 217.366 329.42 217.205 328.463 217.01C326.529 216.6 325.094 215.901 324.156 214.915C323.229 213.919 322.765 212.625 322.765 211.033C322.765 209.207 323.536 207.713 325.079 206.551C326.622 205.379 328.58 204.793 330.953 204.793C332.486 204.793 333.893 204.939 335.172 205.232C336.451 205.525 337.584 205.887 338.57 206.316V209.744H338.365C337.535 209.041 336.441 208.46 335.084 208.001C333.736 207.532 332.354 207.298 330.938 207.298C329.386 207.298 328.136 207.62 327.188 208.265C326.251 208.909 325.782 209.739 325.782 210.755C325.782 211.663 326.017 212.376 326.485 212.894C326.954 213.411 327.779 213.807 328.961 214.08C329.586 214.217 330.475 214.383 331.627 214.578C332.779 214.773 333.756 214.974 334.557 215.179C336.178 215.608 337.398 216.258 338.219 217.127C339.039 217.996 339.449 219.212 339.449 220.774ZM360.367 207.693C361.256 208.67 361.935 209.866 362.403 211.282C362.882 212.698 363.121 214.305 363.121 216.102C363.121 217.898 362.877 219.51 362.389 220.936C361.91 222.352 361.236 223.533 360.367 224.48C359.469 225.467 358.404 226.209 357.174 226.707C355.953 227.205 354.557 227.454 352.984 227.454C351.451 227.454 350.055 227.2 348.795 226.692C347.545 226.185 346.48 225.447 345.602 224.48C344.723 223.514 344.044 222.327 343.565 220.921C343.097 219.515 342.862 217.908 342.862 216.102C342.862 214.324 343.097 212.732 343.565 211.326C344.034 209.91 344.718 208.699 345.616 207.693C346.476 206.736 347.54 206.004 348.81 205.496C350.089 204.988 351.48 204.734 352.984 204.734C354.547 204.734 355.948 204.993 357.188 205.511C358.438 206.019 359.498 206.746 360.367 207.693ZM360.104 216.102C360.104 213.27 359.469 211.087 358.199 209.554C356.93 208.011 355.196 207.239 352.999 207.239C350.782 207.239 349.039 208.011 347.77 209.554C346.51 211.087 345.88 213.27 345.88 216.102C345.88 218.963 346.524 221.155 347.813 222.679C349.103 224.192 350.831 224.949 352.999 224.949C355.167 224.949 356.891 224.192 358.17 222.679C359.459 221.155 360.104 218.963 360.104 216.102ZM381.52 227H367.721V205.188H370.621V224.422H381.52V227ZM402.848 216.116C402.848 218.099 402.413 219.896 401.544 221.507C400.685 223.118 399.537 224.368 398.102 225.257C397.105 225.872 395.992 226.316 394.762 226.59C393.541 226.863 391.93 227 389.928 227H384.42V205.188H389.869C391.998 205.188 393.688 205.345 394.938 205.657C396.197 205.96 397.262 206.38 398.131 206.917C399.615 207.845 400.772 209.08 401.603 210.623C402.433 212.166 402.848 213.997 402.848 216.116ZM399.815 216.072C399.815 214.363 399.518 212.923 398.922 211.751C398.326 210.579 397.438 209.656 396.256 208.982C395.396 208.494 394.483 208.157 393.517 207.972C392.55 207.776 391.393 207.679 390.045 207.679H387.32V224.51H390.045C391.441 224.51 392.657 224.407 393.692 224.202C394.737 223.997 395.694 223.616 396.563 223.06C397.647 222.366 398.458 221.453 398.995 220.32C399.542 219.188 399.815 217.771 399.815 216.072Z" fill="#F6FF79"/>
<path d="M269.565 251.165H265.3L265.587 249.928H269.853L269.565 251.165ZM284.311 255H282.711L279.573 250.454L278.179 251.637L277.406 255H276.039L278.391 244.821H279.758L278.527 250.105L284.509 244.821H286.231L280.646 249.695L284.311 255ZM289.362 244.753L289.055 246.086H287.605L287.913 244.753H289.362ZM288.679 247.364L286.915 255H285.63L287.394 247.364H288.679ZM295.187 247.364L294.954 248.403H292.302L291.481 251.924C291.436 252.102 291.395 252.307 291.358 252.539C291.322 252.767 291.304 252.949 291.304 253.086C291.304 253.419 291.388 253.667 291.557 253.831C291.725 253.991 292.037 254.07 292.493 254.07C292.68 254.07 292.901 254.038 293.156 253.975C293.416 253.911 293.591 253.861 293.683 253.824H293.751L293.512 254.932C293.257 254.995 292.983 255.048 292.691 255.089C292.404 255.13 292.149 255.15 291.926 255.15C291.297 255.15 290.809 255.014 290.463 254.74C290.121 254.462 289.95 254.025 289.95 253.428C289.95 253.282 289.959 253.138 289.978 252.997C290 252.851 290.03 252.687 290.066 252.505L291.017 248.403H290.148L290.381 247.364H291.249L291.762 245.17H293.047L292.534 247.364H295.187ZM298.29 255.171C297.807 255.171 297.379 255.114 297.005 255C296.636 254.886 296.312 254.706 296.034 254.46C295.765 254.223 295.558 253.924 295.412 253.564C295.266 253.204 295.193 252.785 295.193 252.307C295.193 251.591 295.305 250.924 295.528 250.304C295.752 249.684 296.068 249.139 296.479 248.67C296.875 248.214 297.365 247.854 297.948 247.59C298.532 247.321 299.16 247.187 299.835 247.187C300.282 247.187 300.701 247.248 301.093 247.371C301.489 247.494 301.838 247.64 302.139 247.809L301.858 249.196H301.783C301.692 249.114 301.578 249.019 301.441 248.909C301.305 248.8 301.143 248.697 300.956 248.602C300.769 248.501 300.562 248.419 300.334 248.355C300.106 248.287 299.846 248.253 299.555 248.253C298.671 248.253 297.948 248.627 297.388 249.374C296.832 250.121 296.554 251.031 296.554 252.102C296.554 252.744 296.718 253.239 297.046 253.585C297.379 253.931 297.85 254.104 298.461 254.104C298.748 254.104 299.035 254.063 299.322 253.981C299.609 253.899 299.853 253.811 300.054 253.715C300.277 253.61 300.484 253.498 300.676 253.38C300.867 253.261 301.006 253.173 301.093 253.113H301.168L300.895 254.515C300.498 254.692 300.079 254.847 299.637 254.979C299.195 255.107 298.746 255.171 298.29 255.171ZM309.932 249.107C309.932 249.217 309.92 249.365 309.897 249.552C309.879 249.739 309.852 249.903 309.815 250.044L308.667 255H307.382L308.387 250.652C308.441 250.411 308.482 250.201 308.51 250.023C308.542 249.841 308.558 249.661 308.558 249.483C308.558 249.101 308.462 248.813 308.271 248.622C308.084 248.426 307.744 248.328 307.252 248.328C306.906 248.328 306.523 248.424 306.104 248.615C305.689 248.807 305.283 249.035 304.887 249.299L303.567 255H302.282L304.736 244.363H306.021L305.133 248.212C305.62 247.87 306.076 247.608 306.5 247.426C306.928 247.243 307.368 247.152 307.819 247.152C308.485 247.152 309.002 247.321 309.371 247.658C309.745 247.991 309.932 248.474 309.932 249.107ZM317.321 250.352C317.344 250.219 317.36 250.108 317.369 250.017C317.378 249.925 317.383 249.825 317.383 249.716C317.383 249.228 317.248 248.848 316.979 248.574C316.715 248.301 316.289 248.164 315.701 248.164C315.054 248.164 314.48 248.365 313.979 248.766C313.477 249.167 313.138 249.695 312.96 250.352H317.321ZM314.751 255.178C313.694 255.178 312.864 254.929 312.263 254.433C311.661 253.936 311.36 253.209 311.36 252.252C311.36 250.853 311.802 249.654 312.687 248.656C313.571 247.654 314.664 247.152 315.968 247.152C316.834 247.152 317.497 247.369 317.957 247.802C318.417 248.23 318.647 248.834 318.647 249.613C318.647 249.75 318.627 249.966 318.586 250.263C318.549 250.559 318.488 250.903 318.401 251.295H312.775C312.748 251.427 312.728 251.557 312.714 251.685C312.705 251.812 312.7 251.931 312.7 252.04C312.7 252.683 312.896 253.188 313.288 253.558C313.68 253.922 314.236 254.104 314.956 254.104C315.457 254.104 315.972 254.007 316.501 253.811C317.034 253.615 317.481 253.394 317.841 253.147H317.916L317.636 254.535C317.408 254.617 317.203 254.692 317.021 254.761C316.838 254.829 316.606 254.897 316.323 254.966C316.041 255.034 315.79 255.087 315.571 255.123C315.353 255.16 315.079 255.178 314.751 255.178ZM327.131 249.107C327.131 249.217 327.119 249.365 327.097 249.552C327.078 249.739 327.051 249.903 327.015 250.044L325.866 255H324.581L325.586 250.652C325.641 250.411 325.682 250.201 325.709 250.023C325.741 249.841 325.757 249.661 325.757 249.483C325.757 249.101 325.661 248.813 325.47 248.622C325.283 248.426 324.943 248.328 324.451 248.328C324.105 248.328 323.722 248.424 323.303 248.615C322.888 248.807 322.482 249.035 322.086 249.299L320.767 255H319.481L321.245 247.364H322.53L322.332 248.212C322.82 247.87 323.275 247.608 323.699 247.426C324.128 247.243 324.567 247.152 325.019 247.152C325.684 247.152 326.201 247.321 326.57 247.658C326.944 247.991 327.131 248.474 327.131 249.107ZM347.495 244.821L342.607 255H341.042L340.741 246.571L336.79 255H335.286L334.869 244.821H336.243L336.517 253.271L340.502 244.821H341.876L342.149 253.353L346.162 244.821H347.495ZM353.306 250.352C353.328 250.219 353.344 250.108 353.354 250.017C353.363 249.925 353.367 249.825 353.367 249.716C353.367 249.228 353.233 248.848 352.964 248.574C352.7 248.301 352.273 248.164 351.686 248.164C351.038 248.164 350.464 248.365 349.963 248.766C349.462 249.167 349.122 249.695 348.944 250.352H353.306ZM350.735 255.178C349.678 255.178 348.849 254.929 348.247 254.433C347.646 253.936 347.345 253.209 347.345 252.252C347.345 250.853 347.787 249.654 348.671 248.656C349.555 247.654 350.649 247.152 351.952 247.152C352.818 247.152 353.481 247.369 353.941 247.802C354.402 248.23 354.632 248.834 354.632 249.613C354.632 249.75 354.611 249.966 354.57 250.263C354.534 250.559 354.472 250.903 354.386 251.295H348.76C348.732 251.427 348.712 251.557 348.698 251.685C348.689 251.812 348.685 251.931 348.685 252.04C348.685 252.683 348.881 253.188 349.272 253.558C349.664 253.922 350.22 254.104 350.94 254.104C351.442 254.104 351.957 254.007 352.485 253.811C353.019 253.615 353.465 253.394 353.825 253.147H353.9L353.62 254.535C353.392 254.617 353.187 254.692 353.005 254.761C352.823 254.829 352.59 254.897 352.308 254.966C352.025 255.034 351.774 255.087 351.556 255.123C351.337 255.16 351.063 255.178 350.735 255.178ZM361.646 250.352C361.668 250.219 361.684 250.108 361.693 250.017C361.702 249.925 361.707 249.825 361.707 249.716C361.707 249.228 361.573 248.848 361.304 248.574C361.039 248.301 360.613 248.164 360.025 248.164C359.378 248.164 358.804 248.365 358.303 248.766C357.801 249.167 357.462 249.695 357.284 250.352H361.646ZM359.075 255.178C358.018 255.178 357.188 254.929 356.587 254.433C355.985 253.936 355.685 253.209 355.685 252.252C355.685 250.853 356.127 249.654 357.011 248.656C357.895 247.654 358.989 247.152 360.292 247.152C361.158 247.152 361.821 247.369 362.281 247.802C362.742 248.23 362.972 248.834 362.972 249.613C362.972 249.75 362.951 249.966 362.91 250.263C362.874 250.559 362.812 250.903 362.726 251.295H357.1C357.072 251.427 357.052 251.557 357.038 251.685C357.029 251.812 357.024 251.931 357.024 252.04C357.024 252.683 357.22 253.188 357.612 253.558C358.004 253.922 358.56 254.104 359.28 254.104C359.782 254.104 360.297 254.007 360.825 253.811C361.358 253.615 361.805 253.394 362.165 253.147H362.24L361.96 254.535C361.732 254.617 361.527 254.692 361.345 254.761C361.162 254.829 360.93 254.897 360.647 254.966C360.365 255.034 360.114 255.087 359.896 255.123C359.677 255.16 359.403 255.178 359.075 255.178ZM370.819 255H369.261L366.82 251.644L365.713 252.539L365.152 255H363.854L366.314 244.363H367.613L366.027 251.199L370.505 247.364H372.193L367.839 250.974L370.819 255ZM375.782 244.363L373.321 255H372.036L374.497 244.363H375.782ZM377.245 257.816H375.83L378.052 254.556L376.671 247.364H377.99L379.07 253.045L382.721 247.364H384.122L377.245 257.816Z" fill="#F6FF79"/>
</svg>
