<svg width="400" height="200" viewBox="0 0 400 200" fill="none" xmlns="http://www.w3.org/2000/svg">
<path d="M233.278 39.0708L302.529 26.3199L290.453 59.5736L288.72 64.3475L293.767 64.914L380.162 74.6098L307.036 96.6399L300.024 98.7525L305.591 103.511L338.218 131.395L267.954 131.233L265.093 131.226L264.162 133.932L251.835 169.764L193.864 145.277L191.872 144.435L190.077 145.642L118.453 193.777L106.426 158.816L105.495 156.111L102.634 156.118L32.3698 156.28L64.9969 128.395L69.9557 124.158L63.93 121.66L13.0718 100.577L77.7567 85.6505L82.1593 84.6346L80.6171 80.3876L68.5415 47.1339L137.793 59.8848L139.909 60.2745L141.401 58.7231L192.549 5.52061L229.923 38.1501L231.378 39.4206L233.278 39.0708Z" fill="url(#paint0_linear_1_2)" stroke="black" stroke-width="8"/>
<defs>
<linearGradient id="paint0_linear_1_2" x1="134.389" y1="81.106" x2="134.613" y2="163.992" gradientUnits="userSpaceOnUse">
<stop stop-color="#F40000"/>
<stop offset="1" stop-color="#FD6363"/>
</linearGradient>
</defs>
</svg>
