<svg width="403" height="201" viewBox="0 0 403 201" fill="none" xmlns="http://www.w3.org/2000/svg">
<path d="M137.906 88.0742C138.596 87.5143 139.326 87.2344 140.094 87.2344C141.526 87.2344 142.242 88.1979 142.242 90.125C142.242 92.4427 141.93 94.0378 141.305 94.9102C140.68 95.7695 139.84 96.1992 138.785 96.1992C137.587 96.1992 136.812 95.5872 136.461 94.3633C136.305 93.7904 136.122 93.4453 135.914 93.3281C135.706 93.2109 135.178 93.1523 134.332 93.1523C132.353 93.1523 129.781 94.9427 126.617 98.5234C123.453 102.104 121.871 105.229 121.871 107.898C121.871 109.057 122.249 110.06 123.004 110.906C123.772 111.74 124.762 112.156 125.973 112.156C127.066 112.156 128.076 111.974 129 111.609C129.938 111.245 131.383 110.457 133.336 109.246C134.456 108.569 135.27 108.23 135.777 108.23C136.48 108.23 137.053 108.452 137.496 108.895C137.939 109.337 138.16 109.897 138.16 110.574C138.16 111.225 137.926 111.811 137.457 112.332C136.988 112.853 135.973 113.595 134.41 114.559C132.848 115.509 131.285 116.238 129.723 116.746C128.173 117.241 126.643 117.488 125.133 117.488C122.477 117.488 120.341 116.622 118.727 114.891C117.125 113.146 116.324 111.095 116.324 108.738C116.324 104.533 118.505 100.001 122.867 95.1445C127.229 90.2747 131.331 87.8398 135.172 87.8398C136.344 87.8398 137.255 87.918 137.906 88.0742ZM140.191 114.578L141.559 108.445C142.743 103.081 143.902 96.7852 145.035 89.5586C145.139 88.8685 145.491 88.25 146.09 87.7031C146.689 87.1562 147.385 86.8828 148.18 86.8828C148.87 86.8828 149.43 87.0911 149.859 87.5078C150.289 87.9245 150.504 88.4648 150.504 89.1289C150.504 89.6367 150.172 91.7201 149.508 95.3789L147.965 103.699C147.6 105.587 146.878 108.862 145.797 113.523C148.87 113.484 152.945 112.723 158.023 111.238C158.349 111.16 158.642 111.121 158.902 111.121C159.697 111.121 160.276 111.362 160.641 111.844C161.005 112.326 161.188 112.827 161.188 113.348C161.188 114.533 160.621 115.438 159.488 116.062C158.368 116.674 156.122 117.28 152.75 117.879C149.391 118.491 146.565 118.797 144.273 118.797C141.5 118.797 140.113 117.729 140.113 115.594C140.113 115.281 140.139 114.943 140.191 114.578ZM163.727 107.762C163.727 105.027 164.592 102 166.324 98.6797C168.069 95.3464 170.419 92.6315 173.375 90.5352C176.331 88.4388 179.449 87.3906 182.73 87.3906C190.66 87.3906 194.625 90.5742 194.625 96.9414C194.625 102.072 192.809 106.896 189.176 111.414C185.543 115.932 181.194 118.191 176.129 118.191C172.496 118.191 169.521 117.215 167.203 115.262C164.885 113.309 163.727 110.809 163.727 107.762ZM169.352 106.805C169.352 108.576 170.068 110.034 171.5 111.18C172.932 112.312 174.755 112.879 176.969 112.879C180.159 112.879 182.958 111.219 185.367 107.898C187.789 104.578 189 101.173 189 97.6836C189 95.8867 188.466 94.6107 187.398 93.8555C186.331 93.1003 184.495 92.7227 181.891 92.7227C179.781 92.7227 177.75 93.4779 175.797 94.9883C173.844 96.4987 172.281 98.4323 171.109 100.789C169.938 103.133 169.352 105.138 169.352 106.805ZM194.762 112.469C194.762 111.414 195.087 110.555 195.738 109.891C196.389 109.214 197.177 108.875 198.102 108.875C199.234 108.875 200.009 109.474 200.426 110.672C200.895 112.273 202.438 113.074 205.055 113.074C207.177 113.074 209.469 112.586 211.93 111.609C214.404 110.62 215.641 109.272 215.641 107.566C215.641 106.408 215.178 105.613 214.254 105.184C213.342 104.741 211.37 104.493 208.336 104.441C205.979 104.389 203.935 103.914 202.203 103.016C200.484 102.104 199.625 100.887 199.625 99.3633C199.625 96.8112 201.168 94.3438 204.254 91.9609C207.34 89.5651 210.647 88.3672 214.176 88.3672C215.517 88.3672 217.138 88.6927 219.039 89.3438C220.94 89.9818 221.891 90.724 221.891 91.5703C221.891 92.1693 221.585 92.8008 220.973 93.4648C220.361 94.1159 219.618 94.4414 218.746 94.4414C218.082 94.4414 217.177 94.3047 216.031 94.0312C214.964 93.7708 214.065 93.6406 213.336 93.6406C211.63 93.6406 209.911 94.0703 208.18 94.9297C206.461 95.776 205.602 96.707 205.602 97.7227C205.602 98.582 206.448 99.1419 208.141 99.4023L212.672 99.6172C214.456 99.6953 216.025 100.034 217.379 100.633C218.733 101.232 219.749 102.065 220.426 103.133C221.103 104.188 221.441 105.444 221.441 106.902C221.441 110.535 219.703 113.328 216.227 115.281C212.75 117.221 208.694 118.191 204.059 118.191C201.09 118.191 198.798 117.632 197.184 116.512C195.569 115.379 194.762 114.031 194.762 112.469ZM232.73 91.9219C232.21 95.0729 231.747 97.6445 231.344 99.6367C232.958 99.5065 235.543 99.2656 239.098 98.9141C241.611 98.6797 243.212 98.5625 243.902 98.5625C244.632 98.5625 245.211 98.7643 245.641 99.168C246.07 99.5716 246.285 100.105 246.285 100.77C246.285 101.525 246.038 102.202 245.543 102.801C245.061 103.4 244.28 103.745 243.199 103.836C242.118 103.927 240.445 104.09 238.18 104.324C235.914 104.546 233.232 104.773 230.133 105.008C229.378 108.693 229 111.186 229 112.488C229 112.944 229.052 113.25 229.156 113.406C229.26 113.562 230.055 113.641 231.539 113.641H233.062L238.863 113.523C239.033 113.523 239.638 113.458 240.68 113.328C241.565 113.211 242.281 113.354 242.828 113.758C243.375 114.161 243.648 114.734 243.648 115.477C243.648 116.87 243.089 117.788 241.969 118.23C240.862 118.686 237.796 118.914 232.77 118.914C228.551 118.914 225.96 118.426 224.996 117.449C224.033 116.486 223.551 114.969 223.551 112.898C223.551 110.685 224.202 106.772 225.504 101.16C226.676 96.2513 227.262 92.9701 227.262 91.3164C227.327 89.9232 227.438 88.9336 227.594 88.3477C227.763 87.7487 228.102 87.2539 228.609 86.8633C229.13 86.4727 229.801 86.2773 230.621 86.2773C231.207 86.2773 231.702 86.4531 232.105 86.8047C235.152 86.0234 237.939 85.6328 240.465 85.6328C242.47 85.6328 244.488 85.8477 246.52 86.2773C248.564 86.694 249.586 87.5078 249.586 88.7188C249.586 89.5911 249.267 90.3529 248.629 91.0039C248.004 91.6419 247.281 91.9609 246.461 91.9609C246.174 91.9609 245.895 91.9219 245.621 91.8438C243.59 91.2839 241.578 91.0039 239.586 91.0039C237.49 91.0039 235.204 91.3099 232.73 91.9219Z" fill="#E6D220"/>
</svg>
