<svg width="930" height="440" viewBox="0 0 930 440" fill="none" xmlns="http://www.w3.org/2000/svg">
<path d="M539.72 59.8199L652.905 23.0114L670.729 86.3157L671.402 88.7068L673.877 88.4914L806.354 76.9601L769.818 136.063L767.335 140.08L772.026 140.62L899.567 155.315L816.512 201.745L810.809 204.933L816.944 207.181L918.89 244.534L801.882 271.212L796.165 272.516L800.567 276.389L861.604 330.105L728.717 331.896L725.243 331.943L725.795 335.373L735.85 397.831L609.935 373.189L608.088 372.828L606.959 374.333L561.195 435.348L466.339 388.035L465 387.368L463.661 388.035L368.804 435.348L323.041 374.333L321.912 372.828L320.065 373.189L194.15 397.831L204.205 335.373L204.757 331.943L201.283 331.896L68.3964 330.105L129.433 276.389L133.835 272.516L128.118 271.212L11.11 244.534L113.056 207.181L119.191 204.933L113.488 201.745L30.4329 155.315L157.974 140.62L162.665 140.08L160.182 136.063L123.646 76.9601L256.123 88.4914L258.598 88.7068L259.271 86.3157L277.095 23.0115L390.28 59.8199L391.787 60.3099L393.041 59.3416L465 3.78996L536.959 59.3416L538.213 60.3099L539.72 59.8199Z" fill="#F18400"/>
<path d="M539.72 59.8199L652.905 23.0114L670.729 86.3157L671.402 88.7068L673.877 88.4914L806.354 76.9601L769.818 136.063L767.335 140.08L772.026 140.62L899.567 155.315L816.512 201.745L810.809 204.933L816.944 207.181L918.89 244.534L801.882 271.212L796.165 272.516L800.567 276.389L861.604 330.105L728.717 331.896L725.243 331.943L725.795 335.373L735.85 397.831L609.935 373.189L608.088 372.828L606.959 374.333L561.195 435.348L466.339 388.035L465 387.368L463.661 388.035L368.804 435.348L323.041 374.333L321.912 372.828L320.065 373.189L194.15 397.831L204.205 335.373L204.757 331.943L201.283 331.896L68.3964 330.105L129.433 276.389L133.835 272.516L128.118 271.212L11.11 244.534L113.056 207.181L119.191 204.933L113.488 201.745L30.4329 155.315L157.974 140.62L162.665 140.08L160.182 136.063L123.646 76.9601L256.123 88.4914L258.598 88.7068L259.271 86.3157L277.095 23.0115L390.28 59.8199L391.787 60.3099L393.041 59.3416L465 3.78996L536.959 59.3416L538.213 60.3099L539.72 59.8199Z" fill="url(#paint0_radial_1_2)" fill-opacity="0.7"/>
<path d="M539.72 59.8199L652.905 23.0114L670.729 86.3157L671.402 88.7068L673.877 88.4914L806.354 76.9601L769.818 136.063L767.335 140.08L772.026 140.62L899.567 155.315L816.512 201.745L810.809 204.933L816.944 207.181L918.89 244.534L801.882 271.212L796.165 272.516L800.567 276.389L861.604 330.105L728.717 331.896L725.243 331.943L725.795 335.373L735.85 397.831L609.935 373.189L608.088 372.828L606.959 374.333L561.195 435.348L466.339 388.035L465 387.368L463.661 388.035L368.804 435.348L323.041 374.333L321.912 372.828L320.065 373.189L194.15 397.831L204.205 335.373L204.757 331.943L201.283 331.896L68.3964 330.105L129.433 276.389L133.835 272.516L128.118 271.212L11.11 244.534L113.056 207.181L119.191 204.933L113.488 201.745L30.4329 155.315L157.974 140.62L162.665 140.08L160.182 136.063L123.646 76.9601L256.123 88.4914L258.598 88.7068L259.271 86.3157L277.095 23.0115L390.28 59.8199L391.787 60.3099L393.041 59.3416L465 3.78996L536.959 59.3416L538.213 60.3099L539.72 59.8199Z" fill="url(#paint1_linear_1_2)" fill-opacity="0.5"/>
<path d="M539.72 59.8199L652.905 23.0114L670.729 86.3157L671.402 88.7068L673.877 88.4914L806.354 76.9601L769.818 136.063L767.335 140.08L772.026 140.62L899.567 155.315L816.512 201.745L810.809 204.933L816.944 207.181L918.89 244.534L801.882 271.212L796.165 272.516L800.567 276.389L861.604 330.105L728.717 331.896L725.243 331.943L725.795 335.373L735.85 397.831L609.935 373.189L608.088 372.828L606.959 374.333L561.195 435.348L466.339 388.035L465 387.368L463.661 388.035L368.804 435.348L323.041 374.333L321.912 372.828L320.065 373.189L194.15 397.831L204.205 335.373L204.757 331.943L201.283 331.896L68.3964 330.105L129.433 276.389L133.835 272.516L128.118 271.212L11.11 244.534L113.056 207.181L119.191 204.933L113.488 201.745L30.4329 155.315L157.974 140.62L162.665 140.08L160.182 136.063L123.646 76.9601L256.123 88.4914L258.598 88.7068L259.271 86.3157L277.095 23.0115L390.28 59.8199L391.787 60.3099L393.041 59.3416L465 3.78996L536.959 59.3416L538.213 60.3099L539.72 59.8199Z" stroke="url(#paint2_linear_1_2)" stroke-width="6"/>
<defs>
<radialGradient id="paint0_radial_1_2" cx="0" cy="0" r="1" gradientUnits="userSpaceOnUse" gradientTransform="translate(465 222) rotate(-90) scale(222 467)">
<stop stop-color="white" stop-opacity="0"/>
<stop offset="1" stop-color="white" stop-opacity="0.4"/>
</radialGradient>
<linearGradient id="paint1_linear_1_2" x1="465" y1="444" x2="465" y2="0" gradientUnits="userSpaceOnUse">
<stop offset="0.586" stop-color="white" stop-opacity="0"/>
<stop offset="1" stop-color="white" stop-opacity="0.62"/>
</linearGradient>
<linearGradient id="paint2_linear_1_2" x1="260.677" y1="3.12226e-05" x2="669.323" y2="444" gradientUnits="userSpaceOnUse">
<stop/>
<stop offset="1" stop-color="#4F4F4F"/>
</linearGradient>
</defs>
</svg>
