<svg width="767" height="330" viewBox="0 0 767 330" fill="none" xmlns="http://www.w3.org/2000/svg">
    <path d="M383.5 0L445.937 39.6308L540.297 14.3947L560.015 61.5677L669.982 55.0898L643.571 101.648L750.132 115.049L682.159 152.942L766.888 183.904L669.107 206.581L717.353 249.75L606.67 253.289L610.091 301.201L505.645 284.99L463.65 329.362L383.5 296.203L303.35 329.362L261.355 284.99L156.909 301.201L160.33 253.289L49.6472 249.75L97.8935 206.581L0.111816 183.904L84.8406 152.942L16.8677 115.049L123.429 101.648L97.0177 55.0898L206.985 61.5677L226.703 14.3947L321.063 39.6308L383.5 0Z" fill="#D9D9D9"/>
</svg>
