<svg width="942" height="351" viewBox="0 0 942 351" fill="none" xmlns="http://www.w3.org/2000/svg">
<path d="M467.222 0L391.107 44.8063L274.593 15.8829L228.092 79.0301L115.272 60.7853L153.958 100.295L20.5849 114.53L106.917 156.457L-8.66689e-06 190.504L122.829 215.184L60.8551 263.158L198.943 266.325L192.628 319.928L322.098 301.034L372.534 351L471 313.312L569.466 351L619.902 301.034L749.372 319.928L743.057 266.325L881.145 263.158L819.171 215.184L942 190.504L835.083 156.457L921.415 114.53L788.042 100.295L819.171 60.7853L682.403 68.8247L659.85 15.8829L543.336 44.8063L467.222 0Z" fill="#F1A800"/>
<path d="M467.222 0L391.107 44.8063L274.593 15.8829L228.092 79.0301L115.272 60.7853L153.958 100.295L20.5849 114.53L106.917 156.457L-8.66689e-06 190.504L122.829 215.184L60.8551 263.158L198.943 266.325L192.628 319.928L322.098 301.034L372.534 351L471 313.312L569.466 351L619.902 301.034L749.372 319.928L743.057 266.325L881.145 263.158L819.171 215.184L942 190.504L835.083 156.457L921.415 114.53L788.042 100.295L819.171 60.7853L682.403 68.8247L659.85 15.8829L543.336 44.8063L467.222 0Z" fill="url(#paint0_radial_17_7)" fill-opacity="0.7"/>
<path d="M467.222 0L391.107 44.8063L274.593 15.8829L228.092 79.0301L115.272 60.7853L153.958 100.295L20.5849 114.53L106.917 156.457L-8.66689e-06 190.504L122.829 215.184L60.8551 263.158L198.943 266.325L192.628 319.928L322.098 301.034L372.534 351L471 313.312L569.466 351L619.902 301.034L749.372 319.928L743.057 266.325L881.145 263.158L819.171 215.184L942 190.504L835.083 156.457L921.415 114.53L788.042 100.295L819.171 60.7853L682.403 68.8247L659.85 15.8829L543.336 44.8063L467.222 0Z" fill="url(#paint1_linear_17_7)" fill-opacity="0.5"/>
<path d="M252.809 113.37H248.688L245.836 105.265H233.258L230.406 113.37H226.48L237.066 84.2883H242.223L252.809 113.37ZM244.645 101.945L239.547 87.6672L234.43 101.945H244.645ZM283.121 113.37H279.254V88.3117L271.168 105.362H268.863L260.836 88.3117V113.37H257.223V84.2883H262.496L270.25 100.48L277.75 84.2883H283.121V113.37ZM310.094 113.37H290.934V84.2883H310.094V87.7258H294.801V95.6945H310.094V99.132H294.801V109.933H310.094V113.37ZM340.309 113.37H335.289L325.562 101.808H320.113V113.37H316.246V84.2883H324.391C326.148 84.2883 327.613 84.4054 328.785 84.6398C329.957 84.8612 331.012 85.2648 331.949 85.8508C333.004 86.5148 333.824 87.3547 334.41 88.3703C335.009 89.3729 335.309 90.6489 335.309 92.1984C335.309 94.2948 334.781 96.0526 333.727 97.4718C332.672 98.8781 331.22 99.9393 329.371 100.655L340.309 113.37ZM331.266 92.4718C331.266 91.6385 331.116 90.9028 330.816 90.2648C330.53 89.6138 330.048 89.0669 329.371 88.6242C328.811 88.2466 328.147 87.9862 327.379 87.8429C326.611 87.6867 325.706 87.6086 324.664 87.6086H320.113V98.5851H324.02C325.243 98.5851 326.311 98.481 327.223 98.2726C328.134 98.0513 328.909 97.6476 329.547 97.0617C330.133 96.5148 330.562 95.8898 330.836 95.1867C331.122 94.4705 331.266 93.5656 331.266 92.4718ZM354.312 113.37H342.828V110.402H346.637V87.257H342.828V84.2883H354.312V87.257H350.504V110.402H354.312V113.37ZM383.355 111.261C382.639 111.573 381.988 111.866 381.402 112.14C380.829 112.413 380.074 112.7 379.137 112.999C378.342 113.247 377.477 113.455 376.539 113.624C375.615 113.806 374.592 113.898 373.473 113.898C371.363 113.898 369.443 113.605 367.711 113.019C365.992 112.42 364.495 111.489 363.219 110.226C361.969 108.989 360.992 107.42 360.289 105.519C359.586 103.605 359.234 101.385 359.234 98.8586C359.234 96.4627 359.573 94.3208 360.25 92.4328C360.927 90.5448 361.904 88.9497 363.18 87.6476C364.417 86.3846 365.908 85.4211 367.652 84.757C369.41 84.0929 371.357 83.7609 373.492 83.7609C375.055 83.7609 376.611 83.9497 378.16 84.3273C379.723 84.7049 381.454 85.369 383.355 86.3195V90.9093H383.062C381.461 89.5682 379.872 88.5916 378.297 87.9797C376.721 87.3677 375.035 87.0617 373.238 87.0617C371.767 87.0617 370.439 87.3026 369.254 87.7843C368.082 88.2531 367.034 88.9888 366.109 89.9914C365.211 90.9679 364.508 92.2049 364 93.7023C363.505 95.1867 363.258 96.9054 363.258 98.8586C363.258 100.903 363.531 102.661 364.078 104.132C364.638 105.603 365.354 106.801 366.227 107.726C367.138 108.689 368.199 109.405 369.41 109.874C370.634 110.33 371.923 110.558 373.277 110.558C375.139 110.558 376.884 110.239 378.512 109.601C380.139 108.963 381.663 108.006 383.082 106.73H383.355V111.261ZM411.754 113.37H407.633L404.781 105.265H392.203L389.352 113.37H385.426L396.012 84.2883H401.168L411.754 113.37ZM403.59 101.945L398.492 87.6672L393.375 101.945H403.59ZM421.031 82.9797L415.738 93.8976H413.043L416.266 82.9797H421.031ZM445.699 105.07C445.699 106.202 445.432 107.322 444.898 108.429C444.378 109.536 443.642 110.473 442.691 111.241C441.65 112.075 440.432 112.726 439.039 113.195C437.659 113.663 435.992 113.898 434.039 113.898C431.943 113.898 430.055 113.702 428.375 113.312C426.708 112.921 425.009 112.342 423.277 111.573V106.73H423.551C425.022 107.954 426.721 108.898 428.648 109.562C430.576 110.226 432.385 110.558 434.078 110.558C436.474 110.558 438.336 110.109 439.664 109.21C441.005 108.312 441.676 107.114 441.676 105.616C441.676 104.327 441.357 103.377 440.719 102.765C440.094 102.153 439.137 101.678 437.848 101.339C436.871 101.079 435.81 100.864 434.664 100.695C433.531 100.525 432.327 100.31 431.051 100.05C428.473 99.5031 426.559 98.5721 425.309 97.257C424.072 95.9289 423.453 94.2036 423.453 92.0812C423.453 89.6463 424.482 87.6541 426.539 86.1047C428.596 84.5422 431.207 83.7609 434.371 83.7609C436.415 83.7609 438.29 83.9562 439.996 84.3468C441.702 84.7375 443.212 85.2192 444.527 85.7922V90.3625H444.254C443.147 89.425 441.689 88.6502 439.879 88.0383C438.082 87.4133 436.24 87.1008 434.352 87.1008C432.281 87.1008 430.615 87.5304 429.352 88.3898C428.102 89.2492 427.477 90.356 427.477 91.7101C427.477 92.9211 427.789 93.8716 428.414 94.5617C429.039 95.2518 430.139 95.7791 431.715 96.1437C432.548 96.326 433.733 96.5474 435.27 96.8078C436.806 97.0682 438.108 97.3351 439.176 97.6086C441.337 98.1815 442.965 99.0474 444.059 100.206C445.152 101.365 445.699 102.986 445.699 105.07ZM484.547 87.7258H469.84V95.9289H482.477V99.3664H469.84V113.37H465.973V84.2883H484.547V87.7258ZM509.957 113.37H505.836L502.984 105.265H490.406L487.555 113.37H483.629L494.215 84.2883H499.371L509.957 113.37ZM501.793 101.945L496.695 87.6672L491.578 101.945H501.793ZM536.129 84.2883L525.543 113.37H520.387L509.801 84.2883H513.941L523.062 109.874L532.184 84.2883H536.129ZM562.223 87.6281C563.408 88.9302 564.312 90.5252 564.938 92.4133C565.576 94.3013 565.895 96.4432 565.895 98.839C565.895 101.235 565.569 103.383 564.918 105.284C564.28 107.172 563.382 108.748 562.223 110.011C561.025 111.326 559.605 112.316 557.965 112.98C556.337 113.644 554.475 113.976 552.379 113.976C550.335 113.976 548.473 113.637 546.793 112.96C545.126 112.283 543.707 111.3 542.535 110.011C541.363 108.722 540.458 107.14 539.82 105.265C539.195 103.39 538.883 101.248 538.883 98.839C538.883 96.4692 539.195 94.3468 539.82 92.4718C540.445 90.5838 541.357 88.9692 542.555 87.6281C543.701 86.3521 545.12 85.3755 546.812 84.6984C548.518 84.0213 550.374 83.6828 552.379 83.6828C554.462 83.6828 556.331 84.0278 557.984 84.7179C559.651 85.395 561.064 86.3651 562.223 87.6281ZM561.871 98.839C561.871 95.063 561.025 92.1528 559.332 90.1086C557.639 88.0513 555.328 87.0226 552.398 87.0226C549.443 87.0226 547.118 88.0513 545.426 90.1086C543.746 92.1528 542.906 95.063 542.906 98.839C542.906 102.654 543.766 105.577 545.484 107.609C547.203 109.627 549.508 110.636 552.398 110.636C555.289 110.636 557.587 109.627 559.293 107.609C561.012 105.577 561.871 102.654 561.871 98.839ZM593.922 101.691C593.922 103.8 593.688 105.642 593.219 107.218C592.763 108.78 592.008 110.083 590.953 111.124C589.951 112.114 588.779 112.836 587.438 113.292C586.096 113.748 584.534 113.976 582.75 113.976C580.927 113.976 579.339 113.735 577.984 113.253C576.63 112.771 575.491 112.062 574.566 111.124C573.512 110.056 572.75 108.767 572.281 107.257C571.826 105.747 571.598 103.891 571.598 101.691V84.2883H575.465V101.886C575.465 103.461 575.569 104.705 575.777 105.616C575.999 106.528 576.363 107.355 576.871 108.097C577.444 108.943 578.219 109.581 579.195 110.011C580.185 110.441 581.37 110.655 582.75 110.655C584.143 110.655 585.328 110.447 586.305 110.03C587.281 109.601 588.062 108.956 588.648 108.097C589.156 107.355 589.514 106.508 589.723 105.558C589.944 104.594 590.055 103.403 590.055 101.984V84.2883H593.922V101.691ZM625.387 113.37H620.367L610.641 101.808H605.191V113.37H601.324V84.2883H609.469C611.227 84.2883 612.691 84.4054 613.863 84.6398C615.035 84.8612 616.09 85.2648 617.027 85.8508C618.082 86.5148 618.902 87.3547 619.488 88.3703C620.087 89.3729 620.387 90.6489 620.387 92.1984C620.387 94.2948 619.859 96.0526 618.805 97.4718C617.75 98.8781 616.298 99.9393 614.449 100.655L625.387 113.37ZM616.344 92.4718C616.344 91.6385 616.194 90.9028 615.895 90.2648C615.608 89.6138 615.126 89.0669 614.449 88.6242C613.889 88.2466 613.225 87.9862 612.457 87.8429C611.689 87.6867 610.784 87.6086 609.742 87.6086H605.191V98.5851H609.098C610.322 98.5851 611.389 98.481 612.301 98.2726C613.212 98.0513 613.987 97.6476 614.625 97.0617C615.211 96.5148 615.641 95.8898 615.914 95.1867C616.201 94.4705 616.344 93.5656 616.344 92.4718ZM639.391 113.37H627.906V110.402H631.715V87.257H627.906V84.2883H639.391V87.257H635.582V110.402H639.391V113.37ZM666.715 87.7258H656.324V113.37H652.457V87.7258H642.066V84.2883H666.715V87.7258ZM689.781 113.37H670.621V84.2883H689.781V87.7258H674.488V95.6945H689.781V99.132H674.488V109.933H689.781V113.37Z" fill="black"/>
<path d="M173.711 165.912L163.662 209.535H157.861L162.812 188.09H141.045L136.094 209.535H130.293L140.342 165.912H146.143L142.188 183.168H163.955L167.91 165.912H173.711ZM190.82 209.535H173.535L174.502 205.287H180.215L188.359 170.16H182.646L183.613 165.912H200.898L199.932 170.16H194.219L186.074 205.287H191.787L190.82 209.535ZM240.713 170.863H225.156L216.221 209.535H210.361L219.297 170.863H203.74L204.854 165.912H241.826L240.713 170.863ZM252.695 210.326C249.863 210.326 247.168 210.033 244.609 209.447C242.051 208.842 239.541 207.924 237.08 206.694L238.486 200.043H238.896C240.771 201.821 243.066 203.188 245.781 204.145C248.516 205.082 251.152 205.551 253.691 205.551C257.852 205.551 261.035 204.731 263.242 203.09C265.469 201.43 266.582 199.321 266.582 196.762C266.582 195.414 266.182 194.291 265.381 193.393C264.6 192.494 263.447 191.83 261.924 191.401C260.654 191.049 259.141 190.717 257.383 190.405C255.645 190.072 253.984 189.721 252.402 189.35C249.336 188.666 246.963 187.494 245.283 185.834C243.604 184.174 242.764 182.113 242.764 179.653C242.764 175.492 244.521 172.035 248.037 169.281C251.572 166.508 256.133 165.121 261.719 165.121C264.766 165.121 267.529 165.444 270.01 166.088C272.51 166.713 274.658 167.455 276.455 168.315L275.137 174.555H274.727C273.34 173.285 271.357 172.192 268.779 171.274C266.221 170.356 263.525 169.897 260.693 169.897C257.139 169.897 254.297 170.678 252.168 172.24C250.059 173.803 249.004 175.785 249.004 178.188C249.004 179.477 249.385 180.61 250.146 181.586C250.908 182.563 252.266 183.295 254.219 183.783C255.469 184.076 257.129 184.438 259.199 184.867C261.27 185.278 263.008 185.668 264.414 186.039C267.188 186.801 269.287 187.934 270.713 189.438C272.158 190.942 272.881 192.836 272.881 195.121C272.881 197.035 272.412 198.94 271.475 200.834C270.537 202.729 269.229 204.35 267.549 205.697C265.752 207.143 263.643 208.276 261.221 209.096C258.818 209.916 255.977 210.326 252.695 210.326ZM347.676 182.143C347.676 185.717 347.07 189.233 345.859 192.69C344.648 196.147 342.891 199.164 340.586 201.742C338.066 204.555 335.127 206.713 331.768 208.217C328.408 209.701 324.541 210.444 320.166 210.444C314.209 210.444 309.541 208.91 306.162 205.844C302.803 202.758 301.123 198.52 301.123 193.129C301.123 189.34 301.768 185.737 303.057 182.319C304.346 178.901 306.191 175.893 308.594 173.295C310.938 170.776 313.838 168.764 317.295 167.26C320.752 165.756 324.521 165.004 328.604 165.004C334.58 165.004 339.248 166.547 342.607 169.633C345.986 172.719 347.676 176.889 347.676 182.143ZM331.592 197.026C332.92 195.287 333.955 193.276 334.697 190.99C335.459 188.686 335.84 186.039 335.84 183.051C335.84 179.926 335.088 177.485 333.584 175.727C332.1 173.949 329.971 173.061 327.197 173.061C325.381 173.061 323.643 173.481 321.982 174.321C320.342 175.141 318.828 176.401 317.441 178.1C316.094 179.721 315.01 181.742 314.189 184.164C313.369 186.567 312.959 189.272 312.959 192.28C312.959 195.619 313.721 198.139 315.244 199.838C316.787 201.537 318.916 202.387 321.631 202.387C323.506 202.387 325.312 201.928 327.051 201.01C328.789 200.072 330.303 198.744 331.592 197.026ZM390.156 209.535H380.576L367.773 179.33L360.801 209.535H350.43L360.508 165.912H373.105L384.062 191.166L389.863 165.912H400.234L390.156 209.535ZM442.92 165.912L441.016 174.174H420.654L418.838 181.967H437.734L435.801 190.258H416.904L414.355 201.274H434.717L432.842 209.535H401.23L411.309 165.912H442.92ZM508.545 209.535H497.295L503.887 181L491.904 199.281H484.141L480.273 179.799L473.418 209.535H462.754L472.832 165.912H485.752L490.527 187.797L505.352 165.912H518.623L508.545 209.535ZM543.262 209.535H517.715L519.502 201.801H526.621L533.125 173.647H526.006L527.793 165.912H553.34L551.553 173.647H544.434L537.93 201.801H545.049L543.262 209.535ZM583.896 209.535H552.402L562.48 165.912H573.789L565.674 201.098H585.859L583.896 209.535ZM622.158 209.535H590.664L600.742 165.912H612.051L603.936 201.098H624.121L622.158 209.535ZM652.539 209.535H626.992L628.779 201.801H635.898L642.402 173.647H635.283L637.07 165.912H662.617L660.83 173.647H653.711L647.207 201.801H654.326L652.539 209.535ZM709.961 182.143C709.961 185.717 709.355 189.233 708.145 192.69C706.934 196.147 705.176 199.164 702.871 201.742C700.352 204.555 697.412 206.713 694.053 208.217C690.693 209.701 686.826 210.444 682.451 210.444C676.494 210.444 671.826 208.91 668.447 205.844C665.088 202.758 663.408 198.52 663.408 193.129C663.408 189.34 664.053 185.737 665.342 182.319C666.631 178.901 668.477 175.893 670.879 173.295C673.223 170.776 676.123 168.764 679.58 167.26C683.037 165.756 686.807 165.004 690.889 165.004C696.865 165.004 701.533 166.547 704.893 169.633C708.271 172.719 709.961 176.889 709.961 182.143ZM693.877 197.026C695.205 195.287 696.24 193.276 696.982 190.99C697.744 188.686 698.125 186.039 698.125 183.051C698.125 179.926 697.373 177.485 695.869 175.727C694.385 173.949 692.256 173.061 689.482 173.061C687.666 173.061 685.928 173.481 684.268 174.321C682.627 175.141 681.113 176.401 679.727 178.1C678.379 179.721 677.295 181.742 676.475 184.164C675.654 186.567 675.244 189.272 675.244 192.28C675.244 195.619 676.006 198.139 677.529 199.838C679.072 201.537 681.201 202.387 683.916 202.387C685.791 202.387 687.598 201.928 689.336 201.01C691.074 200.072 692.588 198.744 693.877 197.026ZM752.441 209.535H742.861L730.059 179.33L723.086 209.535H712.715L722.793 165.912H735.391L746.348 191.166L752.148 165.912H762.52L752.441 209.535Z" fill="black"/>
<path d="M296.085 157.739C293.725 157.739 291.479 157.495 289.347 157.007C287.215 156.502 285.123 155.737 283.072 154.712L284.244 149.17H284.586C286.148 150.651 288.061 151.79 290.323 152.588C292.602 153.369 294.799 153.76 296.915 153.76C300.382 153.76 303.035 153.076 304.874 151.709C306.729 150.326 307.657 148.568 307.657 146.436C307.657 145.313 307.324 144.377 306.656 143.628C306.005 142.879 305.045 142.326 303.775 141.968C302.717 141.675 301.456 141.398 299.991 141.138C298.543 140.861 297.159 140.568 295.841 140.259C293.285 139.689 291.308 138.713 289.908 137.329C288.508 135.946 287.809 134.229 287.809 132.178C287.809 128.711 289.273 125.83 292.203 123.535C295.149 121.224 298.95 120.068 303.604 120.068C306.144 120.068 308.447 120.337 310.514 120.874C312.597 121.395 314.387 122.013 315.885 122.73L314.786 127.93H314.444C313.289 126.872 311.637 125.96 309.488 125.195C307.356 124.43 305.11 124.048 302.75 124.048C299.788 124.048 297.42 124.699 295.646 126.001C293.888 127.303 293.009 128.955 293.009 130.957C293.009 132.031 293.326 132.975 293.961 133.789C294.596 134.603 295.727 135.213 297.354 135.62C298.396 135.864 299.78 136.165 301.505 136.524C303.23 136.865 304.679 137.191 305.851 137.5C308.162 138.135 309.911 139.079 311.1 140.332C312.304 141.585 312.906 143.164 312.906 145.068C312.906 146.664 312.516 148.25 311.734 149.829C310.953 151.408 309.863 152.759 308.463 153.882C306.965 155.086 305.208 156.03 303.189 156.714C301.188 157.398 298.819 157.739 296.085 157.739ZM346.769 157.08H341.861L340.641 146.851H324.967L319.01 157.08H313.907L335.538 120.728H341.935L346.769 157.08ZM340.104 142.896L337.833 124.951L327.286 142.896H340.104ZM374.845 157.08H351.822L360.221 120.728H365.104L357.657 152.954H375.797L374.845 157.08ZM412.003 120.728L411.051 124.854H391.935L389.591 135.108H408.707L407.755 139.209H388.639L385.465 152.954H404.581L403.629 157.08H379.679L388.053 120.728H412.003ZM423.868 157.739C421.508 157.739 419.262 157.495 417.13 157.007C414.998 156.502 412.906 155.737 410.855 154.712L412.027 149.17H412.369C413.932 150.651 415.844 151.79 418.106 152.588C420.385 153.369 422.582 153.76 424.698 153.76C428.165 153.76 430.818 153.076 432.657 151.709C434.513 150.326 435.44 148.568 435.44 146.436C435.44 145.313 435.107 144.377 434.439 143.628C433.788 142.879 432.828 142.326 431.559 141.968C430.501 141.675 429.239 141.398 427.774 141.138C426.326 140.861 424.942 140.568 423.624 140.259C421.069 139.689 419.091 138.713 417.691 137.329C416.292 135.946 415.592 134.229 415.592 132.178C415.592 128.711 417.057 125.83 419.986 123.535C422.932 121.224 426.733 120.068 431.388 120.068C433.927 120.068 436.23 120.337 438.297 120.874C440.38 121.395 442.171 122.013 443.668 122.73L442.569 127.93H442.228C441.072 126.872 439.42 125.96 437.271 125.195C435.139 124.43 432.893 124.048 430.533 124.048C427.571 124.048 425.203 124.699 423.429 126.001C421.671 127.303 420.792 128.955 420.792 130.957C420.792 132.031 421.109 132.975 421.744 133.789C422.379 134.603 423.51 135.213 425.138 135.62C426.179 135.864 427.563 136.165 429.288 136.524C431.013 136.865 432.462 137.191 433.634 137.5C435.945 138.135 437.695 139.079 438.883 140.332C440.087 141.585 440.689 143.164 440.689 145.068C440.689 146.664 440.299 148.25 439.518 149.829C438.736 151.408 437.646 152.759 436.246 153.882C434.749 155.086 432.991 156.03 430.973 156.714C428.971 157.398 426.603 157.739 423.868 157.739ZM462.76 143.384H447.525L448.551 138.965H463.785L462.76 143.384ZM495.572 119.092L485.807 132.739H482.438L489.615 119.092H495.572ZM485.709 119.092L475.943 132.739H472.574L479.752 119.092H485.709ZM506.729 147.632C505.981 150.838 504.451 153.304 502.14 155.029C499.828 156.738 497.029 157.593 493.741 157.593C492.96 157.593 491.935 157.52 490.665 157.373C489.396 157.243 488.346 157.08 487.516 156.885L488.541 152.539H488.81C489.444 152.767 490.217 153.003 491.129 153.247C492.04 153.491 493.009 153.613 494.034 153.613C495.515 153.613 496.744 153.426 497.721 153.052C498.697 152.678 499.462 152.157 500.016 151.489C500.602 150.789 501.065 149.951 501.407 148.975C501.749 147.998 502.042 146.94 502.286 145.801L507.169 124.414H499.259L500.113 120.728H512.906L506.729 147.632ZM546.231 120.728L545.279 124.854H526.163L523.819 135.108H542.936L541.983 139.209H522.867L519.693 152.954H538.81L537.857 157.08H513.907L522.281 120.728H546.231ZM570.499 129.761C570.499 128.898 570.369 128.174 570.108 127.588C569.848 126.986 569.449 126.473 568.912 126.05C568.294 125.545 567.537 125.195 566.642 125C565.746 124.805 564.648 124.707 563.346 124.707H557.877L554.63 138.721H559.757C561.352 138.721 562.735 138.574 563.907 138.281C565.079 137.988 566.145 137.476 567.105 136.743C568.18 135.929 569.01 134.912 569.596 133.692C570.198 132.455 570.499 131.144 570.499 129.761ZM575.919 157.08H570.23L560.66 142.554H553.751L550.406 157.08H545.523L553.897 120.728H563.81C566.023 120.728 567.822 120.874 569.205 121.167C570.589 121.444 571.793 121.956 572.818 122.705C573.73 123.373 574.446 124.178 574.967 125.122C575.488 126.066 575.748 127.246 575.748 128.662C575.748 131.69 574.796 134.351 572.892 136.646C571.004 138.924 568.521 140.511 565.445 141.406L575.919 157.08ZM609.952 157.08H604.239L593.033 140.845L588.053 145.068L585.294 157.08H580.411L588.81 120.728H593.692L589.298 139.6L610.66 120.728H616.812L596.866 138.135L609.952 157.08ZM642.35 119.092L632.584 132.739H629.215L636.393 119.092H642.35ZM632.486 119.092L622.721 132.739H619.352L626.529 119.092H632.486Z" fill="black"/>
<path d="M209.623 250.19C209.623 251.606 209.289 253.006 208.622 254.389C207.971 255.773 207.051 256.945 205.863 257.905C204.561 258.947 203.039 259.76 201.298 260.346C199.573 260.932 197.489 261.225 195.048 261.225C192.427 261.225 190.067 260.981 187.968 260.493C185.884 260.005 183.76 259.28 181.596 258.32V252.265H181.938C183.777 253.795 185.901 254.975 188.31 255.805C190.718 256.635 192.981 257.05 195.097 257.05C198.091 257.05 200.419 256.489 202.079 255.366C203.756 254.243 204.594 252.745 204.594 250.874C204.594 249.262 204.195 248.074 203.397 247.309C202.616 246.544 201.42 245.95 199.809 245.527C198.588 245.201 197.261 244.933 195.829 244.721C194.413 244.51 192.908 244.241 191.312 243.916C188.09 243.232 185.697 242.068 184.135 240.424C182.589 238.764 181.815 236.608 181.815 233.955C181.815 230.911 183.101 228.421 185.673 226.484C188.244 224.531 191.508 223.554 195.463 223.554C198.018 223.554 200.362 223.798 202.494 224.287C204.626 224.775 206.514 225.377 208.158 226.093V231.806H207.816C206.433 230.634 204.61 229.666 202.348 228.901C200.102 228.12 197.799 227.729 195.438 227.729C192.851 227.729 190.767 228.266 189.188 229.34C187.626 230.415 186.845 231.798 186.845 233.491C186.845 235.005 187.235 236.193 188.017 237.055C188.798 237.918 190.173 238.577 192.143 239.033C193.184 239.261 194.665 239.537 196.586 239.863C198.507 240.188 200.134 240.522 201.469 240.864C204.171 241.58 206.205 242.662 207.572 244.111C208.939 245.56 209.623 247.586 209.623 250.19ZM249.76 260.566H244.926V229.243L234.818 250.556H231.938L221.903 229.243V260.566H217.387V224.214H223.979L233.671 244.453L243.046 224.214H249.76V260.566ZM288.188 260.566H283.036L279.472 250.434H263.749L260.185 260.566H255.277L268.51 224.214H274.955L288.188 260.566ZM277.982 246.284L271.61 228.437L265.214 246.284H277.982ZM321.781 257.929C320.886 258.32 320.072 258.686 319.34 259.028C318.624 259.37 317.68 259.728 316.508 260.102C315.515 260.411 314.433 260.672 313.261 260.883C312.105 261.111 310.827 261.225 309.428 261.225C306.791 261.225 304.39 260.859 302.226 260.127C300.077 259.378 298.205 258.214 296.61 256.635C295.048 255.089 293.827 253.128 292.948 250.752C292.069 248.359 291.63 245.584 291.63 242.426C291.63 239.432 292.053 236.754 292.899 234.394C293.746 232.034 294.966 230.04 296.562 228.413C298.108 226.834 299.971 225.63 302.152 224.799C304.35 223.969 306.783 223.554 309.452 223.554C311.405 223.554 313.35 223.79 315.287 224.262C317.24 224.734 319.405 225.564 321.781 226.753V232.49H321.415C319.413 230.813 317.427 229.593 315.458 228.828C313.489 228.063 311.381 227.68 309.135 227.68C307.296 227.68 305.635 227.981 304.154 228.584C302.689 229.17 301.379 230.089 300.224 231.342C299.101 232.563 298.222 234.109 297.587 235.981C296.968 237.837 296.659 239.985 296.659 242.426C296.659 244.982 297.001 247.179 297.685 249.018C298.384 250.857 299.28 252.355 300.37 253.51C301.509 254.715 302.836 255.61 304.35 256.196C305.88 256.766 307.491 257.05 309.184 257.05C311.511 257.05 313.692 256.652 315.727 255.854C317.761 255.057 319.665 253.86 321.439 252.265H321.781V257.929ZM357.841 260.566H351.566L337.187 244.38L333.573 248.237V260.566H328.739V224.214H333.573V243.183L351.225 224.214H357.084L340.849 241.303L357.841 260.566ZM413.236 260.566H408.402V229.243L398.295 250.556H395.414L385.38 229.243V260.566H380.863V224.214H387.455L397.147 244.453L406.522 224.214H413.236V260.566ZM451.664 260.566H446.513L442.948 250.434H427.226L423.661 260.566H418.754L431.986 224.214H438.432L451.664 260.566ZM441.459 246.284L435.087 228.437L428.69 246.284H441.459ZM487.504 257.88C485.518 258.792 483.345 259.589 480.985 260.273C478.642 260.94 476.371 261.274 474.174 261.274C471.342 261.274 468.746 260.883 466.386 260.102C464.026 259.321 462.016 258.149 460.355 256.587C458.679 255.008 457.385 253.038 456.474 250.678C455.562 248.302 455.106 245.527 455.106 242.353C455.106 236.543 456.799 231.961 460.185 228.608C463.586 225.239 468.249 223.554 474.174 223.554C476.241 223.554 478.349 223.807 480.497 224.311C482.662 224.799 484.989 225.638 487.479 226.826V232.563H487.04C486.535 232.172 485.803 231.66 484.843 231.025C483.882 230.39 482.938 229.861 482.011 229.438C480.888 228.934 479.61 228.519 478.178 228.193C476.762 227.851 475.15 227.68 473.344 227.68C469.275 227.68 466.052 228.991 463.676 231.611C461.316 234.215 460.136 237.747 460.136 242.207C460.136 246.91 461.373 250.573 463.847 253.193C466.321 255.797 469.69 257.099 473.954 257.099C475.517 257.099 477.071 256.945 478.617 256.635C480.18 256.326 481.547 255.927 482.719 255.439V246.528H472.978V242.28H487.504V257.88ZM508.769 260.566H494.413V256.855H499.174V227.924H494.413V224.214H508.769V227.924H504.008V256.855H508.769V260.566ZM545.072 257.929C544.177 258.32 543.363 258.686 542.631 259.028C541.915 259.37 540.971 259.728 539.799 260.102C538.806 260.411 537.724 260.672 536.552 260.883C535.396 261.111 534.118 261.225 532.719 261.225C530.082 261.225 527.681 260.859 525.517 260.127C523.368 259.378 521.496 258.214 519.901 256.635C518.339 255.089 517.118 253.128 516.239 250.752C515.36 248.359 514.921 245.584 514.921 242.426C514.921 239.432 515.344 236.754 516.19 234.394C517.037 232.034 518.257 230.04 519.853 228.413C521.399 226.834 523.262 225.63 525.443 224.799C527.641 223.969 530.074 223.554 532.743 223.554C534.696 223.554 536.641 223.79 538.578 224.262C540.531 224.734 542.696 225.564 545.072 226.753V232.49H544.706C542.704 230.813 540.718 229.593 538.749 228.828C536.78 228.063 534.672 227.68 532.426 227.68C530.587 227.68 528.926 227.981 527.445 228.584C525.98 229.17 524.67 230.089 523.515 231.342C522.392 232.563 521.513 234.109 520.878 235.981C520.259 237.837 519.95 239.985 519.95 242.426C519.95 244.982 520.292 247.179 520.976 249.018C521.675 250.857 522.571 252.355 523.661 253.51C524.8 254.715 526.127 255.61 527.641 256.196C529.171 256.766 530.782 257.05 532.475 257.05C534.802 257.05 536.983 256.652 539.018 255.854C541.052 255.057 542.956 253.86 544.73 252.265H545.072V257.929ZM578.324 250.19C578.324 251.606 577.991 253.006 577.323 254.389C576.672 255.773 575.753 256.945 574.564 257.905C573.262 258.947 571.741 259.76 569.999 260.346C568.274 260.932 566.19 261.225 563.749 261.225C561.129 261.225 558.769 260.981 556.669 260.493C554.586 260.005 552.462 259.28 550.297 258.32V252.265H550.639C552.478 253.795 554.602 254.975 557.011 255.805C559.42 256.635 561.682 257.05 563.798 257.05C566.793 257.05 569.12 256.489 570.78 255.366C572.457 254.243 573.295 252.745 573.295 250.874C573.295 249.262 572.896 248.074 572.099 247.309C571.317 246.544 570.121 245.95 568.51 245.527C567.289 245.201 565.963 244.933 564.53 244.721C563.114 244.51 561.609 244.241 560.014 243.916C556.791 243.232 554.398 242.068 552.836 240.424C551.29 238.764 550.517 236.608 550.517 233.955C550.517 230.911 551.802 228.421 554.374 226.484C556.946 224.531 560.209 223.554 564.164 223.554C566.719 223.554 569.063 223.798 571.195 224.287C573.327 224.775 575.215 225.377 576.859 226.093V231.806H576.518C575.134 230.634 573.311 229.666 571.049 228.901C568.803 228.12 566.5 227.729 564.14 227.729C561.552 227.729 559.468 228.266 557.89 229.34C556.327 230.415 555.546 231.798 555.546 233.491C555.546 235.005 555.937 236.193 556.718 237.055C557.499 237.918 558.874 238.577 560.844 239.033C561.885 239.261 563.367 239.537 565.287 239.863C567.208 240.188 568.835 240.522 570.17 240.864C572.872 241.58 574.906 242.662 576.273 244.111C577.641 245.56 578.324 247.586 578.324 250.19ZM630.082 250.19C630.082 251.606 629.748 253.006 629.081 254.389C628.43 255.773 627.51 256.945 626.322 257.905C625.02 258.947 623.498 259.76 621.757 260.346C620.032 260.932 617.948 261.225 615.507 261.225C612.886 261.225 610.526 260.981 608.427 260.493C606.343 260.005 604.219 259.28 602.055 258.32V252.265H602.396C604.236 253.795 606.36 254.975 608.769 255.805C611.177 256.635 613.44 257.05 615.556 257.05C618.55 257.05 620.878 256.489 622.538 255.366C624.215 254.243 625.053 252.745 625.053 250.874C625.053 249.262 624.654 248.074 623.856 247.309C623.075 246.544 621.879 245.95 620.268 245.527C619.047 245.201 617.72 244.933 616.288 244.721C614.872 244.51 613.367 244.241 611.771 243.916C608.549 243.232 606.156 242.068 604.594 240.424C603.048 238.764 602.274 236.608 602.274 233.955C602.274 230.911 603.56 228.421 606.132 226.484C608.703 224.531 611.967 223.554 615.922 223.554C618.477 223.554 620.821 223.798 622.953 224.287C625.085 224.775 626.973 225.377 628.617 226.093V231.806H628.275C626.892 230.634 625.069 229.666 622.807 228.901C620.561 228.12 618.257 227.729 615.897 227.729C613.31 227.729 611.226 228.266 609.647 229.34C608.085 230.415 607.304 231.798 607.304 233.491C607.304 235.005 607.694 236.193 608.476 237.055C609.257 237.918 610.632 238.577 612.602 239.033C613.643 239.261 615.124 239.537 617.045 239.863C618.965 240.188 620.593 240.522 621.928 240.864C624.63 241.58 626.664 242.662 628.031 244.111C629.398 245.56 630.082 247.586 630.082 250.19ZM664.945 228.388C666.426 230.016 667.558 232.01 668.339 234.37C669.136 236.73 669.535 239.407 669.535 242.402C669.535 245.397 669.128 248.082 668.314 250.459C667.517 252.819 666.394 254.788 664.945 256.367C663.448 258.011 661.674 259.248 659.623 260.078C657.589 260.908 655.261 261.323 652.641 261.323C650.085 261.323 647.758 260.9 645.658 260.053C643.575 259.207 641.801 257.978 640.336 256.367C638.871 254.755 637.74 252.778 636.942 250.434C636.161 248.09 635.771 245.413 635.771 242.402C635.771 239.44 636.161 236.787 636.942 234.443C637.724 232.083 638.863 230.065 640.36 228.388C641.793 226.793 643.567 225.573 645.683 224.726C647.815 223.88 650.134 223.457 652.641 223.457C655.245 223.457 657.58 223.888 659.647 224.751C661.731 225.597 663.497 226.81 664.945 228.388ZM664.506 242.402C664.506 237.682 663.448 234.044 661.332 231.489C659.216 228.917 656.327 227.631 652.665 227.631C648.97 227.631 646.065 228.917 643.949 231.489C641.85 234.044 640.8 237.682 640.8 242.402C640.8 247.171 641.874 250.825 644.022 253.364C646.171 255.887 649.052 257.148 652.665 257.148C656.278 257.148 659.151 255.887 661.283 253.364C663.432 250.825 664.506 247.171 664.506 242.402ZM700.199 260.566H677.201V224.214H682.035V256.269H700.199V260.566ZM735.746 242.426C735.746 245.73 735.022 248.725 733.573 251.411C732.141 254.096 730.229 256.18 727.836 257.661C726.176 258.686 724.32 259.427 722.27 259.882C720.235 260.338 717.549 260.566 714.213 260.566H705.033V224.214H714.115C717.663 224.214 720.479 224.474 722.562 224.995C724.662 225.499 726.436 226.199 727.885 227.094C730.359 228.641 732.287 230.7 733.671 233.271C735.054 235.843 735.746 238.894 735.746 242.426ZM730.692 242.353C730.692 239.505 730.196 237.104 729.203 235.151C728.21 233.198 726.729 231.66 724.76 230.537C723.327 229.723 721.806 229.161 720.194 228.852C718.583 228.527 716.654 228.364 714.408 228.364H709.867V256.416H714.408C716.736 256.416 718.762 256.245 720.487 255.903C722.229 255.561 723.824 254.926 725.272 253.999C727.079 252.843 728.43 251.321 729.325 249.433C730.237 247.545 730.692 245.185 730.692 242.353Z" fill="black"/>
<path d="M522.795 283.152H515.178L515.691 280.942H523.308L522.795 283.152ZM549.126 290H546.27L540.667 281.882L538.176 283.994L536.797 290H534.355L538.555 271.824H540.996L538.799 281.26L549.48 271.824H552.556L542.583 280.527L549.126 290ZM558.147 271.702L557.598 274.082H555.01L555.559 271.702H558.147ZM556.926 276.365L553.777 290H551.482L554.631 276.365H556.926ZM568.547 276.365L568.132 278.22H563.396L561.931 284.507C561.85 284.824 561.777 285.19 561.711 285.605C561.646 286.012 561.614 286.338 561.614 286.582C561.614 287.176 561.764 287.62 562.065 287.913C562.367 288.197 562.924 288.34 563.738 288.34C564.071 288.34 564.466 288.283 564.922 288.169C565.386 288.055 565.699 287.965 565.862 287.9H565.984L565.557 289.878C565.101 289.992 564.613 290.085 564.092 290.159C563.579 290.232 563.123 290.269 562.725 290.269C561.602 290.269 560.731 290.024 560.112 289.536C559.502 289.04 559.197 288.258 559.197 287.192C559.197 286.932 559.213 286.676 559.246 286.423C559.286 286.163 559.339 285.87 559.404 285.544L561.101 278.22H559.551L559.966 276.365H561.516L562.432 272.446H564.727L563.811 276.365H568.547ZM574.089 290.305C573.227 290.305 572.462 290.203 571.794 290C571.135 289.797 570.557 289.475 570.061 289.036C569.581 288.612 569.211 288.079 568.95 287.437C568.69 286.794 568.56 286.045 568.56 285.19C568.56 283.913 568.759 282.721 569.158 281.614C569.556 280.507 570.122 279.535 570.854 278.696C571.562 277.882 572.437 277.24 573.479 276.768C574.521 276.287 575.644 276.047 576.848 276.047C577.646 276.047 578.394 276.157 579.094 276.377C579.802 276.597 580.425 276.857 580.962 277.158L580.461 279.636H580.327C580.164 279.49 579.961 279.319 579.717 279.124C579.473 278.928 579.184 278.745 578.85 278.574C578.516 278.395 578.146 278.249 577.739 278.135C577.332 278.013 576.868 277.952 576.348 277.952C574.769 277.952 573.479 278.619 572.478 279.954C571.485 281.288 570.989 282.912 570.989 284.824C570.989 285.972 571.282 286.855 571.868 287.473C572.462 288.092 573.304 288.401 574.395 288.401C574.907 288.401 575.42 288.328 575.933 288.181C576.445 288.035 576.881 287.876 577.239 287.705C577.638 287.518 578.008 287.319 578.35 287.107C578.691 286.895 578.94 286.737 579.094 286.631H579.229L578.74 289.133C578.032 289.451 577.284 289.727 576.494 289.963C575.705 290.191 574.903 290.305 574.089 290.305ZM594.878 279.478C594.878 279.673 594.858 279.937 594.817 280.271C594.784 280.605 594.736 280.898 594.67 281.15L592.62 290H590.325L592.119 282.236C592.217 281.805 592.29 281.431 592.339 281.113C592.396 280.788 592.424 280.466 592.424 280.149C592.424 279.465 592.253 278.953 591.912 278.611C591.578 278.261 590.972 278.086 590.093 278.086C589.474 278.086 588.791 278.257 588.042 278.599C587.301 278.94 586.577 279.347 585.869 279.819L583.513 290H581.218L585.601 271.006H587.896L586.309 277.878C587.179 277.268 587.993 276.8 588.75 276.475C589.515 276.149 590.3 275.986 591.106 275.986C592.294 275.986 593.218 276.287 593.877 276.89C594.544 277.484 594.878 278.346 594.878 279.478ZM608.074 281.699C608.114 281.463 608.143 281.264 608.159 281.101C608.175 280.938 608.184 280.759 608.184 280.564C608.184 279.693 607.944 279.014 607.463 278.525C606.991 278.037 606.23 277.793 605.181 277.793C604.025 277.793 603 278.151 602.104 278.867C601.209 279.583 600.603 280.527 600.286 281.699H608.074ZM603.484 290.317C601.596 290.317 600.115 289.874 599.041 288.987C597.966 288.1 597.429 286.802 597.429 285.093C597.429 282.594 598.219 280.454 599.797 278.672C601.376 276.882 603.329 275.986 605.657 275.986C607.203 275.986 608.387 276.373 609.209 277.146C610.031 277.911 610.442 278.989 610.442 280.381C610.442 280.625 610.405 281.012 610.332 281.541C610.267 282.069 610.157 282.684 610.002 283.384H599.956C599.907 283.62 599.871 283.852 599.846 284.08C599.83 284.307 599.822 284.519 599.822 284.714C599.822 285.862 600.172 286.765 600.872 287.424C601.571 288.075 602.564 288.401 603.85 288.401C604.745 288.401 605.665 288.226 606.609 287.876C607.561 287.526 608.359 287.131 609.001 286.692H609.136L608.635 289.17C608.228 289.316 607.862 289.451 607.537 289.573C607.211 289.695 606.796 289.817 606.292 289.939C605.787 290.061 605.339 290.155 604.949 290.22C604.558 290.285 604.07 290.317 603.484 290.317ZM625.591 279.478C625.591 279.673 625.57 279.937 625.53 280.271C625.497 280.605 625.448 280.898 625.383 281.15L623.333 290H621.038L622.832 282.236C622.93 281.805 623.003 281.431 623.052 281.113C623.109 280.788 623.137 280.466 623.137 280.149C623.137 279.465 622.966 278.953 622.625 278.611C622.291 278.261 621.685 278.086 620.806 278.086C620.187 278.086 619.504 278.257 618.755 278.599C618.014 278.94 617.29 279.347 616.582 279.819L614.226 290H611.931L615.081 276.365H617.375L617.021 277.878C617.892 277.268 618.706 276.8 619.463 276.475C620.228 276.149 621.013 275.986 621.819 275.986C623.007 275.986 623.931 276.287 624.59 276.89C625.257 277.484 625.591 278.346 625.591 279.478ZM661.956 271.824L653.228 290H650.432L649.895 274.949L642.839 290H640.154L639.409 271.824H641.863L642.351 286.912L649.468 271.824H651.921L652.41 287.058L659.575 271.824H661.956ZM672.332 281.699C672.372 281.463 672.401 281.264 672.417 281.101C672.433 280.938 672.441 280.759 672.441 280.564C672.441 279.693 672.201 279.014 671.721 278.525C671.249 278.037 670.488 277.793 669.438 277.793C668.283 277.793 667.257 278.151 666.362 278.867C665.467 279.583 664.861 280.527 664.543 281.699H672.332ZM667.742 290.317C665.854 290.317 664.373 289.874 663.298 288.987C662.224 288.1 661.687 286.802 661.687 285.093C661.687 282.594 662.476 280.454 664.055 278.672C665.634 276.882 667.587 275.986 669.915 275.986C671.461 275.986 672.645 276.373 673.467 277.146C674.289 277.911 674.7 278.989 674.7 280.381C674.7 280.625 674.663 281.012 674.59 281.541C674.525 282.069 674.415 282.684 674.26 283.384H664.214C664.165 283.62 664.128 283.852 664.104 284.08C664.088 284.307 664.08 284.519 664.08 284.714C664.08 285.862 664.43 286.765 665.129 287.424C665.829 288.075 666.822 288.401 668.108 288.401C669.003 288.401 669.923 288.226 670.867 287.876C671.819 287.526 672.616 287.131 673.259 286.692H673.394L672.893 289.17C672.486 289.316 672.12 289.451 671.794 289.573C671.469 289.695 671.054 289.817 670.549 289.939C670.045 290.061 669.597 290.155 669.207 290.22C668.816 290.285 668.328 290.317 667.742 290.317ZM687.224 281.699C687.265 281.463 687.293 281.264 687.31 281.101C687.326 280.938 687.334 280.759 687.334 280.564C687.334 279.693 687.094 279.014 686.614 278.525C686.142 278.037 685.381 277.793 684.331 277.793C683.175 277.793 682.15 278.151 681.255 278.867C680.36 279.583 679.753 280.527 679.436 281.699H687.224ZM682.634 290.317C680.746 290.317 679.265 289.874 678.191 288.987C677.117 288.1 676.58 286.802 676.58 285.093C676.58 282.594 677.369 280.454 678.948 278.672C680.527 276.882 682.48 275.986 684.807 275.986C686.353 275.986 687.537 276.373 688.359 277.146C689.181 277.911 689.592 278.989 689.592 280.381C689.592 280.625 689.556 281.012 689.482 281.541C689.417 282.069 689.307 282.684 689.153 283.384H679.106C679.058 283.62 679.021 283.852 678.997 284.08C678.98 284.307 678.972 284.519 678.972 284.714C678.972 285.862 679.322 286.765 680.022 287.424C680.722 288.075 681.715 288.401 683 288.401C683.896 288.401 684.815 288.226 685.759 287.876C686.711 287.526 687.509 287.131 688.152 286.692H688.286L687.786 289.17C687.379 289.316 687.013 289.451 686.687 289.573C686.361 289.695 685.946 289.817 685.442 289.939C684.937 290.061 684.49 290.155 684.099 290.22C683.708 290.285 683.22 290.317 682.634 290.317ZM703.606 290H700.823L696.465 284.006L694.487 285.605L693.486 290H691.167L695.562 271.006H697.881L695.049 283.213L703.044 276.365H706.06L698.284 282.81L703.606 290ZM712.468 271.006L708.074 290H705.779L710.173 271.006H712.468ZM715.081 295.029H712.554L716.521 289.207L714.055 276.365H716.411L718.34 286.509L724.858 276.365H727.361L715.081 295.029Z" fill="black"/>
<defs>
<radialGradient id="paint0_radial_17_7" cx="0" cy="0" r="1" gradientUnits="userSpaceOnUse" gradientTransform="translate(471 171.301) rotate(-90) scale(183.714 473.594)">
<stop stop-color="white" stop-opacity="0"/>
<stop offset="1" stop-color="white" stop-opacity="0.4"/>
</radialGradient>
<linearGradient id="paint1_linear_17_7" x1="471" y1="355.015" x2="471" y2="-12.4131" gradientUnits="userSpaceOnUse">
<stop offset="0.586" stop-color="white" stop-opacity="0"/>
<stop offset="1" stop-color="white" stop-opacity="0.62"/>
</linearGradient>
</defs>
</svg>
