<svg width="1117" height="500" viewBox="0 0 1117 500" fill="none" xmlns="http://www.w3.org/2000/svg">
<path d="M400.964 74.7954L318.342 53.6364L308.838 90.9633L308.173 93.5773L305.503 93.1924L214.564 80.0819L225.682 115.674L226.964 119.777L222.671 119.565L128.97 114.94L158.755 147.583L163.099 152.344L156.659 152.603L65.2412 156.281L111.99 185.123L119.139 189.534L110.814 190.65L25.9526 202.025L87.8466 226.076L96.7366 229.53L87.4698 231.787L12.6794 250L87.4698 268.213L96.7366 270.47L87.8466 273.924L25.9526 297.975L110.814 309.35L119.139 310.466L111.99 314.877L65.2412 343.719L156.659 347.397L163.099 347.656L158.755 352.417L128.97 385.06L222.671 380.435L226.964 380.223L225.682 384.326L214.564 419.918L305.503 406.808L308.173 406.423L308.838 409.037L318.342 446.364L400.964 425.205L402.782 424.739L403.996 426.17L435.104 462.837L504.218 434.734L505.668 434.145L506.981 434.997L558.5 468.424L610.019 434.997L611.332 434.145L612.782 434.734L681.896 462.837L713.004 426.17L714.218 424.739L716.036 425.205L798.658 446.364L808.162 409.037L808.827 406.423L811.497 406.808L902.436 419.918L891.318 384.326L890.036 380.223L894.329 380.435L988.03 385.06L958.245 352.417L953.901 347.656L960.341 347.397L1051.76 343.719L1005.01 314.877L997.861 310.466L1006.19 309.35L1091.05 297.975L1029.15 273.924L1020.26 270.47L1029.53 268.213L1104.32 250L1029.53 231.787L1020.26 229.53L1029.15 226.076L1091.05 202.025L1006.19 190.65L997.861 189.534L1005.01 185.123L1051.76 156.281L960.341 152.603L953.901 152.344L958.245 147.583L988.03 114.94L894.329 119.565L890.036 119.777L891.318 115.674L902.436 80.0819L811.497 93.1924L808.827 93.5773L808.162 90.9633L798.658 53.6364L716.036 74.7954L714.218 75.261L713.004 73.8301L681.896 37.1633L612.782 65.2656L611.332 65.8551L610.019 65.0032L558.5 31.5761L506.981 65.0032L505.668 65.8551L504.218 65.2656L435.104 37.1633L403.996 73.8301L402.782 75.261L400.964 74.7954Z" fill="#F18400"/>
<path d="M400.964 74.7954L318.342 53.6364L308.838 90.9633L308.173 93.5773L305.503 93.1924L214.564 80.0819L225.682 115.674L226.964 119.777L222.671 119.565L128.97 114.94L158.755 147.583L163.099 152.344L156.659 152.603L65.2412 156.281L111.99 185.123L119.139 189.534L110.814 190.65L25.9526 202.025L87.8466 226.076L96.7366 229.53L87.4698 231.787L12.6794 250L87.4698 268.213L96.7366 270.47L87.8466 273.924L25.9526 297.975L110.814 309.35L119.139 310.466L111.99 314.877L65.2412 343.719L156.659 347.397L163.099 347.656L158.755 352.417L128.97 385.06L222.671 380.435L226.964 380.223L225.682 384.326L214.564 419.918L305.503 406.808L308.173 406.423L308.838 409.037L318.342 446.364L400.964 425.205L402.782 424.739L403.996 426.17L435.104 462.837L504.218 434.734L505.668 434.145L506.981 434.997L558.5 468.424L610.019 434.997L611.332 434.145L612.782 434.734L681.896 462.837L713.004 426.17L714.218 424.739L716.036 425.205L798.658 446.364L808.162 409.037L808.827 406.423L811.497 406.808L902.436 419.918L891.318 384.326L890.036 380.223L894.329 380.435L988.03 385.06L958.245 352.417L953.901 347.656L960.341 347.397L1051.76 343.719L1005.01 314.877L997.861 310.466L1006.19 309.35L1091.05 297.975L1029.15 273.924L1020.26 270.47L1029.53 268.213L1104.32 250L1029.53 231.787L1020.26 229.53L1029.15 226.076L1091.05 202.025L1006.19 190.65L997.861 189.534L1005.01 185.123L1051.76 156.281L960.341 152.603L953.901 152.344L958.245 147.583L988.03 114.94L894.329 119.565L890.036 119.777L891.318 115.674L902.436 80.0819L811.497 93.1924L808.827 93.5773L808.162 90.9633L798.658 53.6364L716.036 74.7954L714.218 75.261L713.004 73.8301L681.896 37.1633L612.782 65.2656L611.332 65.8551L610.019 65.0032L558.5 31.5761L506.981 65.0032L505.668 65.8551L504.218 65.2656L435.104 37.1633L403.996 73.8301L402.782 75.261L400.964 74.7954Z" fill="url(#paint0_radial_10_2)" fill-opacity="0.7"/>
<path d="M400.964 74.7954L318.342 53.6364L308.838 90.9633L308.173 93.5773L305.503 93.1924L214.564 80.0819L225.682 115.674L226.964 119.777L222.671 119.565L128.97 114.94L158.755 147.583L163.099 152.344L156.659 152.603L65.2412 156.281L111.99 185.123L119.139 189.534L110.814 190.65L25.9526 202.025L87.8466 226.076L96.7366 229.53L87.4698 231.787L12.6794 250L87.4698 268.213L96.7366 270.47L87.8466 273.924L25.9526 297.975L110.814 309.35L119.139 310.466L111.99 314.877L65.2412 343.719L156.659 347.397L163.099 347.656L158.755 352.417L128.97 385.06L222.671 380.435L226.964 380.223L225.682 384.326L214.564 419.918L305.503 406.808L308.173 406.423L308.838 409.037L318.342 446.364L400.964 425.205L402.782 424.739L403.996 426.17L435.104 462.837L504.218 434.734L505.668 434.145L506.981 434.997L558.5 468.424L610.019 434.997L611.332 434.145L612.782 434.734L681.896 462.837L713.004 426.17L714.218 424.739L716.036 425.205L798.658 446.364L808.162 409.037L808.827 406.423L811.497 406.808L902.436 419.918L891.318 384.326L890.036 380.223L894.329 380.435L988.03 385.06L958.245 352.417L953.901 347.656L960.341 347.397L1051.76 343.719L1005.01 314.877L997.861 310.466L1006.19 309.35L1091.05 297.975L1029.15 273.924L1020.26 270.47L1029.53 268.213L1104.32 250L1029.53 231.787L1020.26 229.53L1029.15 226.076L1091.05 202.025L1006.19 190.65L997.861 189.534L1005.01 185.123L1051.76 156.281L960.341 152.603L953.901 152.344L958.245 147.583L988.03 114.94L894.329 119.565L890.036 119.777L891.318 115.674L902.436 80.0819L811.497 93.1924L808.827 93.5773L808.162 90.9633L798.658 53.6364L716.036 74.7954L714.218 75.261L713.004 73.8301L681.896 37.1633L612.782 65.2656L611.332 65.8551L610.019 65.0032L558.5 31.5761L506.981 65.0032L505.668 65.8551L504.218 65.2656L435.104 37.1633L403.996 73.8301L402.782 75.261L400.964 74.7954Z" fill="url(#paint1_linear_10_2)" fill-opacity="0.5"/>
<path d="M400.964 74.7954L318.342 53.6364L308.838 90.9633L308.173 93.5773L305.503 93.1924L214.564 80.0819L225.682 115.674L226.964 119.777L222.671 119.565L128.97 114.94L158.755 147.583L163.099 152.344L156.659 152.603L65.2412 156.281L111.99 185.123L119.139 189.534L110.814 190.65L25.9526 202.025L87.8466 226.076L96.7366 229.53L87.4698 231.787L12.6794 250L87.4698 268.213L96.7366 270.47L87.8466 273.924L25.9526 297.975L110.814 309.35L119.139 310.466L111.99 314.877L65.2412 343.719L156.659 347.397L163.099 347.656L158.755 352.417L128.97 385.06L222.671 380.435L226.964 380.223L225.682 384.326L214.564 419.918L305.503 406.808L308.173 406.423L308.838 409.037L318.342 446.364L400.964 425.205L402.782 424.739L403.996 426.17L435.104 462.837L504.218 434.734L505.668 434.145L506.981 434.997L558.5 468.424L610.019 434.997L611.332 434.145L612.782 434.734L681.896 462.837L713.004 426.17L714.218 424.739L716.036 425.205L798.658 446.364L808.162 409.037L808.827 406.423L811.497 406.808L902.436 419.918L891.318 384.326L890.036 380.223L894.329 380.435L988.03 385.06L958.245 352.417L953.901 347.656L960.341 347.397L1051.76 343.719L1005.01 314.877L997.861 310.466L1006.19 309.35L1091.05 297.975L1029.15 273.924L1020.26 270.47L1029.53 268.213L1104.32 250L1029.53 231.787L1020.26 229.53L1029.15 226.076L1091.05 202.025L1006.19 190.65L997.861 189.534L1005.01 185.123L1051.76 156.281L960.341 152.603L953.901 152.344L958.245 147.583L988.03 114.94L894.329 119.565L890.036 119.777L891.318 115.674L902.436 80.0819L811.497 93.1924L808.827 93.5773L808.162 90.9633L798.658 53.6364L716.036 74.7954L714.218 75.261L713.004 73.8301L681.896 37.1633L612.782 65.2656L611.332 65.8551L610.019 65.0032L558.5 31.5761L506.981 65.0032L505.668 65.8551L504.218 65.2656L435.104 37.1633L403.996 73.8301L402.782 75.261L400.964 74.7954Z" stroke="url(#paint2_linear_10_2)" stroke-width="6"/>
<path d="M298.796 209H293.645L290.08 198.868H274.357L270.793 209H265.886L279.118 172.647H285.563L298.796 209ZM288.591 194.718L282.219 176.871L275.822 194.718H288.591ZM336.687 209H331.853V177.677L321.745 198.99H318.864L308.83 177.677V209H304.313V172.647H310.905L320.598 192.887L329.973 172.647H336.687V209ZM370.402 209H346.452V172.647H370.402V176.944H351.286V186.905H370.402V191.202H351.286V204.703H370.402V209ZM408.171 209H401.896L389.738 194.547H382.927V209H378.093V172.647H388.273C390.471 172.647 392.302 172.794 393.767 173.087C395.231 173.364 396.55 173.868 397.722 174.601C399.04 175.431 400.065 176.48 400.798 177.75C401.547 179.003 401.921 180.598 401.921 182.535C401.921 185.156 401.262 187.353 399.943 189.127C398.625 190.885 396.81 192.211 394.499 193.106L408.171 209ZM396.867 182.877C396.867 181.835 396.68 180.916 396.306 180.118C395.948 179.304 395.345 178.621 394.499 178.067C393.799 177.595 392.969 177.27 392.009 177.091C391.049 176.896 389.917 176.798 388.615 176.798H382.927V190.519H387.81C389.34 190.519 390.674 190.388 391.813 190.128C392.953 189.851 393.921 189.347 394.719 188.614C395.451 187.931 395.988 187.149 396.33 186.271C396.688 185.375 396.867 184.244 396.867 182.877ZM425.676 209H411.32V205.289H416.081V176.358H411.32V172.647H425.676V176.358H420.915V205.289H425.676V209ZM461.979 206.363C461.084 206.754 460.271 207.12 459.538 207.462C458.822 207.804 457.878 208.162 456.706 208.536C455.713 208.845 454.631 209.106 453.459 209.317C452.303 209.545 451.026 209.659 449.626 209.659C446.989 209.659 444.589 209.293 442.424 208.561C440.275 207.812 438.404 206.648 436.809 205.069C435.246 203.523 434.025 201.562 433.146 199.186C432.268 196.793 431.828 194.018 431.828 190.86C431.828 187.866 432.251 185.188 433.098 182.828C433.944 180.468 435.165 178.474 436.76 176.847C438.306 175.268 440.17 174.063 442.351 173.233C444.548 172.403 446.981 171.988 449.65 171.988C451.604 171.988 453.549 172.224 455.485 172.696C457.438 173.168 459.603 173.998 461.979 175.187V180.924H461.613C459.611 179.247 457.626 178.027 455.656 177.262C453.687 176.497 451.579 176.114 449.333 176.114C447.494 176.114 445.834 176.415 444.353 177.018C442.888 177.604 441.577 178.523 440.422 179.776C439.299 180.997 438.42 182.543 437.785 184.415C437.167 186.271 436.857 188.419 436.857 190.86C436.857 193.416 437.199 195.613 437.883 197.452C438.583 199.291 439.478 200.789 440.568 201.944C441.708 203.149 443.034 204.044 444.548 204.63C446.078 205.2 447.689 205.484 449.382 205.484C451.709 205.484 453.89 205.086 455.925 204.288C457.959 203.491 459.864 202.294 461.638 200.699H461.979V206.363ZM497.478 209H492.326L488.762 198.868H473.039L469.475 209H464.567L477.8 172.647H484.245L497.478 209ZM487.272 194.718L480.9 176.871L474.504 194.718H487.272ZM507.536 171.012L506.486 185.147H503.166L502.116 171.012H507.536ZM542.839 198.624C542.839 200.04 542.505 201.44 541.838 202.823C541.187 204.207 540.267 205.379 539.079 206.339C537.777 207.381 536.255 208.194 534.514 208.78C532.788 209.366 530.705 209.659 528.264 209.659C525.643 209.659 523.283 209.415 521.184 208.927C519.1 208.438 516.976 207.714 514.812 206.754V200.699H515.153C516.993 202.229 519.117 203.409 521.525 204.239C523.934 205.069 526.197 205.484 528.312 205.484C531.307 205.484 533.635 204.923 535.295 203.8C536.971 202.677 537.81 201.179 537.81 199.308C537.81 197.696 537.411 196.508 536.613 195.743C535.832 194.978 534.636 194.384 533.024 193.961C531.804 193.635 530.477 193.367 529.045 193.155C527.629 192.944 526.123 192.675 524.528 192.35C521.306 191.666 518.913 190.502 517.351 188.858C515.804 187.198 515.031 185.042 515.031 182.389C515.031 179.345 516.317 176.855 518.889 174.918C521.46 172.965 524.724 171.988 528.679 171.988C531.234 171.988 533.578 172.232 535.71 172.721C537.842 173.209 539.73 173.811 541.374 174.527V180.24H541.032C539.649 179.068 537.826 178.1 535.563 177.335C533.317 176.554 531.014 176.163 528.654 176.163C526.066 176.163 523.983 176.7 522.404 177.774C520.842 178.849 520.061 180.232 520.061 181.925C520.061 183.438 520.451 184.627 521.232 185.489C522.014 186.352 523.389 187.011 525.358 187.467C526.4 187.695 527.881 187.971 529.802 188.297C531.722 188.622 533.35 188.956 534.685 189.298C537.386 190.014 539.421 191.096 540.788 192.545C542.155 193.993 542.839 196.02 542.839 198.624ZM591.398 176.944H573.015V187.198H588.811V191.495H573.015V209H568.181V172.647H591.398V176.944ZM623.161 209H618.01L614.445 198.868H598.723L595.158 209H590.251L603.483 172.647H609.929L623.161 209ZM612.956 194.718L606.584 176.871L600.188 194.718H612.956ZM655.876 172.647L642.644 209H636.198L622.966 172.647H628.142L639.543 204.63L650.944 172.647H655.876ZM688.493 176.822C689.974 178.45 691.105 180.444 691.887 182.804C692.684 185.164 693.083 187.841 693.083 190.836C693.083 193.831 692.676 196.516 691.862 198.893C691.065 201.253 689.942 203.222 688.493 204.801C686.996 206.445 685.222 207.682 683.171 208.512C681.136 209.342 678.809 209.757 676.188 209.757C673.633 209.757 671.306 209.334 669.206 208.487C667.123 207.641 665.349 206.412 663.884 204.801C662.419 203.189 661.288 201.212 660.49 198.868C659.709 196.524 659.318 193.847 659.318 190.836C659.318 187.874 659.709 185.221 660.49 182.877C661.271 180.517 662.411 178.499 663.908 176.822C665.34 175.227 667.115 174.007 669.23 173.16C671.363 172.314 673.682 171.891 676.188 171.891C678.793 171.891 681.128 172.322 683.195 173.185C685.279 174.031 687.045 175.243 688.493 176.822ZM688.054 190.836C688.054 186.116 686.996 182.478 684.88 179.923C682.764 177.351 679.875 176.065 676.213 176.065C672.518 176.065 669.613 177.351 667.497 179.923C665.397 182.478 664.348 186.116 664.348 190.836C664.348 195.605 665.422 199.259 667.57 201.798C669.719 204.321 672.6 205.582 676.213 205.582C679.826 205.582 682.699 204.321 684.831 201.798C686.979 199.259 688.054 195.605 688.054 190.836ZM728.117 194.4C728.117 197.037 727.824 199.34 727.238 201.31C726.669 203.263 725.725 204.89 724.406 206.192C723.153 207.429 721.688 208.333 720.012 208.902C718.335 209.472 716.382 209.757 714.152 209.757C711.874 209.757 709.888 209.456 708.195 208.854C706.503 208.251 705.078 207.364 703.923 206.192C702.604 204.858 701.652 203.246 701.066 201.358C700.497 199.47 700.212 197.151 700.212 194.4V172.647H705.046V194.645C705.046 196.614 705.176 198.168 705.437 199.308C705.713 200.447 706.169 201.48 706.804 202.408C707.52 203.466 708.488 204.264 709.709 204.801C710.946 205.338 712.427 205.606 714.152 205.606C715.894 205.606 717.375 205.346 718.596 204.825C719.816 204.288 720.793 203.482 721.525 202.408C722.16 201.48 722.608 200.423 722.868 199.234C723.145 198.03 723.283 196.541 723.283 194.767V172.647H728.117V194.4ZM767.448 209H761.174L749.016 194.547H742.204V209H737.37V172.647H747.551C749.748 172.647 751.579 172.794 753.044 173.087C754.509 173.364 755.827 173.868 756.999 174.601C758.317 175.431 759.343 176.48 760.075 177.75C760.824 179.003 761.198 180.598 761.198 182.535C761.198 185.156 760.539 187.353 759.221 189.127C757.902 190.885 756.088 192.211 753.776 193.106L767.448 209ZM756.145 182.877C756.145 181.835 755.957 180.916 755.583 180.118C755.225 179.304 754.623 178.621 753.776 178.067C753.076 177.595 752.246 177.27 751.286 177.091C750.326 176.896 749.195 176.798 747.893 176.798H742.204V190.519H747.087C748.617 190.519 749.951 190.388 751.091 190.128C752.23 189.851 753.199 189.347 753.996 188.614C754.729 187.931 755.266 187.149 755.607 186.271C755.965 185.375 756.145 184.244 756.145 182.877ZM784.953 209H770.598V205.289H775.358V176.358H770.598V172.647H784.953V176.358H780.192V205.289H784.953V209ZM819.108 176.944H806.12V209H801.286V176.944H788.298V172.647H819.108V176.944ZM847.941 209H823.991V172.647H847.941V176.944H828.825V186.905H847.941V191.202H828.825V204.703H847.941V209ZM163.859 259.624C163.859 261.04 163.526 262.44 162.858 263.823C162.207 265.207 161.288 266.379 160.1 267.339C158.798 268.381 157.276 269.194 155.534 269.78C153.809 270.366 151.726 270.659 149.284 270.659C146.664 270.659 144.304 270.415 142.204 269.927C140.121 269.438 137.997 268.714 135.832 267.754V261.699H136.174C138.013 263.229 140.137 264.409 142.546 265.239C144.955 266.069 147.217 266.484 149.333 266.484C152.328 266.484 154.655 265.923 156.315 264.8C157.992 263.677 158.83 262.179 158.83 260.308C158.83 258.696 158.431 257.508 157.634 256.743C156.853 255.978 155.656 255.384 154.045 254.961C152.824 254.635 151.498 254.367 150.065 254.155C148.649 253.944 147.144 253.675 145.549 253.35C142.326 252.666 139.934 251.502 138.371 249.858C136.825 248.198 136.052 246.042 136.052 243.389C136.052 240.345 137.338 237.855 139.909 235.918C142.481 233.965 145.744 232.988 149.699 232.988C152.255 232.988 154.598 233.232 156.73 233.721C158.863 234.209 160.751 234.811 162.395 235.527V241.24H162.053C160.669 240.068 158.846 239.1 156.584 238.335C154.338 237.554 152.035 237.163 149.675 237.163C147.087 237.163 145.004 237.7 143.425 238.774C141.862 239.849 141.081 241.232 141.081 242.925C141.081 244.438 141.472 245.627 142.253 246.489C143.034 247.352 144.41 248.011 146.379 248.467C147.421 248.695 148.902 248.971 150.822 249.297C152.743 249.622 154.37 249.956 155.705 250.298C158.407 251.014 160.441 252.096 161.809 253.545C163.176 254.993 163.859 257.02 163.859 259.624ZM199.797 270H194.646L191.081 259.868H175.358L171.794 270H166.887L180.119 233.647H186.564L199.797 270ZM189.592 255.718L183.22 237.871L176.823 255.718H189.592ZM228.312 270H205.314V233.647H210.148V265.703H228.312V270ZM257.097 270H233.146V233.647H257.097V237.944H237.98V247.905H257.097V252.202H237.98V265.703H257.097V270ZM291.203 259.624C291.203 261.04 290.869 262.44 290.202 263.823C289.551 265.207 288.632 266.379 287.443 267.339C286.141 268.381 284.619 269.194 282.878 269.78C281.153 270.366 279.069 270.659 276.628 270.659C274.007 270.659 271.647 270.415 269.548 269.927C267.465 269.438 265.34 268.714 263.176 267.754V261.699H263.518C265.357 263.229 267.481 264.409 269.89 265.239C272.299 266.069 274.561 266.484 276.677 266.484C279.672 266.484 281.999 265.923 283.659 264.8C285.336 263.677 286.174 262.179 286.174 260.308C286.174 258.696 285.775 257.508 284.978 256.743C284.196 255.978 283 255.384 281.389 254.961C280.168 254.635 278.841 254.367 277.409 254.155C275.993 253.944 274.488 253.675 272.893 253.35C269.67 252.666 267.277 251.502 265.715 249.858C264.169 248.198 263.396 246.042 263.396 243.389C263.396 240.345 264.681 237.855 267.253 235.918C269.825 233.965 273.088 232.988 277.043 232.988C279.598 232.988 281.942 233.232 284.074 233.721C286.206 234.209 288.094 234.811 289.738 235.527V241.24H289.396C288.013 240.068 286.19 239.1 283.928 238.335C281.682 237.554 279.379 237.163 277.019 237.163C274.431 237.163 272.347 237.7 270.769 238.774C269.206 239.849 268.425 241.232 268.425 242.925C268.425 244.438 268.815 245.627 269.597 246.489C270.378 247.352 271.753 248.011 273.723 248.467C274.764 248.695 276.245 248.971 278.166 249.297C280.087 249.622 281.714 249.956 283.049 250.298C285.751 251.014 287.785 252.096 289.152 253.545C290.52 254.993 291.203 257.02 291.203 259.624ZM313.054 256.304H297.819V251.885H313.054V256.304ZM332.561 260.552C332.561 263.742 331.584 266.2 329.631 267.925C327.694 269.65 325.09 270.513 321.818 270.513C321.037 270.513 319.995 270.439 318.693 270.293C317.391 270.163 316.301 270 315.422 269.805V265.288H315.69C316.358 265.516 317.18 265.752 318.156 265.996C319.133 266.24 320.134 266.362 321.159 266.362C322.657 266.362 323.845 266.191 324.724 265.85C325.619 265.508 326.278 265.02 326.701 264.385C327.141 263.734 327.417 262.936 327.531 261.992C327.661 261.048 327.727 259.958 327.727 258.721V237.505H320.036V233.647H332.561V260.552ZM365.935 270H341.984V233.647H365.935V237.944H346.818V247.905H365.935V252.202H346.818V265.703H365.935V270ZM403.703 270H397.429L385.271 255.547H378.459V270H373.625V233.647H383.806C386.003 233.647 387.834 233.794 389.299 234.087C390.764 234.364 392.082 234.868 393.254 235.601C394.572 236.431 395.598 237.48 396.33 238.75C397.079 240.003 397.453 241.598 397.453 243.535C397.453 246.156 396.794 248.353 395.476 250.127C394.157 251.885 392.342 253.211 390.031 254.106L403.703 270ZM392.399 243.877C392.399 242.835 392.212 241.916 391.838 241.118C391.48 240.304 390.878 239.621 390.031 239.067C389.331 238.595 388.501 238.27 387.541 238.091C386.581 237.896 385.45 237.798 384.147 237.798H378.459V251.519H383.342C384.872 251.519 386.206 251.388 387.346 251.128C388.485 250.851 389.453 250.347 390.251 249.614C390.983 248.931 391.521 248.149 391.862 247.271C392.22 246.375 392.399 245.244 392.399 243.877ZM437.614 270H431.34L416.96 253.813L413.347 257.671V270H408.513V233.647H413.347V252.617L430.998 233.647H436.857L420.622 250.737L437.614 270ZM488.444 270H483.61V252.202H465.471V270H460.637V233.647H465.471V247.905H483.61V233.647H488.444V270ZM511.052 270H496.696V266.289H501.457V237.358H496.696V233.647H511.052V237.358H506.291V266.289H511.052V270ZM545.207 237.944H532.219V270H527.385V237.944H514.396V233.647H545.207V237.944ZM576.213 259.624C576.213 261.04 575.879 262.44 575.212 263.823C574.561 265.207 573.641 266.379 572.453 267.339C571.151 268.381 569.629 269.194 567.888 269.78C566.162 270.366 564.079 270.659 561.638 270.659C559.017 270.659 556.657 270.415 554.558 269.927C552.474 269.438 550.35 268.714 548.186 267.754V261.699H548.527C550.367 263.229 552.491 264.409 554.899 265.239C557.308 266.069 559.571 266.484 561.687 266.484C564.681 266.484 567.009 265.923 568.669 264.8C570.345 263.677 571.184 262.179 571.184 260.308C571.184 258.696 570.785 257.508 569.987 256.743C569.206 255.978 568.01 255.384 566.398 254.961C565.178 254.635 563.851 254.367 562.419 254.155C561.003 253.944 559.497 253.675 557.902 253.35C554.68 252.666 552.287 251.502 550.725 249.858C549.178 248.198 548.405 246.042 548.405 243.389C548.405 240.345 549.691 237.855 552.263 235.918C554.834 233.965 558.098 232.988 562.053 232.988C564.608 232.988 566.952 233.232 569.084 233.721C571.216 234.209 573.104 234.811 574.748 235.527V241.24H574.406C573.023 240.068 571.2 239.1 568.938 238.335C566.691 237.554 564.388 237.163 562.028 237.163C559.44 237.163 557.357 237.7 555.778 238.774C554.216 239.849 553.435 241.232 553.435 242.925C553.435 244.438 553.825 245.627 554.606 246.489C555.388 247.352 556.763 248.011 558.732 248.467C559.774 248.695 561.255 248.971 563.176 249.297C565.096 249.622 566.724 249.956 568.059 250.298C570.76 251.014 572.795 252.096 574.162 253.545C575.529 254.993 576.213 257.02 576.213 259.624ZM638.347 247.173C638.347 250.151 637.842 253.081 636.833 255.962C635.824 258.843 634.359 261.357 632.438 263.506C630.339 265.85 627.889 267.648 625.09 268.901C622.29 270.138 619.068 270.757 615.422 270.757C610.458 270.757 606.568 269.479 603.752 266.924C600.952 264.352 599.553 260.82 599.553 256.328C599.553 253.171 600.09 250.168 601.164 247.319C602.238 244.471 603.776 241.965 605.778 239.8C607.731 237.7 610.148 236.024 613.029 234.771C615.91 233.517 619.051 232.891 622.453 232.891C627.434 232.891 631.324 234.176 634.123 236.748C636.939 239.32 638.347 242.795 638.347 247.173ZM624.943 259.575C626.05 258.127 626.913 256.45 627.531 254.546C628.166 252.625 628.483 250.42 628.483 247.93C628.483 245.326 627.857 243.291 626.604 241.826C625.367 240.345 623.592 239.604 621.281 239.604C619.768 239.604 618.319 239.954 616.936 240.654C615.568 241.338 614.307 242.388 613.151 243.804C612.028 245.155 611.125 246.839 610.441 248.857C609.758 250.859 609.416 253.114 609.416 255.62C609.416 258.403 610.051 260.503 611.32 261.919C612.606 263.335 614.38 264.043 616.643 264.043C618.205 264.043 619.711 263.66 621.159 262.896C622.608 262.114 623.869 261.007 624.943 259.575ZM673.747 270H665.764L655.095 244.829L649.284 270H640.642L649.04 233.647H659.538L668.669 254.692L673.503 233.647H682.146L673.747 270ZM717.717 233.647L716.13 240.532H699.162L697.648 247.026H713.396L711.784 253.936H696.037L693.913 263.115H710.881L709.318 270H682.976L691.374 233.647H717.717ZM772.404 270H763.029L768.522 246.221L758.537 261.455H752.067L748.845 245.22L743.132 270H734.245L742.644 233.647H753.41L757.39 251.885L769.743 233.647H780.803L772.404 270ZM801.335 270H780.046L781.535 263.555H787.468L792.888 240.093H786.955L788.444 233.647H809.733L808.244 240.093H802.312L796.892 263.555H802.824L801.335 270ZM835.197 270H808.952L817.351 233.647H826.774L820.012 262.969H836.833L835.197 270ZM867.082 270H840.837L849.235 233.647H858.659L851.896 262.969H868.718L867.082 270ZM892.399 270H871.11L872.6 263.555H878.532L883.952 240.093H878.02L879.509 233.647H900.798L899.309 240.093H893.376L887.956 263.555H893.889L892.399 270ZM940.251 247.173C940.251 250.151 939.746 253.081 938.737 255.962C937.728 258.843 936.263 261.357 934.343 263.506C932.243 265.85 929.794 267.648 926.994 268.901C924.195 270.138 920.972 270.757 917.326 270.757C912.362 270.757 908.472 269.479 905.656 266.924C902.857 264.352 901.457 260.82 901.457 256.328C901.457 253.171 901.994 250.168 903.068 247.319C904.143 244.471 905.681 241.965 907.683 239.8C909.636 237.7 912.053 236.024 914.934 234.771C917.814 233.517 920.956 232.891 924.357 232.891C929.338 232.891 933.228 234.176 936.027 236.748C938.843 239.32 940.251 242.795 940.251 247.173ZM926.848 259.575C927.954 258.127 928.817 256.45 929.436 254.546C930.07 252.625 930.388 250.42 930.388 247.93C930.388 245.326 929.761 243.291 928.508 241.826C927.271 240.345 925.497 239.604 923.186 239.604C921.672 239.604 920.223 239.954 918.84 240.654C917.473 241.338 916.211 242.388 915.056 243.804C913.933 245.155 913.029 246.839 912.346 248.857C911.662 250.859 911.32 253.114 911.32 255.62C911.32 258.403 911.955 260.503 913.225 261.919C914.51 263.335 916.285 264.043 918.547 264.043C920.109 264.043 921.615 263.66 923.063 262.896C924.512 262.114 925.773 261.007 926.848 259.575ZM975.651 270H967.668L956.999 244.829L951.188 270H942.546L950.944 233.647H961.442L970.573 254.692L975.407 233.647H984.05L975.651 270ZM309.123 320.624C309.123 322.04 308.789 323.44 308.122 324.823C307.471 326.207 306.551 327.379 305.363 328.339C304.061 329.381 302.539 330.194 300.798 330.78C299.073 331.366 296.989 331.659 294.548 331.659C291.927 331.659 289.567 331.415 287.468 330.927C285.384 330.438 283.26 329.714 281.096 328.754V322.699H281.438C283.277 324.229 285.401 325.409 287.81 326.239C290.218 327.069 292.481 327.484 294.597 327.484C297.591 327.484 299.919 326.923 301.579 325.8C303.256 324.677 304.094 323.179 304.094 321.308C304.094 319.696 303.695 318.508 302.897 317.743C302.116 316.978 300.92 316.384 299.309 315.961C298.088 315.635 296.761 315.367 295.329 315.155C293.913 314.944 292.408 314.675 290.812 314.35C287.59 313.666 285.197 312.502 283.635 310.858C282.089 309.198 281.315 307.042 281.315 304.389C281.315 301.345 282.601 298.855 285.173 296.918C287.744 294.965 291.008 293.988 294.963 293.988C297.518 293.988 299.862 294.232 301.994 294.721C304.126 295.209 306.014 295.811 307.658 296.527V302.24H307.316C305.933 301.068 304.11 300.1 301.848 299.335C299.602 298.554 297.299 298.163 294.938 298.163C292.351 298.163 290.267 298.7 288.688 299.774C287.126 300.849 286.345 302.232 286.345 303.925C286.345 305.438 286.735 306.627 287.517 307.489C288.298 308.352 289.673 309.011 291.643 309.467C292.684 309.695 294.165 309.971 296.086 310.297C298.007 310.622 299.634 310.956 300.969 311.298C303.671 312.014 305.705 313.096 307.072 314.545C308.439 315.993 309.123 318.02 309.123 320.624ZM349.26 331H344.426V299.677L334.318 320.99H331.438L321.403 299.677V331H316.887V294.647H323.479L333.171 314.887L342.546 294.647H349.26V331ZM387.688 331H382.536L378.972 320.868H363.249L359.685 331H354.777L368.01 294.647H374.455L387.688 331ZM377.482 316.718L371.11 298.871L364.714 316.718H377.482ZM421.281 328.363C420.386 328.754 419.572 329.12 418.84 329.462C418.124 329.804 417.18 330.162 416.008 330.536C415.015 330.845 413.933 331.106 412.761 331.317C411.605 331.545 410.327 331.659 408.928 331.659C406.291 331.659 403.89 331.293 401.726 330.561C399.577 329.812 397.705 328.648 396.11 327.069C394.548 325.523 393.327 323.562 392.448 321.186C391.569 318.793 391.13 316.018 391.13 312.86C391.13 309.866 391.553 307.188 392.399 304.828C393.246 302.468 394.466 300.474 396.062 298.847C397.608 297.268 399.471 296.063 401.652 295.233C403.85 294.403 406.283 293.988 408.952 293.988C410.905 293.988 412.85 294.224 414.787 294.696C416.74 295.168 418.905 295.998 421.281 297.187V302.924H420.915C418.913 301.247 416.927 300.027 414.958 299.262C412.989 298.497 410.881 298.114 408.635 298.114C406.796 298.114 405.135 298.415 403.654 299.018C402.189 299.604 400.879 300.523 399.724 301.776C398.601 302.997 397.722 304.543 397.087 306.415C396.468 308.271 396.159 310.419 396.159 312.86C396.159 315.416 396.501 317.613 397.185 319.452C397.884 321.291 398.78 322.789 399.87 323.944C401.009 325.149 402.336 326.044 403.85 326.63C405.38 327.2 406.991 327.484 408.684 327.484C411.011 327.484 413.192 327.086 415.227 326.288C417.261 325.491 419.165 324.294 420.939 322.699H421.281V328.363ZM457.341 331H451.066L436.687 314.813L433.073 318.671V331H428.239V294.647H433.073V313.617L450.725 294.647H456.584L440.349 311.737L457.341 331ZM512.736 331H507.902V299.677L497.795 320.99H494.914L484.88 299.677V331H480.363V294.647H486.955L496.647 314.887L506.022 294.647H512.736V331ZM551.164 331H546.013L542.448 320.868H526.726L523.161 331H518.254L531.486 294.647H537.932L551.164 331ZM540.959 316.718L534.587 298.871L528.19 316.718H540.959ZM587.004 328.314C585.018 329.226 582.845 330.023 580.485 330.707C578.142 331.374 575.871 331.708 573.674 331.708C570.842 331.708 568.246 331.317 565.886 330.536C563.526 329.755 561.516 328.583 559.855 327.021C558.179 325.442 556.885 323.472 555.974 321.112C555.062 318.736 554.606 315.961 554.606 312.787C554.606 306.977 556.299 302.395 559.685 299.042C563.086 295.673 567.749 293.988 573.674 293.988C575.741 293.988 577.849 294.241 579.997 294.745C582.162 295.233 584.489 296.072 586.979 297.26V302.997H586.54C586.035 302.606 585.303 302.094 584.343 301.459C583.382 300.824 582.438 300.295 581.511 299.872C580.388 299.368 579.11 298.952 577.678 298.627C576.262 298.285 574.65 298.114 572.844 298.114C568.775 298.114 565.552 299.424 563.176 302.045C560.816 304.649 559.636 308.181 559.636 312.641C559.636 317.344 560.873 321.007 563.347 323.627C565.821 326.231 569.19 327.533 573.454 327.533C575.017 327.533 576.571 327.379 578.117 327.069C579.68 326.76 581.047 326.361 582.219 325.873V316.962H572.478V312.714H587.004V328.314ZM608.269 331H593.913V327.289H598.674V298.358H593.913V294.647H608.269V298.358H603.508V327.289H608.269V331ZM644.572 328.363C643.677 328.754 642.863 329.12 642.131 329.462C641.415 329.804 640.471 330.162 639.299 330.536C638.306 330.845 637.224 331.106 636.052 331.317C634.896 331.545 633.618 331.659 632.219 331.659C629.582 331.659 627.181 331.293 625.017 330.561C622.868 329.812 620.996 328.648 619.401 327.069C617.839 325.523 616.618 323.562 615.739 321.186C614.86 318.793 614.421 316.018 614.421 312.86C614.421 309.866 614.844 307.188 615.69 304.828C616.537 302.468 617.757 300.474 619.353 298.847C620.899 297.268 622.762 296.063 624.943 295.233C627.141 294.403 629.574 293.988 632.243 293.988C634.196 293.988 636.141 294.224 638.078 294.696C640.031 295.168 642.196 295.998 644.572 297.187V302.924H644.206C642.204 301.247 640.218 300.027 638.249 299.262C636.28 298.497 634.172 298.114 631.926 298.114C630.087 298.114 628.426 298.415 626.945 299.018C625.48 299.604 624.17 300.523 623.015 301.776C621.892 302.997 621.013 304.543 620.378 306.415C619.759 308.271 619.45 310.419 619.45 312.86C619.45 315.416 619.792 317.613 620.476 319.452C621.175 321.291 622.071 322.789 623.161 323.944C624.3 325.149 625.627 326.044 627.141 326.63C628.671 327.2 630.282 327.484 631.975 327.484C634.302 327.484 636.483 327.086 638.518 326.288C640.552 325.491 642.456 324.294 644.23 322.699H644.572V328.363ZM677.824 320.624C677.824 322.04 677.491 323.44 676.823 324.823C676.172 326.207 675.253 327.379 674.064 328.339C672.762 329.381 671.241 330.194 669.499 330.78C667.774 331.366 665.69 331.659 663.249 331.659C660.629 331.659 658.269 331.415 656.169 330.927C654.086 330.438 651.962 329.714 649.797 328.754V322.699H650.139C651.978 324.229 654.102 325.409 656.511 326.239C658.92 327.069 661.182 327.484 663.298 327.484C666.293 327.484 668.62 326.923 670.28 325.8C671.957 324.677 672.795 323.179 672.795 321.308C672.795 319.696 672.396 318.508 671.599 317.743C670.817 316.978 669.621 316.384 668.01 315.961C666.789 315.635 665.463 315.367 664.03 315.155C662.614 314.944 661.109 314.675 659.514 314.35C656.291 313.666 653.898 312.502 652.336 310.858C650.79 309.198 650.017 307.042 650.017 304.389C650.017 301.345 651.302 298.855 653.874 296.918C656.446 294.965 659.709 293.988 663.664 293.988C666.219 293.988 668.563 294.232 670.695 294.721C672.827 295.209 674.715 295.811 676.359 296.527V302.24H676.018C674.634 301.068 672.811 300.1 670.549 299.335C668.303 298.554 666 298.163 663.64 298.163C661.052 298.163 658.968 298.7 657.39 299.774C655.827 300.849 655.046 302.232 655.046 303.925C655.046 305.438 655.437 306.627 656.218 307.489C656.999 308.352 658.374 309.011 660.344 309.467C661.385 309.695 662.867 309.971 664.787 310.297C666.708 310.622 668.335 310.956 669.67 311.298C672.372 312.014 674.406 313.096 675.773 314.545C677.141 315.993 677.824 318.02 677.824 320.624ZM729.582 320.624C729.582 322.04 729.248 323.44 728.581 324.823C727.93 326.207 727.01 327.379 725.822 328.339C724.52 329.381 722.998 330.194 721.257 330.78C719.532 331.366 717.448 331.659 715.007 331.659C712.386 331.659 710.026 331.415 707.927 330.927C705.843 330.438 703.719 329.714 701.555 328.754V322.699H701.896C703.736 324.229 705.86 325.409 708.269 326.239C710.677 327.069 712.94 327.484 715.056 327.484C718.05 327.484 720.378 326.923 722.038 325.8C723.715 324.677 724.553 323.179 724.553 321.308C724.553 319.696 724.154 318.508 723.356 317.743C722.575 316.978 721.379 316.384 719.768 315.961C718.547 315.635 717.22 315.367 715.788 315.155C714.372 314.944 712.867 314.675 711.271 314.35C708.049 313.666 705.656 312.502 704.094 310.858C702.548 309.198 701.774 307.042 701.774 304.389C701.774 301.345 703.06 298.855 705.632 296.918C708.203 294.965 711.467 293.988 715.422 293.988C717.977 293.988 720.321 294.232 722.453 294.721C724.585 295.209 726.473 295.811 728.117 296.527V302.24H727.775C726.392 301.068 724.569 300.1 722.307 299.335C720.061 298.554 717.757 298.163 715.397 298.163C712.81 298.163 710.726 298.7 709.147 299.774C707.585 300.849 706.804 302.232 706.804 303.925C706.804 305.438 707.194 306.627 707.976 307.489C708.757 308.352 710.132 309.011 712.102 309.467C713.143 309.695 714.624 309.971 716.545 310.297C718.465 310.622 720.093 310.956 721.428 311.298C724.13 312.014 726.164 313.096 727.531 314.545C728.898 315.993 729.582 318.02 729.582 320.624ZM764.445 298.822C765.926 300.45 767.058 302.444 767.839 304.804C768.636 307.164 769.035 309.841 769.035 312.836C769.035 315.831 768.628 318.516 767.814 320.893C767.017 323.253 765.894 325.222 764.445 326.801C762.948 328.445 761.174 329.682 759.123 330.512C757.089 331.342 754.761 331.757 752.141 331.757C749.585 331.757 747.258 331.334 745.158 330.487C743.075 329.641 741.301 328.412 739.836 326.801C738.371 325.189 737.24 323.212 736.442 320.868C735.661 318.524 735.271 315.847 735.271 312.836C735.271 309.874 735.661 307.221 736.442 304.877C737.224 302.517 738.363 300.499 739.86 298.822C741.293 297.227 743.067 296.007 745.183 295.16C747.315 294.314 749.634 293.891 752.141 293.891C754.745 293.891 757.08 294.322 759.147 295.185C761.231 296.031 762.997 297.243 764.445 298.822ZM764.006 312.836C764.006 308.116 762.948 304.478 760.832 301.923C758.716 299.351 755.827 298.065 752.165 298.065C748.47 298.065 745.565 299.351 743.449 301.923C741.35 304.478 740.3 308.116 740.3 312.836C740.3 317.605 741.374 321.259 743.522 323.798C745.671 326.321 748.552 327.582 752.165 327.582C755.778 327.582 758.651 326.321 760.783 323.798C762.932 321.259 764.006 317.605 764.006 312.836ZM799.699 331H776.701V294.647H781.535V326.703H799.699V331ZM835.246 312.86C835.246 316.164 834.522 319.159 833.073 321.845C831.641 324.53 829.729 326.614 827.336 328.095C825.676 329.12 823.82 329.861 821.77 330.316C819.735 330.772 817.049 331 813.713 331H804.533V294.647H813.615C817.163 294.647 819.979 294.908 822.062 295.429C824.162 295.933 825.936 296.633 827.385 297.528C829.859 299.075 831.787 301.133 833.171 303.705C834.554 306.277 835.246 309.328 835.246 312.86ZM830.192 312.787C830.192 309.939 829.696 307.538 828.703 305.585C827.71 303.632 826.229 302.094 824.26 300.971C822.827 300.157 821.306 299.595 819.694 299.286C818.083 298.961 816.154 298.798 813.908 298.798H809.367V326.85H813.908C816.236 326.85 818.262 326.679 819.987 326.337C821.729 325.995 823.324 325.36 824.772 324.433C826.579 323.277 827.93 321.755 828.825 319.867C829.737 317.979 830.192 315.619 830.192 312.787Z" fill="black"/>
<path d="M632.795 365.152H625.178L625.691 362.942H633.308L632.795 365.152ZM659.126 372H656.27L650.667 363.882L648.176 365.994L646.797 372H644.355L648.555 353.824H650.996L648.799 363.26L659.48 353.824H662.556L652.583 362.527L659.126 372ZM668.147 353.702L667.598 356.082H665.01L665.559 353.702H668.147ZM666.926 358.365L663.777 372H661.482L664.631 358.365H666.926ZM678.547 358.365L678.132 360.22H673.396L671.931 366.507C671.85 366.824 671.777 367.19 671.711 367.605C671.646 368.012 671.614 368.338 671.614 368.582C671.614 369.176 671.764 369.62 672.065 369.913C672.367 370.197 672.924 370.34 673.738 370.34C674.071 370.34 674.466 370.283 674.922 370.169C675.386 370.055 675.699 369.965 675.862 369.9H675.984L675.557 371.878C675.101 371.992 674.613 372.085 674.092 372.159C673.579 372.232 673.123 372.269 672.725 372.269C671.602 372.269 670.731 372.024 670.112 371.536C669.502 371.04 669.197 370.258 669.197 369.192C669.197 368.932 669.213 368.676 669.246 368.423C669.286 368.163 669.339 367.87 669.404 367.544L671.101 360.22H669.551L669.966 358.365H671.516L672.432 354.446H674.727L673.811 358.365H678.547ZM684.089 372.305C683.227 372.305 682.462 372.203 681.794 372C681.135 371.797 680.557 371.475 680.061 371.036C679.581 370.612 679.211 370.079 678.95 369.437C678.69 368.794 678.56 368.045 678.56 367.19C678.56 365.913 678.759 364.721 679.158 363.614C679.556 362.507 680.122 361.535 680.854 360.696C681.562 359.882 682.437 359.24 683.479 358.768C684.521 358.287 685.644 358.047 686.848 358.047C687.646 358.047 688.394 358.157 689.094 358.377C689.802 358.597 690.425 358.857 690.962 359.158L690.461 361.636H690.327C690.164 361.49 689.961 361.319 689.717 361.124C689.473 360.928 689.184 360.745 688.85 360.574C688.516 360.395 688.146 360.249 687.739 360.135C687.332 360.013 686.868 359.952 686.348 359.952C684.769 359.952 683.479 360.619 682.478 361.954C681.485 363.288 680.989 364.912 680.989 366.824C680.989 367.972 681.282 368.855 681.868 369.473C682.462 370.092 683.304 370.401 684.395 370.401C684.907 370.401 685.42 370.328 685.933 370.181C686.445 370.035 686.881 369.876 687.239 369.705C687.638 369.518 688.008 369.319 688.35 369.107C688.691 368.895 688.94 368.737 689.094 368.631H689.229L688.74 371.133C688.032 371.451 687.284 371.727 686.494 371.963C685.705 372.191 684.903 372.305 684.089 372.305ZM704.878 361.478C704.878 361.673 704.858 361.937 704.817 362.271C704.784 362.605 704.736 362.898 704.67 363.15L702.62 372H700.325L702.119 364.236C702.217 363.805 702.29 363.431 702.339 363.113C702.396 362.788 702.424 362.466 702.424 362.149C702.424 361.465 702.253 360.953 701.912 360.611C701.578 360.261 700.972 360.086 700.093 360.086C699.474 360.086 698.791 360.257 698.042 360.599C697.301 360.94 696.577 361.347 695.869 361.819L693.513 372H691.218L695.601 353.006H697.896L696.309 359.878C697.179 359.268 697.993 358.8 698.75 358.475C699.515 358.149 700.3 357.986 701.106 357.986C702.294 357.986 703.218 358.287 703.877 358.89C704.544 359.484 704.878 360.346 704.878 361.478ZM718.074 363.699C718.114 363.463 718.143 363.264 718.159 363.101C718.175 362.938 718.184 362.759 718.184 362.564C718.184 361.693 717.944 361.014 717.463 360.525C716.991 360.037 716.23 359.793 715.181 359.793C714.025 359.793 713 360.151 712.104 360.867C711.209 361.583 710.603 362.527 710.286 363.699H718.074ZM713.484 372.317C711.596 372.317 710.115 371.874 709.041 370.987C707.966 370.1 707.429 368.802 707.429 367.093C707.429 364.594 708.219 362.454 709.797 360.672C711.376 358.882 713.329 357.986 715.657 357.986C717.203 357.986 718.387 358.373 719.209 359.146C720.031 359.911 720.442 360.989 720.442 362.381C720.442 362.625 720.405 363.012 720.332 363.541C720.267 364.069 720.157 364.684 720.002 365.384H709.956C709.907 365.62 709.871 365.852 709.846 366.08C709.83 366.307 709.822 366.519 709.822 366.714C709.822 367.862 710.172 368.765 710.872 369.424C711.571 370.075 712.564 370.401 713.85 370.401C714.745 370.401 715.665 370.226 716.609 369.876C717.561 369.526 718.359 369.131 719.001 368.692H719.136L718.635 371.17C718.228 371.316 717.862 371.451 717.537 371.573C717.211 371.695 716.796 371.817 716.292 371.939C715.787 372.061 715.339 372.155 714.949 372.22C714.558 372.285 714.07 372.317 713.484 372.317ZM735.591 361.478C735.591 361.673 735.57 361.937 735.53 362.271C735.497 362.605 735.448 362.898 735.383 363.15L733.333 372H731.038L732.832 364.236C732.93 363.805 733.003 363.431 733.052 363.113C733.109 362.788 733.137 362.466 733.137 362.149C733.137 361.465 732.966 360.953 732.625 360.611C732.291 360.261 731.685 360.086 730.806 360.086C730.187 360.086 729.504 360.257 728.755 360.599C728.014 360.94 727.29 361.347 726.582 361.819L724.226 372H721.931L725.081 358.365H727.375L727.021 359.878C727.892 359.268 728.706 358.8 729.463 358.475C730.228 358.149 731.013 357.986 731.819 357.986C733.007 357.986 733.931 358.287 734.59 358.89C735.257 359.484 735.591 360.346 735.591 361.478ZM771.956 353.824L763.228 372H760.432L759.895 356.949L752.839 372H750.154L749.409 353.824H751.863L752.351 368.912L759.468 353.824H761.921L762.41 369.058L769.575 353.824H771.956ZM782.332 363.699C782.372 363.463 782.401 363.264 782.417 363.101C782.433 362.938 782.441 362.759 782.441 362.564C782.441 361.693 782.201 361.014 781.721 360.525C781.249 360.037 780.488 359.793 779.438 359.793C778.283 359.793 777.257 360.151 776.362 360.867C775.467 361.583 774.861 362.527 774.543 363.699H782.332ZM777.742 372.317C775.854 372.317 774.373 371.874 773.298 370.987C772.224 370.1 771.687 368.802 771.687 367.093C771.687 364.594 772.476 362.454 774.055 360.672C775.634 358.882 777.587 357.986 779.915 357.986C781.461 357.986 782.645 358.373 783.467 359.146C784.289 359.911 784.7 360.989 784.7 362.381C784.7 362.625 784.663 363.012 784.59 363.541C784.525 364.069 784.415 364.684 784.26 365.384H774.214C774.165 365.62 774.128 365.852 774.104 366.08C774.088 366.307 774.08 366.519 774.08 366.714C774.08 367.862 774.43 368.765 775.129 369.424C775.829 370.075 776.822 370.401 778.108 370.401C779.003 370.401 779.923 370.226 780.867 369.876C781.819 369.526 782.616 369.131 783.259 368.692H783.394L782.893 371.17C782.486 371.316 782.12 371.451 781.794 371.573C781.469 371.695 781.054 371.817 780.549 371.939C780.045 372.061 779.597 372.155 779.207 372.22C778.816 372.285 778.328 372.317 777.742 372.317ZM797.224 363.699C797.265 363.463 797.293 363.264 797.31 363.101C797.326 362.938 797.334 362.759 797.334 362.564C797.334 361.693 797.094 361.014 796.614 360.525C796.142 360.037 795.381 359.793 794.331 359.793C793.175 359.793 792.15 360.151 791.255 360.867C790.36 361.583 789.753 362.527 789.436 363.699H797.224ZM792.634 372.317C790.746 372.317 789.265 371.874 788.191 370.987C787.117 370.1 786.58 368.802 786.58 367.093C786.58 364.594 787.369 362.454 788.948 360.672C790.527 358.882 792.48 357.986 794.807 357.986C796.353 357.986 797.537 358.373 798.359 359.146C799.181 359.911 799.592 360.989 799.592 362.381C799.592 362.625 799.556 363.012 799.482 363.541C799.417 364.069 799.307 364.684 799.153 365.384H789.106C789.058 365.62 789.021 365.852 788.997 366.08C788.98 366.307 788.972 366.519 788.972 366.714C788.972 367.862 789.322 368.765 790.022 369.424C790.722 370.075 791.715 370.401 793 370.401C793.896 370.401 794.815 370.226 795.759 369.876C796.711 369.526 797.509 369.131 798.152 368.692H798.286L797.786 371.17C797.379 371.316 797.013 371.451 796.687 371.573C796.361 371.695 795.946 371.817 795.442 371.939C794.937 372.061 794.49 372.155 794.099 372.22C793.708 372.285 793.22 372.317 792.634 372.317ZM813.606 372H810.823L806.465 366.006L804.487 367.605L803.486 372H801.167L805.562 353.006H807.881L805.049 365.213L813.044 358.365H816.06L808.284 364.81L813.606 372ZM822.468 353.006L818.074 372H815.779L820.173 353.006H822.468ZM825.081 377.029H822.554L826.521 371.207L824.055 358.365H826.411L828.34 368.509L834.858 358.365H837.361L825.081 377.029Z" fill="black"/>
<defs>
<radialGradient id="paint0_radial_10_2" cx="0" cy="0" r="1" gradientUnits="userSpaceOnUse" gradientTransform="translate(558.5 250) rotate(-90) scale(222 558.5)">
<stop stop-color="white" stop-opacity="0"/>
<stop offset="1" stop-color="white" stop-opacity="0.4"/>
</radialGradient>
<linearGradient id="paint1_linear_10_2" x1="558.5" y1="472" x2="558.5" y2="28" gradientUnits="userSpaceOnUse">
<stop offset="0.586" stop-color="white" stop-opacity="0"/>
<stop offset="1" stop-color="white" stop-opacity="0.62"/>
</linearGradient>
<linearGradient id="paint2_linear_10_2" x1="802.857" y1="28" x2="406.475" y2="543.057" gradientUnits="userSpaceOnUse">
<stop/>
<stop offset="1" stop-color="#4F4F4F"/>
</linearGradient>
</defs>
</svg>
