<svg width="1112" height="424" viewBox="0 0 1112 424" fill="none" xmlns="http://www.w3.org/2000/svg">
<path d="M551.54 0L461.69 54.125L324.148 19.1862L269.256 95.4665L136.075 73.4272L181.742 121.154L24.2998 138.35L126.212 188.996L-2.6396e-06 230.125L144.996 259.938L71.8374 317.888L234.846 321.714L227.391 386.466L380.226 363.642L439.764 424L556 378.473L672.236 424L731.773 363.642L884.609 386.466L877.154 321.714L1040.16 317.888L967.004 259.938L1112 230.125L985.788 188.996L1087.7 138.35L930.258 121.154L967.004 73.4272L805.554 83.1387L778.931 19.1862L641.39 54.125L551.54 0Z" fill="#F1A800"/>
<path d="M551.54 0L461.69 54.125L324.148 19.1862L269.256 95.4665L136.075 73.4272L181.742 121.154L24.2998 138.35L126.212 188.996L-2.6396e-06 230.125L144.996 259.938L71.8374 317.888L234.846 321.714L227.391 386.466L380.226 363.642L439.764 424L556 378.473L672.236 424L731.773 363.642L884.609 386.466L877.154 321.714L1040.16 317.888L967.004 259.938L1112 230.125L985.788 188.996L1087.7 138.35L930.258 121.154L967.004 73.4272L805.554 83.1387L778.931 19.1862L641.39 54.125L551.54 0Z" fill="url(#paint0_radial_17_7)" fill-opacity="0.7"/>
<path d="M551.54 0L461.69 54.125L324.148 19.1862L269.256 95.4665L136.075 73.4272L181.742 121.154L24.2998 138.35L126.212 188.996L-2.6396e-06 230.125L144.996 259.938L71.8374 317.888L234.846 321.714L227.391 386.466L380.226 363.642L439.764 424L556 378.473L672.236 424L731.773 363.642L884.609 386.466L877.154 321.714L1040.16 317.888L967.004 259.938L1112 230.125L985.788 188.996L1087.7 138.35L930.258 121.154L967.004 73.4272L805.554 83.1387L778.931 19.1862L641.39 54.125L551.54 0Z" fill="url(#paint1_linear_17_7)" fill-opacity="0.5"/>
<path d="M348.809 105H344.688L341.836 96.8945H329.258L326.406 105H322.48L333.066 75.918H338.223L348.809 105ZM340.645 93.5742L335.547 79.2969L330.43 93.5742H340.645ZM379.121 105H375.254V79.9414L367.168 96.9922H364.863L356.836 79.9414V105H353.223V75.918H358.496L366.25 92.1094L373.75 75.918H379.121V105ZM406.094 105H386.934V75.918H406.094V79.3555H390.801V87.3242H406.094V90.7617H390.801V101.562H406.094V105ZM436.309 105H431.289L421.562 93.4375H416.113V105H412.246V75.918H420.391C422.148 75.918 423.613 76.0352 424.785 76.2695C425.957 76.4909 427.012 76.8945 427.949 77.4805C429.004 78.1445 429.824 78.9844 430.41 80C431.009 81.0026 431.309 82.2786 431.309 83.8281C431.309 85.9245 430.781 87.6823 429.727 89.1016C428.672 90.5078 427.22 91.569 425.371 92.2852L436.309 105ZM427.266 84.1016C427.266 83.2682 427.116 82.5326 426.816 81.8945C426.53 81.2435 426.048 80.6966 425.371 80.2539C424.811 79.8763 424.147 79.6159 423.379 79.4727C422.611 79.3164 421.706 79.2383 420.664 79.2383H416.113V90.2148H420.02C421.243 90.2148 422.311 90.1107 423.223 89.9023C424.134 89.681 424.909 89.2773 425.547 88.6914C426.133 88.1445 426.562 87.5195 426.836 86.8164C427.122 86.1003 427.266 85.1953 427.266 84.1016ZM450.312 105H438.828V102.031H442.637V78.8867H438.828V75.918H450.312V78.8867H446.504V102.031H450.312V105ZM479.355 102.891C478.639 103.203 477.988 103.496 477.402 103.77C476.829 104.043 476.074 104.329 475.137 104.629C474.342 104.876 473.477 105.085 472.539 105.254C471.615 105.436 470.592 105.527 469.473 105.527C467.363 105.527 465.443 105.234 463.711 104.648C461.992 104.049 460.495 103.118 459.219 101.855C457.969 100.618 456.992 99.0495 456.289 97.1484C455.586 95.2344 455.234 93.0143 455.234 90.4883C455.234 88.0924 455.573 85.9505 456.25 84.0625C456.927 82.1745 457.904 80.5794 459.18 79.2773C460.417 78.0143 461.908 77.0508 463.652 76.3867C465.41 75.7227 467.357 75.3906 469.492 75.3906C471.055 75.3906 472.611 75.5794 474.16 75.957C475.723 76.3346 477.454 76.9987 479.355 77.9492V82.5391H479.062C477.461 81.1979 475.872 80.2214 474.297 79.6094C472.721 78.9974 471.035 78.6914 469.238 78.6914C467.767 78.6914 466.439 78.9323 465.254 79.4141C464.082 79.8828 463.034 80.6185 462.109 81.6211C461.211 82.5977 460.508 83.8346 460 85.332C459.505 86.8164 459.258 88.5352 459.258 90.4883C459.258 92.5326 459.531 94.2904 460.078 95.7617C460.638 97.2331 461.354 98.431 462.227 99.3555C463.138 100.319 464.199 101.035 465.41 101.504C466.634 101.96 467.923 102.188 469.277 102.188C471.139 102.188 472.884 101.868 474.512 101.23C476.139 100.592 477.663 99.6354 479.082 98.3594H479.355V102.891ZM507.754 105H503.633L500.781 96.8945H488.203L485.352 105H481.426L492.012 75.918H497.168L507.754 105ZM499.59 93.5742L494.492 79.2969L489.375 93.5742H499.59ZM517.031 74.6094L511.738 85.5273H509.043L512.266 74.6094H517.031ZM541.699 96.6992C541.699 97.832 541.432 98.9518 540.898 100.059C540.378 101.165 539.642 102.103 538.691 102.871C537.65 103.704 536.432 104.355 535.039 104.824C533.659 105.293 531.992 105.527 530.039 105.527C527.943 105.527 526.055 105.332 524.375 104.941C522.708 104.551 521.009 103.971 519.277 103.203V98.3594H519.551C521.022 99.5833 522.721 100.527 524.648 101.191C526.576 101.855 528.385 102.188 530.078 102.188C532.474 102.188 534.336 101.738 535.664 100.84C537.005 99.9414 537.676 98.7435 537.676 97.2461C537.676 95.957 537.357 95.0065 536.719 94.3945C536.094 93.7826 535.137 93.3073 533.848 92.9688C532.871 92.7083 531.81 92.4935 530.664 92.3242C529.531 92.1549 528.327 91.9401 527.051 91.6797C524.473 91.1328 522.559 90.2018 521.309 88.8867C520.072 87.5586 519.453 85.8333 519.453 83.7109C519.453 81.276 520.482 79.2839 522.539 77.7344C524.596 76.1719 527.207 75.3906 530.371 75.3906C532.415 75.3906 534.29 75.5859 535.996 75.9766C537.702 76.3672 539.212 76.849 540.527 77.4219V81.9922H540.254C539.147 81.0547 537.689 80.2799 535.879 79.668C534.082 79.043 532.24 78.7305 530.352 78.7305C528.281 78.7305 526.615 79.1602 525.352 80.0195C524.102 80.8789 523.477 81.9857 523.477 83.3398C523.477 84.5508 523.789 85.5013 524.414 86.1914C525.039 86.8815 526.139 87.4089 527.715 87.7734C528.548 87.9557 529.733 88.1771 531.27 88.4375C532.806 88.6979 534.108 88.9648 535.176 89.2383C537.337 89.8112 538.965 90.6771 540.059 91.8359C541.152 92.9948 541.699 94.6159 541.699 96.6992ZM580.547 79.3555H565.84V87.5586H578.477V90.9961H565.84V105H561.973V75.918H580.547V79.3555ZM605.957 105H601.836L598.984 96.8945H586.406L583.555 105H579.629L590.215 75.918H595.371L605.957 105ZM597.793 93.5742L592.695 79.2969L587.578 93.5742H597.793ZM632.129 75.918L621.543 105H616.387L605.801 75.918H609.941L619.062 101.504L628.184 75.918H632.129ZM658.223 79.2578C659.408 80.5599 660.312 82.1549 660.938 84.043C661.576 85.931 661.895 88.0729 661.895 90.4688C661.895 92.8646 661.569 95.013 660.918 96.9141C660.28 98.8021 659.382 100.378 658.223 101.641C657.025 102.956 655.605 103.945 653.965 104.609C652.337 105.273 650.475 105.605 648.379 105.605C646.335 105.605 644.473 105.267 642.793 104.59C641.126 103.913 639.707 102.93 638.535 101.641C637.363 100.352 636.458 98.7695 635.82 96.8945C635.195 95.0195 634.883 92.8776 634.883 90.4688C634.883 88.099 635.195 85.9766 635.82 84.1016C636.445 82.2135 637.357 80.599 638.555 79.2578C639.701 77.9818 641.12 77.0052 642.812 76.3281C644.518 75.651 646.374 75.3125 648.379 75.3125C650.462 75.3125 652.331 75.6576 653.984 76.3477C655.651 77.0247 657.064 77.9948 658.223 79.2578ZM657.871 90.4688C657.871 86.6927 657.025 83.7826 655.332 81.7383C653.639 79.681 651.328 78.6523 648.398 78.6523C645.443 78.6523 643.118 79.681 641.426 81.7383C639.746 83.7826 638.906 86.6927 638.906 90.4688C638.906 94.2839 639.766 97.207 641.484 99.2383C643.203 101.257 645.508 102.266 648.398 102.266C651.289 102.266 653.587 101.257 655.293 99.2383C657.012 97.207 657.871 94.2839 657.871 90.4688ZM689.922 93.3203C689.922 95.4297 689.688 97.2721 689.219 98.8477C688.763 100.41 688.008 101.712 686.953 102.754C685.951 103.743 684.779 104.466 683.438 104.922C682.096 105.378 680.534 105.605 678.75 105.605C676.927 105.605 675.339 105.365 673.984 104.883C672.63 104.401 671.491 103.691 670.566 102.754C669.512 101.686 668.75 100.397 668.281 98.8867C667.826 97.3763 667.598 95.5208 667.598 93.3203V75.918H671.465V93.5156C671.465 95.0911 671.569 96.3346 671.777 97.2461C671.999 98.1576 672.363 98.9844 672.871 99.7266C673.444 100.573 674.219 101.211 675.195 101.641C676.185 102.07 677.37 102.285 678.75 102.285C680.143 102.285 681.328 102.077 682.305 101.66C683.281 101.23 684.062 100.586 684.648 99.7266C685.156 98.9844 685.514 98.138 685.723 97.1875C685.944 96.224 686.055 95.0326 686.055 93.6133V75.918H689.922V93.3203ZM721.387 105H716.367L706.641 93.4375H701.191V105H697.324V75.918H705.469C707.227 75.918 708.691 76.0352 709.863 76.2695C711.035 76.4909 712.09 76.8945 713.027 77.4805C714.082 78.1445 714.902 78.9844 715.488 80C716.087 81.0026 716.387 82.2786 716.387 83.8281C716.387 85.9245 715.859 87.6823 714.805 89.1016C713.75 90.5078 712.298 91.569 710.449 92.2852L721.387 105ZM712.344 84.1016C712.344 83.2682 712.194 82.5326 711.895 81.8945C711.608 81.2435 711.126 80.6966 710.449 80.2539C709.889 79.8763 709.225 79.6159 708.457 79.4727C707.689 79.3164 706.784 79.2383 705.742 79.2383H701.191V90.2148H705.098C706.322 90.2148 707.389 90.1107 708.301 89.9023C709.212 89.681 709.987 89.2773 710.625 88.6914C711.211 88.1445 711.641 87.5195 711.914 86.8164C712.201 86.1003 712.344 85.1953 712.344 84.1016ZM735.391 105H723.906V102.031H727.715V78.8867H723.906V75.918H735.391V78.8867H731.582V102.031H735.391V105ZM762.715 79.3555H752.324V105H748.457V79.3555H738.066V75.918H762.715V79.3555ZM785.781 105H766.621V75.918H785.781V79.3555H770.488V87.3242H785.781V90.7617H770.488V101.562H785.781V105Z" fill="black"/>
<path d="M269.711 191.377L259.662 235H253.861L258.812 213.555H237.045L232.094 235H226.293L236.342 191.377H242.143L238.188 208.633H259.955L263.91 191.377H269.711ZM286.82 235H269.535L270.502 230.752H276.215L284.359 195.625H278.646L279.613 191.377H296.898L295.932 195.625H290.219L282.074 230.752H287.787L286.82 235ZM336.713 196.328H321.156L312.221 235H306.361L315.297 196.328H299.74L300.854 191.377H337.826L336.713 196.328ZM348.695 235.791C345.863 235.791 343.168 235.498 340.609 234.912C338.051 234.307 335.541 233.389 333.08 232.158L334.486 225.508H334.896C336.771 227.285 339.066 228.652 341.781 229.609C344.516 230.547 347.152 231.016 349.691 231.016C353.852 231.016 357.035 230.195 359.242 228.555C361.469 226.895 362.582 224.785 362.582 222.227C362.582 220.879 362.182 219.756 361.381 218.857C360.6 217.959 359.447 217.295 357.924 216.865C356.654 216.514 355.141 216.182 353.383 215.869C351.645 215.537 349.984 215.186 348.402 214.814C345.336 214.131 342.963 212.959 341.283 211.299C339.604 209.639 338.764 207.578 338.764 205.117C338.764 200.957 340.521 197.5 344.037 194.746C347.572 191.973 352.133 190.586 357.719 190.586C360.766 190.586 363.529 190.908 366.01 191.553C368.51 192.178 370.658 192.92 372.455 193.779L371.137 200.02H370.727C369.34 198.75 367.357 197.656 364.779 196.738C362.221 195.82 359.525 195.361 356.693 195.361C353.139 195.361 350.297 196.143 348.168 197.705C346.059 199.268 345.004 201.25 345.004 203.652C345.004 204.941 345.385 206.074 346.146 207.051C346.908 208.027 348.266 208.76 350.219 209.248C351.469 209.541 353.129 209.902 355.199 210.332C357.27 210.742 359.008 211.133 360.414 211.504C363.188 212.266 365.287 213.398 366.713 214.902C368.158 216.406 368.881 218.301 368.881 220.586C368.881 222.5 368.412 224.404 367.475 226.299C366.537 228.193 365.229 229.814 363.549 231.162C361.752 232.607 359.643 233.74 357.221 234.561C354.818 235.381 351.977 235.791 348.695 235.791ZM443.676 207.607C443.676 211.182 443.07 214.697 441.859 218.154C440.648 221.611 438.891 224.629 436.586 227.207C434.066 230.02 431.127 232.178 427.768 233.682C424.408 235.166 420.541 235.908 416.166 235.908C410.209 235.908 405.541 234.375 402.162 231.309C398.803 228.223 397.123 223.984 397.123 218.594C397.123 214.805 397.768 211.201 399.057 207.783C400.346 204.365 402.191 201.357 404.594 198.76C406.938 196.24 409.838 194.229 413.295 192.725C416.752 191.221 420.521 190.469 424.604 190.469C430.58 190.469 435.248 192.012 438.607 195.098C441.986 198.184 443.676 202.354 443.676 207.607ZM427.592 222.49C428.92 220.752 429.955 218.74 430.697 216.455C431.459 214.15 431.84 211.504 431.84 208.516C431.84 205.391 431.088 202.949 429.584 201.191C428.1 199.414 425.971 198.525 423.197 198.525C421.381 198.525 419.643 198.945 417.982 199.785C416.342 200.605 414.828 201.865 413.441 203.564C412.094 205.186 411.01 207.207 410.189 209.629C409.369 212.031 408.959 214.736 408.959 217.744C408.959 221.084 409.721 223.604 411.244 225.303C412.787 227.002 414.916 227.852 417.631 227.852C419.506 227.852 421.312 227.393 423.051 226.475C424.789 225.537 426.303 224.209 427.592 222.49ZM486.156 235H476.576L463.773 204.795L456.801 235H446.43L456.508 191.377H469.105L480.062 216.631L485.863 191.377H496.234L486.156 235ZM538.92 191.377L537.016 199.639H516.654L514.838 207.432H533.734L531.801 215.723H512.904L510.355 226.738H530.717L528.842 235H497.23L507.309 191.377H538.92ZM604.545 235H593.295L599.887 206.465L587.904 224.746H580.141L576.273 205.264L569.418 235H558.754L568.832 191.377H581.752L586.527 213.262L601.352 191.377H614.623L604.545 235ZM639.262 235H613.715L615.502 227.266H622.621L629.125 199.111H622.006L623.793 191.377H649.34L647.553 199.111H640.434L633.93 227.266H641.049L639.262 235ZM679.896 235H648.402L658.48 191.377H669.789L661.674 226.562H681.859L679.896 235ZM718.158 235H686.664L696.742 191.377H708.051L699.936 226.562H720.121L718.158 235ZM748.539 235H722.992L724.779 227.266H731.898L738.402 199.111H731.283L733.07 191.377H758.617L756.83 199.111H749.711L743.207 227.266H750.326L748.539 235ZM805.961 207.607C805.961 211.182 805.355 214.697 804.145 218.154C802.934 221.611 801.176 224.629 798.871 227.207C796.352 230.02 793.412 232.178 790.053 233.682C786.693 235.166 782.826 235.908 778.451 235.908C772.494 235.908 767.826 234.375 764.447 231.309C761.088 228.223 759.408 223.984 759.408 218.594C759.408 214.805 760.053 211.201 761.342 207.783C762.631 204.365 764.477 201.357 766.879 198.76C769.223 196.24 772.123 194.229 775.58 192.725C779.037 191.221 782.807 190.469 786.889 190.469C792.865 190.469 797.533 192.012 800.893 195.098C804.271 198.184 805.961 202.354 805.961 207.607ZM789.877 222.49C791.205 220.752 792.24 218.74 792.982 216.455C793.744 214.15 794.125 211.504 794.125 208.516C794.125 205.391 793.373 202.949 791.869 201.191C790.385 199.414 788.256 198.525 785.482 198.525C783.666 198.525 781.928 198.945 780.268 199.785C778.627 200.605 777.113 201.865 775.727 203.564C774.379 205.186 773.295 207.207 772.475 209.629C771.654 212.031 771.244 214.736 771.244 217.744C771.244 221.084 772.006 223.604 773.529 225.303C775.072 227.002 777.201 227.852 779.916 227.852C781.791 227.852 783.598 227.393 785.336 226.475C787.074 225.537 788.588 224.209 789.877 222.49ZM848.441 235H838.861L826.059 204.795L819.086 235H808.715L818.793 191.377H831.391L842.348 216.631L848.148 191.377H858.52L848.441 235Z" fill="black"/>
<path d="M392.085 164.659C389.725 164.659 387.479 164.415 385.347 163.927C383.215 163.422 381.123 162.657 379.072 161.632L380.244 156.09H380.586C382.148 157.571 384.061 158.71 386.323 159.508C388.602 160.289 390.799 160.68 392.915 160.68C396.382 160.68 399.035 159.996 400.874 158.629C402.729 157.245 403.657 155.488 403.657 153.355C403.657 152.232 403.324 151.297 402.656 150.548C402.005 149.799 401.045 149.246 399.775 148.888C398.717 148.595 397.456 148.318 395.991 148.058C394.543 147.781 393.159 147.488 391.841 147.179C389.285 146.609 387.308 145.632 385.908 144.249C384.508 142.866 383.809 141.148 383.809 139.098C383.809 135.631 385.273 132.75 388.203 130.455C391.149 128.144 394.95 126.988 399.604 126.988C402.144 126.988 404.447 127.257 406.514 127.794C408.597 128.315 410.387 128.933 411.885 129.649L410.786 134.85H410.444C409.289 133.792 407.637 132.88 405.488 132.115C403.356 131.35 401.11 130.968 398.75 130.968C395.788 130.968 393.42 131.619 391.646 132.921C389.888 134.223 389.009 135.875 389.009 137.877C389.009 138.951 389.326 139.895 389.961 140.709C390.596 141.523 391.727 142.133 393.354 142.54C394.396 142.784 395.78 143.085 397.505 143.443C399.23 143.785 400.679 144.111 401.851 144.42C404.162 145.055 405.911 145.999 407.1 147.252C408.304 148.505 408.906 150.084 408.906 151.988C408.906 153.583 408.516 155.17 407.734 156.749C406.953 158.328 405.863 159.679 404.463 160.802C402.965 162.006 401.208 162.95 399.189 163.634C397.188 164.317 394.819 164.659 392.085 164.659ZM442.769 164H437.861L436.641 153.771H420.967L415.01 164H409.907L431.538 127.647H437.935L442.769 164ZM436.104 149.815L433.833 131.871L423.286 149.815H436.104ZM470.845 164H447.822L456.221 127.647H461.104L453.657 159.874H471.797L470.845 164ZM508.003 127.647L507.051 131.773H487.935L485.591 142.027H504.707L503.755 146.129H484.639L481.465 159.874H500.581L499.629 164H475.679L484.053 127.647H508.003ZM519.868 164.659C517.508 164.659 515.262 164.415 513.13 163.927C510.998 163.422 508.906 162.657 506.855 161.632L508.027 156.09H508.369C509.932 157.571 511.844 158.71 514.106 159.508C516.385 160.289 518.582 160.68 520.698 160.68C524.165 160.68 526.818 159.996 528.657 158.629C530.513 157.245 531.44 155.488 531.44 153.355C531.44 152.232 531.107 151.297 530.439 150.548C529.788 149.799 528.828 149.246 527.559 148.888C526.501 148.595 525.239 148.318 523.774 148.058C522.326 147.781 520.942 147.488 519.624 147.179C517.069 146.609 515.091 145.632 513.691 144.249C512.292 142.866 511.592 141.148 511.592 139.098C511.592 135.631 513.057 132.75 515.986 130.455C518.932 128.144 522.733 126.988 527.388 126.988C529.927 126.988 532.23 127.257 534.297 127.794C536.38 128.315 538.171 128.933 539.668 129.649L538.569 134.85H538.228C537.072 133.792 535.42 132.88 533.271 132.115C531.139 131.35 528.893 130.968 526.533 130.968C523.571 130.968 521.203 131.619 519.429 132.921C517.671 134.223 516.792 135.875 516.792 137.877C516.792 138.951 517.109 139.895 517.744 140.709C518.379 141.523 519.51 142.133 521.138 142.54C522.179 142.784 523.563 143.085 525.288 143.443C527.013 143.785 528.462 144.111 529.634 144.42C531.945 145.055 533.695 145.999 534.883 147.252C536.087 148.505 536.689 150.084 536.689 151.988C536.689 153.583 536.299 155.17 535.518 156.749C534.736 158.328 533.646 159.679 532.246 160.802C530.749 162.006 528.991 162.95 526.973 163.634C524.971 164.317 522.603 164.659 519.868 164.659ZM558.76 150.304H543.525L544.551 145.885H559.785L558.76 150.304ZM591.572 126.012L581.807 139.659H578.438L585.615 126.012H591.572ZM581.709 126.012L571.943 139.659H568.574L575.752 126.012H581.709ZM602.729 154.552C601.981 157.758 600.451 160.224 598.14 161.949C595.828 163.658 593.029 164.513 589.741 164.513C588.96 164.513 587.935 164.439 586.665 164.293C585.396 164.163 584.346 164 583.516 163.805L584.541 159.459H584.81C585.444 159.687 586.217 159.923 587.129 160.167C588.04 160.411 589.009 160.533 590.034 160.533C591.515 160.533 592.744 160.346 593.721 159.972C594.697 159.597 595.462 159.076 596.016 158.409C596.602 157.709 597.065 156.871 597.407 155.895C597.749 154.918 598.042 153.86 598.286 152.721L603.169 131.334H595.259L596.113 127.647H608.906L602.729 154.552ZM642.231 127.647L641.279 131.773H622.163L619.819 142.027H638.936L637.983 146.129H618.867L615.693 159.874H634.81L633.857 164H609.907L618.281 127.647H642.231ZM666.499 136.681C666.499 135.818 666.369 135.094 666.108 134.508C665.848 133.906 665.449 133.393 664.912 132.97C664.294 132.465 663.537 132.115 662.642 131.92C661.746 131.725 660.648 131.627 659.346 131.627H653.877L650.63 145.641H655.757C657.352 145.641 658.735 145.494 659.907 145.201C661.079 144.908 662.145 144.396 663.105 143.663C664.18 142.849 665.01 141.832 665.596 140.611C666.198 139.374 666.499 138.064 666.499 136.681ZM671.919 164H666.23L656.66 149.474H649.751L646.406 164H641.523L649.897 127.647H659.81C662.023 127.647 663.822 127.794 665.205 128.087C666.589 128.364 667.793 128.876 668.818 129.625C669.73 130.292 670.446 131.098 670.967 132.042C671.488 132.986 671.748 134.166 671.748 135.582C671.748 138.609 670.796 141.271 668.892 143.565C667.004 145.844 664.521 147.431 661.445 148.326L671.919 164ZM705.952 164H700.239L689.033 147.765L684.053 151.988L681.294 164H676.411L684.81 127.647H689.692L685.298 146.52L706.66 127.647H712.812L692.866 145.055L705.952 164ZM738.35 126.012L728.584 139.659H725.215L732.393 126.012H738.35ZM728.486 126.012L718.721 139.659H715.352L722.529 126.012H728.486Z" fill="black"/>
<path d="M305.623 295.624C305.623 297.04 305.289 298.44 304.622 299.823C303.971 301.207 303.051 302.379 301.863 303.339C300.561 304.381 299.039 305.194 297.298 305.78C295.573 306.366 293.489 306.659 291.048 306.659C288.427 306.659 286.067 306.415 283.968 305.927C281.884 305.438 279.76 304.714 277.596 303.754V297.699H277.938C279.777 299.229 281.901 300.409 284.31 301.239C286.718 302.069 288.981 302.484 291.097 302.484C294.091 302.484 296.419 301.923 298.079 300.8C299.756 299.677 300.594 298.179 300.594 296.308C300.594 294.696 300.195 293.508 299.397 292.743C298.616 291.978 297.42 291.384 295.809 290.961C294.588 290.635 293.261 290.367 291.829 290.155C290.413 289.944 288.908 289.675 287.312 289.35C284.09 288.666 281.697 287.502 280.135 285.858C278.589 284.198 277.815 282.042 277.815 279.389C277.815 276.345 279.101 273.855 281.673 271.918C284.244 269.965 287.508 268.988 291.463 268.988C294.018 268.988 296.362 269.232 298.494 269.721C300.626 270.209 302.514 270.811 304.158 271.527V277.24H303.816C302.433 276.068 300.61 275.1 298.348 274.335C296.102 273.554 293.799 273.163 291.438 273.163C288.851 273.163 286.767 273.7 285.188 274.774C283.626 275.849 282.845 277.232 282.845 278.925C282.845 280.438 283.235 281.627 284.017 282.489C284.798 283.352 286.173 284.011 288.143 284.467C289.184 284.695 290.665 284.971 292.586 285.297C294.507 285.622 296.134 285.956 297.469 286.298C300.171 287.014 302.205 288.096 303.572 289.545C304.939 290.993 305.623 293.02 305.623 295.624ZM345.76 306H340.926V274.677L330.818 295.99H327.938L317.903 274.677V306H313.387V269.647H319.979L329.671 289.887L339.046 269.647H345.76V306ZM384.188 306H379.036L375.472 295.868H359.749L356.185 306H351.277L364.51 269.647H370.955L384.188 306ZM373.982 291.718L367.61 273.871L361.214 291.718H373.982ZM417.781 303.363C416.886 303.754 416.072 304.12 415.34 304.462C414.624 304.804 413.68 305.162 412.508 305.536C411.515 305.845 410.433 306.106 409.261 306.317C408.105 306.545 406.827 306.659 405.428 306.659C402.791 306.659 400.39 306.293 398.226 305.561C396.077 304.812 394.205 303.648 392.61 302.069C391.048 300.523 389.827 298.562 388.948 296.186C388.069 293.793 387.63 291.018 387.63 287.86C387.63 284.866 388.053 282.188 388.899 279.828C389.746 277.468 390.966 275.474 392.562 273.847C394.108 272.268 395.971 271.063 398.152 270.233C400.35 269.403 402.783 268.988 405.452 268.988C407.405 268.988 409.35 269.224 411.287 269.696C413.24 270.168 415.405 270.998 417.781 272.187V277.924H417.415C415.413 276.247 413.427 275.027 411.458 274.262C409.489 273.497 407.381 273.114 405.135 273.114C403.296 273.114 401.635 273.415 400.154 274.018C398.689 274.604 397.379 275.523 396.224 276.776C395.101 277.997 394.222 279.543 393.587 281.415C392.968 283.271 392.659 285.419 392.659 287.86C392.659 290.416 393.001 292.613 393.685 294.452C394.384 296.291 395.28 297.789 396.37 298.944C397.509 300.149 398.836 301.044 400.35 301.63C401.88 302.2 403.491 302.484 405.184 302.484C407.511 302.484 409.692 302.086 411.727 301.288C413.761 300.491 415.665 299.294 417.439 297.699H417.781V303.363ZM453.841 306H447.566L433.187 289.813L429.573 293.671V306H424.739V269.647H429.573V288.617L447.225 269.647H453.084L436.849 286.737L453.841 306ZM509.236 306H504.402V274.677L494.295 295.99H491.414L481.38 274.677V306H476.863V269.647H483.455L493.147 289.887L502.522 269.647H509.236V306ZM547.664 306H542.513L538.948 295.868H523.226L519.661 306H514.754L527.986 269.647H534.432L547.664 306ZM537.459 291.718L531.087 273.871L524.69 291.718H537.459ZM583.504 303.314C581.518 304.226 579.345 305.023 576.985 305.707C574.642 306.374 572.371 306.708 570.174 306.708C567.342 306.708 564.746 306.317 562.386 305.536C560.026 304.755 558.016 303.583 556.355 302.021C554.679 300.442 553.385 298.472 552.474 296.112C551.562 293.736 551.106 290.961 551.106 287.787C551.106 281.977 552.799 277.395 556.185 274.042C559.586 270.673 564.249 268.988 570.174 268.988C572.241 268.988 574.349 269.241 576.497 269.745C578.662 270.233 580.989 271.072 583.479 272.26V277.997H583.04C582.535 277.606 581.803 277.094 580.843 276.459C579.882 275.824 578.938 275.295 578.011 274.872C576.888 274.368 575.61 273.952 574.178 273.627C572.762 273.285 571.15 273.114 569.344 273.114C565.275 273.114 562.052 274.424 559.676 277.045C557.316 279.649 556.136 283.181 556.136 287.641C556.136 292.344 557.373 296.007 559.847 298.627C562.321 301.231 565.69 302.533 569.954 302.533C571.517 302.533 573.071 302.379 574.617 302.069C576.18 301.76 577.547 301.361 578.719 300.873V291.962H568.978V287.714H583.504V303.314ZM604.769 306H590.413V302.289H595.174V273.358H590.413V269.647H604.769V273.358H600.008V302.289H604.769V306ZM641.072 303.363C640.177 303.754 639.363 304.12 638.631 304.462C637.915 304.804 636.971 305.162 635.799 305.536C634.806 305.845 633.724 306.106 632.552 306.317C631.396 306.545 630.118 306.659 628.719 306.659C626.082 306.659 623.681 306.293 621.517 305.561C619.368 304.812 617.496 303.648 615.901 302.069C614.339 300.523 613.118 298.562 612.239 296.186C611.36 293.793 610.921 291.018 610.921 287.86C610.921 284.866 611.344 282.188 612.19 279.828C613.037 277.468 614.257 275.474 615.853 273.847C617.399 272.268 619.262 271.063 621.443 270.233C623.641 269.403 626.074 268.988 628.743 268.988C630.696 268.988 632.641 269.224 634.578 269.696C636.531 270.168 638.696 270.998 641.072 272.187V277.924H640.706C638.704 276.247 636.718 275.027 634.749 274.262C632.78 273.497 630.672 273.114 628.426 273.114C626.587 273.114 624.926 273.415 623.445 274.018C621.98 274.604 620.67 275.523 619.515 276.776C618.392 277.997 617.513 279.543 616.878 281.415C616.259 283.271 615.95 285.419 615.95 287.86C615.95 290.416 616.292 292.613 616.976 294.452C617.675 296.291 618.571 297.789 619.661 298.944C620.8 300.149 622.127 301.044 623.641 301.63C625.171 302.2 626.782 302.484 628.475 302.484C630.802 302.484 632.983 302.086 635.018 301.288C637.052 300.491 638.956 299.294 640.73 297.699H641.072V303.363ZM674.324 295.624C674.324 297.04 673.991 298.44 673.323 299.823C672.672 301.207 671.753 302.379 670.564 303.339C669.262 304.381 667.741 305.194 665.999 305.78C664.274 306.366 662.19 306.659 659.749 306.659C657.129 306.659 654.769 306.415 652.669 305.927C650.586 305.438 648.462 304.714 646.297 303.754V297.699H646.639C648.478 299.229 650.602 300.409 653.011 301.239C655.42 302.069 657.682 302.484 659.798 302.484C662.793 302.484 665.12 301.923 666.78 300.8C668.457 299.677 669.295 298.179 669.295 296.308C669.295 294.696 668.896 293.508 668.099 292.743C667.317 291.978 666.121 291.384 664.51 290.961C663.289 290.635 661.963 290.367 660.53 290.155C659.114 289.944 657.609 289.675 656.014 289.35C652.791 288.666 650.398 287.502 648.836 285.858C647.29 284.198 646.517 282.042 646.517 279.389C646.517 276.345 647.802 273.855 650.374 271.918C652.946 269.965 656.209 268.988 660.164 268.988C662.719 268.988 665.063 269.232 667.195 269.721C669.327 270.209 671.215 270.811 672.859 271.527V277.24H672.518C671.134 276.068 669.311 275.1 667.049 274.335C664.803 273.554 662.5 273.163 660.14 273.163C657.552 273.163 655.468 273.7 653.89 274.774C652.327 275.849 651.546 277.232 651.546 278.925C651.546 280.438 651.937 281.627 652.718 282.489C653.499 283.352 654.874 284.011 656.844 284.467C657.885 284.695 659.367 284.971 661.287 285.297C663.208 285.622 664.835 285.956 666.17 286.298C668.872 287.014 670.906 288.096 672.273 289.545C673.641 290.993 674.324 293.02 674.324 295.624ZM726.082 295.624C726.082 297.04 725.748 298.44 725.081 299.823C724.43 301.207 723.51 302.379 722.322 303.339C721.02 304.381 719.498 305.194 717.757 305.78C716.032 306.366 713.948 306.659 711.507 306.659C708.886 306.659 706.526 306.415 704.427 305.927C702.343 305.438 700.219 304.714 698.055 303.754V297.699H698.396C700.236 299.229 702.36 300.409 704.769 301.239C707.177 302.069 709.44 302.484 711.556 302.484C714.55 302.484 716.878 301.923 718.538 300.8C720.215 299.677 721.053 298.179 721.053 296.308C721.053 294.696 720.654 293.508 719.856 292.743C719.075 291.978 717.879 291.384 716.268 290.961C715.047 290.635 713.72 290.367 712.288 290.155C710.872 289.944 709.367 289.675 707.771 289.35C704.549 288.666 702.156 287.502 700.594 285.858C699.048 284.198 698.274 282.042 698.274 279.389C698.274 276.345 699.56 273.855 702.132 271.918C704.703 269.965 707.967 268.988 711.922 268.988C714.477 268.988 716.821 269.232 718.953 269.721C721.085 270.209 722.973 270.811 724.617 271.527V277.24H724.275C722.892 276.068 721.069 275.1 718.807 274.335C716.561 273.554 714.257 273.163 711.897 273.163C709.31 273.163 707.226 273.7 705.647 274.774C704.085 275.849 703.304 277.232 703.304 278.925C703.304 280.438 703.694 281.627 704.476 282.489C705.257 283.352 706.632 284.011 708.602 284.467C709.643 284.695 711.124 284.971 713.045 285.297C714.965 285.622 716.593 285.956 717.928 286.298C720.63 287.014 722.664 288.096 724.031 289.545C725.398 290.993 726.082 293.02 726.082 295.624ZM760.945 273.822C762.426 275.45 763.558 277.444 764.339 279.804C765.136 282.164 765.535 284.841 765.535 287.836C765.535 290.831 765.128 293.516 764.314 295.893C763.517 298.253 762.394 300.222 760.945 301.801C759.448 303.445 757.674 304.682 755.623 305.512C753.589 306.342 751.261 306.757 748.641 306.757C746.085 306.757 743.758 306.334 741.658 305.487C739.575 304.641 737.801 303.412 736.336 301.801C734.871 300.189 733.74 298.212 732.942 295.868C732.161 293.524 731.771 290.847 731.771 287.836C731.771 284.874 732.161 282.221 732.942 279.877C733.724 277.517 734.863 275.499 736.36 273.822C737.793 272.227 739.567 271.007 741.683 270.16C743.815 269.314 746.134 268.891 748.641 268.891C751.245 268.891 753.58 269.322 755.647 270.185C757.731 271.031 759.497 272.243 760.945 273.822ZM760.506 287.836C760.506 283.116 759.448 279.478 757.332 276.923C755.216 274.351 752.327 273.065 748.665 273.065C744.97 273.065 742.065 274.351 739.949 276.923C737.85 279.478 736.8 283.116 736.8 287.836C736.8 292.605 737.874 296.259 740.022 298.798C742.171 301.321 745.052 302.582 748.665 302.582C752.278 302.582 755.151 301.321 757.283 298.798C759.432 296.259 760.506 292.605 760.506 287.836ZM796.199 306H773.201V269.647H778.035V301.703H796.199V306ZM831.746 287.86C831.746 291.164 831.022 294.159 829.573 296.845C828.141 299.53 826.229 301.614 823.836 303.095C822.176 304.12 820.32 304.861 818.27 305.316C816.235 305.772 813.549 306 810.213 306H801.033V269.647H810.115C813.663 269.647 816.479 269.908 818.562 270.429C820.662 270.933 822.436 271.633 823.885 272.528C826.359 274.075 828.287 276.133 829.671 278.705C831.054 281.277 831.746 284.328 831.746 287.86ZM826.692 287.787C826.692 284.939 826.196 282.538 825.203 280.585C824.21 278.632 822.729 277.094 820.76 275.971C819.327 275.157 817.806 274.595 816.194 274.286C814.583 273.961 812.654 273.798 810.408 273.798H805.867V301.85H810.408C812.736 301.85 814.762 301.679 816.487 301.337C818.229 300.995 819.824 300.36 821.272 299.433C823.079 298.277 824.43 296.755 825.325 294.867C826.237 292.979 826.692 290.619 826.692 287.787Z" fill="black"/>
<path d="M642.795 340.152H635.178L635.691 337.942H643.308L642.795 340.152ZM669.126 347H666.27L660.667 338.882L658.176 340.994L656.797 347H654.355L658.555 328.824H660.996L658.799 338.26L669.48 328.824H672.556L662.583 337.527L669.126 347ZM678.147 328.702L677.598 331.082H675.01L675.559 328.702H678.147ZM676.926 333.365L673.777 347H671.482L674.631 333.365H676.926ZM688.547 333.365L688.132 335.22H683.396L681.931 341.507C681.85 341.824 681.777 342.19 681.711 342.605C681.646 343.012 681.614 343.338 681.614 343.582C681.614 344.176 681.764 344.62 682.065 344.913C682.367 345.197 682.924 345.34 683.738 345.34C684.071 345.34 684.466 345.283 684.922 345.169C685.386 345.055 685.699 344.965 685.862 344.9H685.984L685.557 346.878C685.101 346.992 684.613 347.085 684.092 347.159C683.579 347.232 683.123 347.269 682.725 347.269C681.602 347.269 680.731 347.024 680.112 346.536C679.502 346.04 679.197 345.258 679.197 344.192C679.197 343.932 679.213 343.676 679.246 343.423C679.286 343.163 679.339 342.87 679.404 342.544L681.101 335.22H679.551L679.966 333.365H681.516L682.432 329.446H684.727L683.811 333.365H688.547ZM694.089 347.305C693.227 347.305 692.462 347.203 691.794 347C691.135 346.797 690.557 346.475 690.061 346.036C689.581 345.612 689.211 345.079 688.95 344.437C688.69 343.794 688.56 343.045 688.56 342.19C688.56 340.913 688.759 339.721 689.158 338.614C689.556 337.507 690.122 336.535 690.854 335.696C691.562 334.882 692.437 334.24 693.479 333.768C694.521 333.287 695.644 333.047 696.848 333.047C697.646 333.047 698.394 333.157 699.094 333.377C699.802 333.597 700.425 333.857 700.962 334.158L700.461 336.636H700.327C700.164 336.49 699.961 336.319 699.717 336.124C699.473 335.928 699.184 335.745 698.85 335.574C698.516 335.395 698.146 335.249 697.739 335.135C697.332 335.013 696.868 334.952 696.348 334.952C694.769 334.952 693.479 335.619 692.478 336.954C691.485 338.288 690.989 339.912 690.989 341.824C690.989 342.972 691.282 343.855 691.868 344.473C692.462 345.092 693.304 345.401 694.395 345.401C694.907 345.401 695.42 345.328 695.933 345.181C696.445 345.035 696.881 344.876 697.239 344.705C697.638 344.518 698.008 344.319 698.35 344.107C698.691 343.895 698.94 343.737 699.094 343.631H699.229L698.74 346.133C698.032 346.451 697.284 346.727 696.494 346.963C695.705 347.191 694.903 347.305 694.089 347.305ZM714.878 336.478C714.878 336.673 714.858 336.937 714.817 337.271C714.784 337.605 714.736 337.898 714.67 338.15L712.62 347H710.325L712.119 339.236C712.217 338.805 712.29 338.431 712.339 338.113C712.396 337.788 712.424 337.466 712.424 337.149C712.424 336.465 712.253 335.953 711.912 335.611C711.578 335.261 710.972 335.086 710.093 335.086C709.474 335.086 708.791 335.257 708.042 335.599C707.301 335.94 706.577 336.347 705.869 336.819L703.513 347H701.218L705.601 328.006H707.896L706.309 334.878C707.179 334.268 707.993 333.8 708.75 333.475C709.515 333.149 710.3 332.986 711.106 332.986C712.294 332.986 713.218 333.287 713.877 333.89C714.544 334.484 714.878 335.346 714.878 336.478ZM728.074 338.699C728.114 338.463 728.143 338.264 728.159 338.101C728.175 337.938 728.184 337.759 728.184 337.564C728.184 336.693 727.944 336.014 727.463 335.525C726.991 335.037 726.23 334.793 725.181 334.793C724.025 334.793 723 335.151 722.104 335.867C721.209 336.583 720.603 337.527 720.286 338.699H728.074ZM723.484 347.317C721.596 347.317 720.115 346.874 719.041 345.987C717.966 345.1 717.429 343.802 717.429 342.093C717.429 339.594 718.219 337.454 719.797 335.672C721.376 333.882 723.329 332.986 725.657 332.986C727.203 332.986 728.387 333.373 729.209 334.146C730.031 334.911 730.442 335.989 730.442 337.381C730.442 337.625 730.405 338.012 730.332 338.541C730.267 339.069 730.157 339.684 730.002 340.384H719.956C719.907 340.62 719.871 340.852 719.846 341.08C719.83 341.307 719.822 341.519 719.822 341.714C719.822 342.862 720.172 343.765 720.872 344.424C721.571 345.075 722.564 345.401 723.85 345.401C724.745 345.401 725.665 345.226 726.609 344.876C727.561 344.526 728.359 344.131 729.001 343.692H729.136L728.635 346.17C728.228 346.316 727.862 346.451 727.537 346.573C727.211 346.695 726.796 346.817 726.292 346.939C725.787 347.061 725.339 347.155 724.949 347.22C724.558 347.285 724.07 347.317 723.484 347.317ZM745.591 336.478C745.591 336.673 745.57 336.937 745.53 337.271C745.497 337.605 745.448 337.898 745.383 338.15L743.333 347H741.038L742.832 339.236C742.93 338.805 743.003 338.431 743.052 338.113C743.109 337.788 743.137 337.466 743.137 337.149C743.137 336.465 742.966 335.953 742.625 335.611C742.291 335.261 741.685 335.086 740.806 335.086C740.187 335.086 739.504 335.257 738.755 335.599C738.014 335.94 737.29 336.347 736.582 336.819L734.226 347H731.931L735.081 333.365H737.375L737.021 334.878C737.892 334.268 738.706 333.8 739.463 333.475C740.228 333.149 741.013 332.986 741.819 332.986C743.007 332.986 743.931 333.287 744.59 333.89C745.257 334.484 745.591 335.346 745.591 336.478ZM781.956 328.824L773.228 347H770.432L769.895 331.949L762.839 347H760.154L759.409 328.824H761.863L762.351 343.912L769.468 328.824H771.921L772.41 344.058L779.575 328.824H781.956ZM792.332 338.699C792.372 338.463 792.401 338.264 792.417 338.101C792.433 337.938 792.441 337.759 792.441 337.564C792.441 336.693 792.201 336.014 791.721 335.525C791.249 335.037 790.488 334.793 789.438 334.793C788.283 334.793 787.257 335.151 786.362 335.867C785.467 336.583 784.861 337.527 784.543 338.699H792.332ZM787.742 347.317C785.854 347.317 784.373 346.874 783.298 345.987C782.224 345.1 781.687 343.802 781.687 342.093C781.687 339.594 782.476 337.454 784.055 335.672C785.634 333.882 787.587 332.986 789.915 332.986C791.461 332.986 792.645 333.373 793.467 334.146C794.289 334.911 794.7 335.989 794.7 337.381C794.7 337.625 794.663 338.012 794.59 338.541C794.525 339.069 794.415 339.684 794.26 340.384H784.214C784.165 340.62 784.128 340.852 784.104 341.08C784.088 341.307 784.08 341.519 784.08 341.714C784.08 342.862 784.43 343.765 785.129 344.424C785.829 345.075 786.822 345.401 788.108 345.401C789.003 345.401 789.923 345.226 790.867 344.876C791.819 344.526 792.616 344.131 793.259 343.692H793.394L792.893 346.17C792.486 346.316 792.12 346.451 791.794 346.573C791.469 346.695 791.054 346.817 790.549 346.939C790.045 347.061 789.597 347.155 789.207 347.22C788.816 347.285 788.328 347.317 787.742 347.317ZM807.224 338.699C807.265 338.463 807.293 338.264 807.31 338.101C807.326 337.938 807.334 337.759 807.334 337.564C807.334 336.693 807.094 336.014 806.614 335.525C806.142 335.037 805.381 334.793 804.331 334.793C803.175 334.793 802.15 335.151 801.255 335.867C800.36 336.583 799.753 337.527 799.436 338.699H807.224ZM802.634 347.317C800.746 347.317 799.265 346.874 798.191 345.987C797.117 345.1 796.58 343.802 796.58 342.093C796.58 339.594 797.369 337.454 798.948 335.672C800.527 333.882 802.48 332.986 804.807 332.986C806.353 332.986 807.537 333.373 808.359 334.146C809.181 334.911 809.592 335.989 809.592 337.381C809.592 337.625 809.556 338.012 809.482 338.541C809.417 339.069 809.307 339.684 809.153 340.384H799.106C799.058 340.62 799.021 340.852 798.997 341.08C798.98 341.307 798.972 341.519 798.972 341.714C798.972 342.862 799.322 343.765 800.022 344.424C800.722 345.075 801.715 345.401 803 345.401C803.896 345.401 804.815 345.226 805.759 344.876C806.711 344.526 807.509 344.131 808.152 343.692H808.286L807.786 346.17C807.379 346.316 807.013 346.451 806.687 346.573C806.361 346.695 805.946 346.817 805.442 346.939C804.937 347.061 804.49 347.155 804.099 347.22C803.708 347.285 803.22 347.317 802.634 347.317ZM823.606 347H820.823L816.465 341.006L814.487 342.605L813.486 347H811.167L815.562 328.006H817.881L815.049 340.213L823.044 333.365H826.06L818.284 339.81L823.606 347ZM832.468 328.006L828.074 347H825.779L830.173 328.006H832.468ZM835.081 352.029H832.554L836.521 346.207L834.055 333.365H836.411L838.34 343.509L844.858 333.365H847.361L835.081 352.029Z" fill="black"/>
<defs>
<radialGradient id="paint0_radial_17_7" cx="0" cy="0" r="1" gradientUnits="userSpaceOnUse" gradientTransform="translate(556 206.927) rotate(-90) scale(221.922 559.063)">
<stop stop-color="white" stop-opacity="0"/>
<stop offset="1" stop-color="white" stop-opacity="0.4"/>
</radialGradient>
<linearGradient id="paint1_linear_17_7" x1="556" y1="428.849" x2="556" y2="-14.9948" gradientUnits="userSpaceOnUse">
<stop offset="0.586" stop-color="white" stop-opacity="0"/>
<stop offset="1" stop-color="white" stop-opacity="0.62"/>
</linearGradient>
</defs>
</svg>
