<svg width="1031" height="385" viewBox="0 0 1031 385" fill="none" xmlns="http://www.w3.org/2000/svg">
<path d="M511.365 0.41879L428.059 49.4584L300.537 17.8023L249.643 86.9156L126.163 66.9471L168.504 110.19L22.5298 125.77L117.018 171.657L2.72059e-05 208.922L134.434 235.934L66.6047 288.44L217.739 291.906L210.828 350.574L352.53 329.895L407.731 384.581L515.5 343.332L623.269 384.581L678.47 329.895L820.172 350.574L813.261 291.906L964.395 288.44L896.566 235.934L1031 208.922L913.981 171.657L1008.47 125.77L862.496 110.19L896.566 66.9471L746.876 75.746L722.192 17.8023L594.67 49.4584L511.365 0.41879Z" fill="#F1A800"/>
<path d="M511.365 0.41879L428.059 49.4584L300.537 17.8023L249.643 86.9156L126.163 66.9471L168.504 110.19L22.5298 125.77L117.018 171.657L2.72059e-05 208.922L134.434 235.934L66.6047 288.44L217.739 291.906L210.828 350.574L352.53 329.895L407.731 384.581L515.5 343.332L623.269 384.581L678.47 329.895L820.172 350.574L813.261 291.906L964.395 288.44L896.566 235.934L1031 208.922L913.981 171.657L1008.47 125.77L862.496 110.19L896.566 66.9471L746.876 75.746L722.192 17.8023L594.67 49.4584L511.365 0.41879Z" fill="url(#paint0_radial_17_7)" fill-opacity="0.7"/>
<path d="M511.365 0.41879L428.059 49.4584L300.537 17.8023L249.643 86.9156L126.163 66.9471L168.504 110.19L22.5298 125.77L117.018 171.657L2.72059e-05 208.922L134.434 235.934L66.6047 288.44L217.739 291.906L210.828 350.574L352.53 329.895L407.731 384.581L515.5 343.332L623.269 384.581L678.47 329.895L820.172 350.574L813.261 291.906L964.395 288.44L896.566 235.934L1031 208.922L913.981 171.657L1008.47 125.77L862.496 110.19L896.566 66.9471L746.876 75.746L722.192 17.8023L594.67 49.4584L511.365 0.41879Z" fill="url(#paint1_linear_17_7)" fill-opacity="0.5"/>
<path d="M296.175 122.288H292.054L289.202 114.182H276.624L273.772 122.288H269.847L280.433 93.2059H285.589L296.175 122.288ZM288.011 110.862L282.913 96.5848L277.796 110.862H288.011ZM326.487 122.288H322.62V97.2294L314.534 114.28H312.23L304.202 97.2294V122.288H300.589V93.2059H305.862L313.616 109.397L321.116 93.2059H326.487V122.288ZM353.46 122.288H334.3V93.2059H353.46V96.6434H338.167V104.612H353.46V108.05H338.167V118.85H353.46V122.288ZM383.675 122.288H378.655L368.929 110.725H363.48V122.288H359.612V93.2059H367.757C369.515 93.2059 370.98 93.3231 372.151 93.5575C373.323 93.7788 374.378 94.1825 375.315 94.7684C376.37 95.4325 377.19 96.2723 377.776 97.288C378.375 98.2906 378.675 99.5666 378.675 101.116C378.675 103.212 378.147 104.97 377.093 106.39C376.038 107.796 374.586 108.857 372.737 109.573L383.675 122.288ZM374.632 101.39C374.632 100.556 374.482 99.8205 374.183 99.1825C373.896 98.5315 373.414 97.9846 372.737 97.5419C372.177 97.1643 371.513 96.9038 370.745 96.7606C369.977 96.6044 369.072 96.5262 368.03 96.5262H363.48V107.503H367.386C368.61 107.503 369.677 107.399 370.589 107.19C371.5 106.969 372.275 106.565 372.913 105.979C373.499 105.432 373.929 104.807 374.202 104.104C374.489 103.388 374.632 102.483 374.632 101.39ZM397.679 122.288H386.194V119.319H390.003V96.1747H386.194V93.2059H397.679V96.1747H393.87V119.319H397.679V122.288ZM426.722 120.179C426.006 120.491 425.355 120.784 424.769 121.057C424.196 121.331 423.44 121.617 422.503 121.917C421.709 122.164 420.843 122.373 419.905 122.542C418.981 122.724 417.959 122.815 416.839 122.815C414.73 122.815 412.809 122.522 411.077 121.936C409.358 121.337 407.861 120.406 406.585 119.143C405.335 117.906 404.358 116.337 403.655 114.436C402.952 112.522 402.601 110.302 402.601 107.776C402.601 105.38 402.939 103.238 403.616 101.35C404.293 99.4624 405.27 97.8674 406.546 96.5653C407.783 95.3023 409.274 94.3387 411.019 93.6747C412.776 93.0106 414.723 92.6786 416.858 92.6786C418.421 92.6786 419.977 92.8674 421.526 93.245C423.089 93.6226 424.821 94.2867 426.722 95.2372V99.827H426.429C424.827 98.4859 423.239 97.5093 421.663 96.8973C420.088 96.2854 418.401 95.9794 416.605 95.9794C415.133 95.9794 413.805 96.2203 412.62 96.702C411.448 97.1708 410.4 97.9065 409.476 98.9091C408.577 99.8856 407.874 101.123 407.366 102.62C406.871 104.104 406.624 105.823 406.624 107.776C406.624 109.821 406.897 111.578 407.444 113.05C408.004 114.521 408.72 115.719 409.593 116.643C410.504 117.607 411.565 118.323 412.776 118.792C414 119.248 415.289 119.475 416.644 119.475C418.506 119.475 420.25 119.156 421.878 118.518C423.506 117.88 425.029 116.923 426.448 115.647H426.722V120.179ZM455.12 122.288H450.999L448.147 114.182H435.569L432.718 122.288H428.792L439.378 93.2059H444.534L455.12 122.288ZM446.956 110.862L441.858 96.5848L436.741 110.862H446.956ZM464.397 91.8973L459.105 102.815H456.409L459.632 91.8973H464.397ZM489.065 113.987C489.065 115.12 488.799 116.24 488.265 117.347C487.744 118.453 487.008 119.391 486.058 120.159C485.016 120.992 483.799 121.643 482.405 122.112C481.025 122.581 479.358 122.815 477.405 122.815C475.309 122.815 473.421 122.62 471.741 122.229C470.075 121.839 468.375 121.259 466.644 120.491V115.647H466.917C468.388 116.871 470.088 117.815 472.015 118.479C473.942 119.143 475.752 119.475 477.444 119.475C479.84 119.475 481.702 119.026 483.03 118.128C484.371 117.229 485.042 116.031 485.042 114.534C485.042 113.245 484.723 112.294 484.085 111.682C483.46 111.071 482.503 110.595 481.214 110.257C480.237 109.996 479.176 109.781 478.03 109.612C476.897 109.443 475.693 109.228 474.417 108.968C471.839 108.421 469.925 107.49 468.675 106.175C467.438 104.847 466.819 103.121 466.819 100.999C466.819 98.564 467.848 96.5718 469.905 95.0223C471.963 93.4598 474.573 92.6786 477.737 92.6786C479.782 92.6786 481.657 92.8739 483.362 93.2645C485.068 93.6552 486.578 94.1369 487.894 94.7098V99.2802H487.62C486.513 98.3427 485.055 97.5679 483.245 96.9559C481.448 96.3309 479.606 96.0184 477.718 96.0184C475.647 96.0184 473.981 96.4481 472.718 97.3075C471.468 98.1669 470.843 99.2736 470.843 100.628C470.843 101.839 471.155 102.789 471.78 103.479C472.405 104.169 473.506 104.697 475.081 105.061C475.914 105.244 477.099 105.465 478.636 105.725C480.172 105.986 481.474 106.253 482.542 106.526C484.703 107.099 486.331 107.965 487.425 109.124C488.519 110.283 489.065 111.904 489.065 113.987ZM527.913 96.6434H513.206V104.847H525.843V108.284H513.206V122.288H509.339V93.2059H527.913V96.6434ZM553.323 122.288H549.202L546.351 114.182H533.772L530.921 122.288H526.995L537.581 93.2059H542.737L553.323 122.288ZM545.159 110.862L540.062 96.5848L534.944 110.862H545.159ZM579.495 93.2059L568.909 122.288H563.753L553.167 93.2059H557.308L566.429 118.792L575.55 93.2059H579.495ZM605.589 96.5458C606.774 97.8479 607.679 99.4429 608.304 101.331C608.942 103.219 609.261 105.361 609.261 107.757C609.261 110.153 608.935 112.301 608.284 114.202C607.646 116.09 606.748 117.666 605.589 118.929C604.391 120.244 602.972 121.233 601.331 121.897C599.703 122.561 597.842 122.893 595.745 122.893C593.701 122.893 591.839 122.555 590.159 121.878C588.493 121.201 587.073 120.218 585.901 118.929C584.73 117.64 583.825 116.057 583.187 114.182C582.562 112.307 582.249 110.166 582.249 107.757C582.249 105.387 582.562 103.265 583.187 101.39C583.812 99.5015 584.723 97.8869 585.921 96.5458C587.067 95.2697 588.486 94.2932 590.179 93.6161C591.884 92.939 593.74 92.6005 595.745 92.6005C597.828 92.6005 599.697 92.9455 601.351 93.6356C603.017 94.3127 604.43 95.2828 605.589 96.5458ZM605.237 107.757C605.237 103.981 604.391 101.071 602.698 99.0262C601.006 96.969 598.694 95.9403 595.765 95.9403C592.809 95.9403 590.485 96.969 588.792 99.0262C587.112 101.071 586.272 103.981 586.272 107.757C586.272 111.572 587.132 114.495 588.851 116.526C590.569 118.544 592.874 119.554 595.765 119.554C598.655 119.554 600.953 118.544 602.659 116.526C604.378 114.495 605.237 111.572 605.237 107.757ZM637.288 110.608C637.288 112.718 637.054 114.56 636.585 116.136C636.129 117.698 635.374 119 634.319 120.042C633.317 121.031 632.145 121.754 630.804 122.21C629.463 122.666 627.9 122.893 626.116 122.893C624.293 122.893 622.705 122.653 621.351 122.171C619.996 121.689 618.857 120.979 617.933 120.042C616.878 118.974 616.116 117.685 615.647 116.175C615.192 114.664 614.964 112.809 614.964 110.608V93.2059H618.831V110.804C618.831 112.379 618.935 113.623 619.144 114.534C619.365 115.446 619.73 116.272 620.237 117.015C620.81 117.861 621.585 118.499 622.562 118.929C623.551 119.358 624.736 119.573 626.116 119.573C627.509 119.573 628.694 119.365 629.671 118.948C630.647 118.518 631.429 117.874 632.015 117.015C632.522 116.272 632.881 115.426 633.089 114.475C633.31 113.512 633.421 112.321 633.421 110.901V93.2059H637.288V110.608ZM668.753 122.288H663.733L654.007 110.725H648.558V122.288H644.69V93.2059H652.835C654.593 93.2059 656.058 93.3231 657.23 93.5575C658.401 93.7788 659.456 94.1825 660.394 94.7684C661.448 95.4325 662.269 96.2723 662.855 97.288C663.453 98.2906 663.753 99.5666 663.753 101.116C663.753 103.212 663.226 104.97 662.171 106.39C661.116 107.796 659.664 108.857 657.815 109.573L668.753 122.288ZM659.71 101.39C659.71 100.556 659.56 99.8205 659.261 99.1825C658.974 98.5315 658.493 97.9846 657.815 97.5419C657.256 97.1643 656.592 96.9038 655.823 96.7606C655.055 96.6044 654.15 96.5262 653.108 96.5262H648.558V107.503H652.464C653.688 107.503 654.756 107.399 655.667 107.19C656.578 106.969 657.353 106.565 657.991 105.979C658.577 105.432 659.007 104.807 659.28 104.104C659.567 103.388 659.71 102.483 659.71 101.39ZM682.757 122.288H671.272V119.319H675.081V96.1747H671.272V93.2059H682.757V96.1747H678.948V119.319H682.757V122.288ZM710.081 96.6434H699.69V122.288H695.823V96.6434H685.433V93.2059H710.081V96.6434ZM733.147 122.288H713.987V93.2059H733.147V96.6434H717.855V104.612H733.147V108.05H717.855V118.85H733.147V122.288Z" fill="black"/>
<path d="M215.754 184.404L205.706 228.027H199.905L204.856 206.582H183.088L178.137 228.027H172.336L182.385 184.404H188.186L184.231 201.66H205.999L209.954 184.404H215.754ZM232.864 228.027H215.579L216.545 223.779H222.258L230.403 188.652H224.69L225.657 184.404H242.942L241.975 188.652H236.262L228.118 223.779H233.831L232.864 228.027ZM282.756 189.355H267.2L258.264 228.027H252.405L261.34 189.355H245.784L246.897 184.404H283.87L282.756 189.355ZM294.739 228.818C291.907 228.818 289.211 228.525 286.653 227.939C284.094 227.334 281.585 226.416 279.124 225.185L280.53 218.535H280.94C282.815 220.312 285.11 221.679 287.825 222.636C290.559 223.574 293.196 224.043 295.735 224.043C299.895 224.043 303.079 223.222 305.286 221.582C307.512 219.922 308.626 217.812 308.626 215.254C308.626 213.906 308.225 212.783 307.424 211.884C306.643 210.986 305.491 210.322 303.967 209.892C302.698 209.541 301.184 209.209 299.426 208.896C297.688 208.564 296.028 208.213 294.446 207.841C291.379 207.158 289.006 205.986 287.327 204.326C285.647 202.666 284.807 200.605 284.807 198.144C284.807 193.984 286.565 190.527 290.081 187.773C293.616 185 298.176 183.613 303.762 183.613C306.809 183.613 309.573 183.935 312.053 184.58C314.553 185.205 316.702 185.947 318.499 186.806L317.18 193.047H316.77C315.383 191.777 313.401 190.683 310.823 189.765C308.264 188.847 305.569 188.388 302.737 188.388C299.182 188.388 296.34 189.17 294.211 190.732C292.102 192.295 291.047 194.277 291.047 196.679C291.047 197.968 291.428 199.101 292.19 200.078C292.952 201.054 294.309 201.787 296.262 202.275C297.512 202.568 299.172 202.929 301.243 203.359C303.313 203.769 305.051 204.16 306.458 204.531C309.231 205.293 311.331 206.425 312.756 207.929C314.202 209.433 314.924 211.328 314.924 213.613C314.924 215.527 314.456 217.431 313.518 219.326C312.581 221.22 311.272 222.841 309.592 224.189C307.795 225.634 305.686 226.767 303.264 227.588C300.862 228.408 298.02 228.818 294.739 228.818ZM389.719 200.634C389.719 204.209 389.114 207.724 387.903 211.181C386.692 214.638 384.934 217.656 382.629 220.234C380.11 223.047 377.17 225.205 373.811 226.709C370.452 228.193 366.585 228.935 362.21 228.935C356.253 228.935 351.585 227.402 348.206 224.336C344.846 221.25 343.167 217.011 343.167 211.621C343.167 207.832 343.811 204.228 345.1 200.81C346.389 197.392 348.235 194.384 350.637 191.787C352.981 189.267 355.881 187.256 359.338 185.752C362.795 184.248 366.565 183.496 370.647 183.496C376.624 183.496 381.292 185.039 384.651 188.125C388.03 191.211 389.719 195.381 389.719 200.634ZM373.635 215.517C374.963 213.779 375.999 211.767 376.741 209.482C377.503 207.177 377.883 204.531 377.883 201.543C377.883 198.418 377.131 195.976 375.628 194.218C374.143 192.441 372.014 191.552 369.241 191.552C367.424 191.552 365.686 191.972 364.026 192.812C362.385 193.633 360.872 194.892 359.485 196.591C358.137 198.213 357.053 200.234 356.233 202.656C355.413 205.058 355.003 207.763 355.003 210.771C355.003 214.111 355.764 216.631 357.288 218.33C358.831 220.029 360.96 220.879 363.674 220.879C365.549 220.879 367.356 220.42 369.094 219.502C370.833 218.564 372.346 217.236 373.635 215.517ZM432.2 228.027H422.62L409.817 197.822L402.844 228.027H392.473L402.551 184.404H415.149L426.106 209.658L431.907 184.404H442.278L432.2 228.027ZM484.963 184.404L483.059 192.666H462.698L460.881 200.459H479.778L477.844 208.75H458.948L456.399 219.765H476.76L474.885 228.027H443.274L453.352 184.404H484.963ZM550.588 228.027H539.338L545.93 199.492L533.948 217.773H526.184L522.317 198.291L515.461 228.027H504.797L514.876 184.404H527.795L532.571 206.289L547.395 184.404H560.667L550.588 228.027ZM585.305 228.027H559.758L561.545 220.293H568.665L575.169 192.138H568.049L569.836 184.404H595.383L593.596 192.138H586.477L579.973 220.293H587.092L585.305 228.027ZM625.94 228.027H594.446L604.524 184.404H615.833L607.717 219.59H627.903L625.94 228.027ZM664.202 228.027H632.708L642.786 184.404H654.094L645.979 219.59H666.165L664.202 228.027ZM694.583 228.027H669.036L670.823 220.293H677.942L684.446 192.138H677.327L679.114 184.404H704.661L702.874 192.138H695.754L689.251 220.293H696.37L694.583 228.027ZM752.004 200.634C752.004 204.209 751.399 207.724 750.188 211.181C748.977 214.638 747.219 217.656 744.915 220.234C742.395 223.047 739.456 225.205 736.096 226.709C732.737 228.193 728.87 228.935 724.495 228.935C718.538 228.935 713.87 227.402 710.491 224.336C707.131 221.25 705.452 217.011 705.452 211.621C705.452 207.832 706.096 204.228 707.385 200.81C708.674 197.392 710.52 194.384 712.922 191.787C715.266 189.267 718.167 187.256 721.624 185.752C725.081 184.248 728.85 183.496 732.932 183.496C738.909 183.496 743.577 185.039 746.936 188.125C750.315 191.211 752.004 195.381 752.004 200.634ZM735.92 215.517C737.249 213.779 738.284 211.767 739.026 209.482C739.788 207.177 740.168 204.531 740.168 201.543C740.168 198.418 739.417 195.976 737.913 194.218C736.428 192.441 734.299 191.552 731.526 191.552C729.71 191.552 727.971 191.972 726.311 192.812C724.67 193.633 723.157 194.892 721.77 196.591C720.422 198.213 719.338 200.234 718.518 202.656C717.698 205.058 717.288 207.763 717.288 210.771C717.288 214.111 718.049 216.631 719.573 218.33C721.116 220.029 723.245 220.879 725.96 220.879C727.835 220.879 729.641 220.42 731.379 219.502C733.118 218.564 734.631 217.236 735.92 215.517ZM794.485 228.027H784.905L772.102 197.822L765.129 228.027H754.758L764.836 184.404H777.434L788.391 209.658L794.192 184.404H804.563L794.485 228.027Z" fill="black"/>
<path d="M339.451 171.031C337.091 171.031 334.845 170.787 332.713 170.298C330.581 169.794 328.489 169.029 326.439 168.004L327.61 162.462H327.952C329.515 163.943 331.427 165.082 333.689 165.88C335.968 166.661 338.165 167.051 340.281 167.051C343.748 167.051 346.401 166.368 348.24 165.001C350.096 163.617 351.023 161.859 351.023 159.727C351.023 158.604 350.69 157.668 350.022 156.92C349.371 156.171 348.411 155.618 347.142 155.259C346.084 154.966 344.822 154.69 343.357 154.429C341.909 154.153 340.525 153.86 339.207 153.55C336.652 152.981 334.674 152.004 333.274 150.621C331.875 149.237 331.175 147.52 331.175 145.469C331.175 142.003 332.64 139.122 335.569 136.827C338.515 134.516 342.316 133.36 346.971 133.36C349.51 133.36 351.813 133.629 353.88 134.166C355.963 134.687 357.754 135.305 359.251 136.021L358.152 141.221H357.811C356.655 140.163 355.003 139.252 352.855 138.487C350.722 137.722 348.476 137.34 346.116 137.34C343.154 137.34 340.786 137.991 339.012 139.293C337.254 140.595 336.375 142.247 336.375 144.249C336.375 145.323 336.692 146.267 337.327 147.081C337.962 147.895 339.093 148.505 340.721 148.912C341.762 149.156 343.146 149.457 344.871 149.815C346.596 150.157 348.045 150.482 349.217 150.792C351.528 151.426 353.278 152.37 354.466 153.624C355.67 154.877 356.272 156.456 356.272 158.36C356.272 159.955 355.882 161.542 355.101 163.121C354.319 164.7 353.229 166.05 351.829 167.173C350.332 168.378 348.574 169.322 346.556 170.006C344.554 170.689 342.186 171.031 339.451 171.031ZM390.135 170.372H385.228L384.007 160.142H368.333L362.376 170.372H357.273L378.904 134.019H385.301L390.135 170.372ZM383.47 156.187L381.199 138.243L370.652 156.187H383.47ZM418.211 170.372H395.189L403.587 134.019H408.47L401.023 166.246H419.163L418.211 170.372ZM455.369 134.019L454.417 138.145H435.301L432.957 148.399H452.073L451.121 152.501H432.005L428.831 166.246H447.947L446.995 170.372H423.045L431.419 134.019H455.369ZM467.234 171.031C464.874 171.031 462.628 170.787 460.496 170.298C458.364 169.794 456.272 169.029 454.222 168.004L455.394 162.462H455.735C457.298 163.943 459.21 165.082 461.473 165.88C463.751 166.661 465.949 167.051 468.064 167.051C471.531 167.051 474.184 166.368 476.023 165.001C477.879 163.617 478.807 161.859 478.807 159.727C478.807 158.604 478.473 157.668 477.806 156.92C477.155 156.171 476.194 155.618 474.925 155.259C473.867 154.966 472.605 154.69 471.141 154.429C469.692 154.153 468.309 153.86 466.99 153.55C464.435 152.981 462.457 152.004 461.058 150.621C459.658 149.237 458.958 147.52 458.958 145.469C458.958 142.003 460.423 139.122 463.353 136.827C466.299 134.516 470.099 133.36 474.754 133.36C477.293 133.36 479.596 133.629 481.663 134.166C483.746 134.687 485.537 135.305 487.034 136.021L485.936 141.221H485.594C484.438 140.163 482.786 139.252 480.638 138.487C478.506 137.722 476.259 137.34 473.899 137.34C470.937 137.34 468.569 137.991 466.795 139.293C465.037 140.595 464.158 142.247 464.158 144.249C464.158 145.323 464.476 146.267 465.11 147.081C465.745 147.895 466.876 148.505 468.504 148.912C469.546 149.156 470.929 149.457 472.654 149.815C474.38 150.157 475.828 150.482 477 150.792C479.311 151.426 481.061 152.37 482.249 153.624C483.453 154.877 484.056 156.456 484.056 158.36C484.056 159.955 483.665 161.542 482.884 163.121C482.103 164.7 481.012 166.05 479.612 167.173C478.115 168.378 476.357 169.322 474.339 170.006C472.337 170.689 469.969 171.031 467.234 171.031ZM506.126 156.675H490.892L491.917 152.257H507.151L506.126 156.675ZM538.939 132.383L529.173 146.031H525.804L532.981 132.383H538.939ZM529.075 132.383L519.31 146.031H515.94L523.118 132.383H529.075ZM550.096 160.923C549.347 164.13 547.817 166.596 545.506 168.321C543.195 170.03 540.395 170.884 537.107 170.884C536.326 170.884 535.301 170.811 534.031 170.665C532.762 170.534 531.712 170.372 530.882 170.176L531.907 165.831H532.176C532.811 166.059 533.584 166.295 534.495 166.539C535.407 166.783 536.375 166.905 537.4 166.905C538.882 166.905 540.11 166.718 541.087 166.343C542.064 165.969 542.828 165.448 543.382 164.781C543.968 164.081 544.432 163.243 544.773 162.266C545.115 161.29 545.408 160.232 545.652 159.092L550.535 137.706H542.625L543.48 134.019H556.272L550.096 160.923ZM589.598 134.019L588.646 138.145H569.529L567.186 148.399H586.302L585.35 152.501H566.233L563.06 166.246H582.176L581.224 170.372H557.273L565.647 134.019H589.598ZM613.865 143.052C613.865 142.19 613.735 141.465 613.475 140.88C613.214 140.277 612.815 139.765 612.278 139.341C611.66 138.837 610.903 138.487 610.008 138.292C609.113 138.096 608.014 137.999 606.712 137.999H601.243L597.996 152.012H603.123C604.718 152.012 606.102 151.866 607.273 151.573C608.445 151.28 609.511 150.767 610.472 150.035C611.546 149.221 612.376 148.204 612.962 146.983C613.564 145.746 613.865 144.436 613.865 143.052ZM619.285 170.372H613.597L604.026 155.845H597.117L593.772 170.372H588.89L597.264 134.019H607.176C609.389 134.019 611.188 134.166 612.571 134.459C613.955 134.735 615.159 135.248 616.185 135.997C617.096 136.664 617.812 137.47 618.333 138.414C618.854 139.358 619.114 140.538 619.114 141.954C619.114 144.981 618.162 147.642 616.258 149.937C614.37 152.216 611.888 153.803 608.812 154.698L619.285 170.372ZM653.318 170.372H647.605L636.399 154.136L631.419 158.36L628.66 170.372H623.777L632.176 134.019H637.059L632.664 152.891L654.026 134.019H660.179L640.232 151.426L653.318 170.372ZM685.716 132.383L675.95 146.031H672.581L679.759 132.383H685.716ZM675.853 132.383L666.087 146.031H662.718L669.896 132.383H675.853Z" fill="black"/>
<path d="M252.942 273.259C252.942 274.675 252.608 276.075 251.941 277.458C251.29 278.842 250.37 280.013 249.182 280.974C247.88 282.015 246.358 282.829 244.617 283.415C242.892 284.001 240.808 284.294 238.367 284.294C235.746 284.294 233.386 284.05 231.287 283.562C229.203 283.073 227.079 282.349 224.915 281.389V275.334H225.257C227.096 276.864 229.22 278.044 231.629 278.874C234.037 279.704 236.3 280.119 238.416 280.119C241.41 280.119 243.738 279.558 245.398 278.435C247.075 277.312 247.913 275.814 247.913 273.943C247.913 272.331 247.514 271.143 246.716 270.378C245.935 269.613 244.739 269.019 243.128 268.596C241.907 268.27 240.58 268.002 239.148 267.79C237.732 267.579 236.227 267.31 234.632 266.985C231.409 266.301 229.016 265.137 227.454 263.493C225.908 261.833 225.134 259.677 225.134 257.024C225.134 253.98 226.42 251.49 228.992 249.553C231.563 247.6 234.827 246.623 238.782 246.623C241.337 246.623 243.681 246.867 245.813 247.356C247.945 247.844 249.833 248.446 251.477 249.162V254.875H251.135C249.752 253.703 247.929 252.735 245.667 251.97C243.421 251.189 241.118 250.798 238.757 250.798C236.17 250.798 234.086 251.335 232.507 252.409C230.945 253.484 230.164 254.867 230.164 256.56C230.164 258.073 230.554 259.262 231.336 260.124C232.117 260.987 233.492 261.646 235.462 262.102C236.503 262.33 237.984 262.606 239.905 262.932C241.826 263.257 243.453 263.591 244.788 263.933C247.49 264.649 249.524 265.731 250.891 267.18C252.258 268.628 252.942 270.655 252.942 273.259ZM293.079 283.635H288.245V252.312L278.137 273.625H275.257L265.222 252.312V283.635H260.706V247.282H267.298L276.99 267.522L286.365 247.282H293.079V283.635ZM331.507 283.635H326.355L322.791 273.503H307.068L303.504 283.635H298.596L311.829 247.282H318.274L331.507 283.635ZM321.301 269.353L314.929 251.506L308.533 269.353H321.301ZM365.1 280.998C364.205 281.389 363.391 281.755 362.659 282.097C361.943 282.439 360.999 282.797 359.827 283.171C358.834 283.48 357.752 283.741 356.58 283.952C355.424 284.18 354.146 284.294 352.747 284.294C350.11 284.294 347.709 283.928 345.545 283.195C343.396 282.447 341.524 281.283 339.929 279.704C338.367 278.158 337.146 276.197 336.267 273.82C335.388 271.428 334.949 268.653 334.949 265.495C334.949 262.5 335.372 259.823 336.218 257.463C337.065 255.103 338.285 253.109 339.881 251.482C341.427 249.903 343.29 248.698 345.471 247.868C347.669 247.038 350.102 246.623 352.771 246.623C354.724 246.623 356.669 246.859 358.606 247.331C360.559 247.803 362.724 248.633 365.1 249.821V255.559H364.734C362.732 253.882 360.746 252.662 358.777 251.897C356.808 251.132 354.7 250.749 352.454 250.749C350.615 250.749 348.954 251.05 347.473 251.652C346.008 252.238 344.698 253.158 343.543 254.411C342.42 255.632 341.541 257.178 340.906 259.05C340.287 260.905 339.978 263.054 339.978 265.495C339.978 268.051 340.32 270.248 341.004 272.087C341.703 273.926 342.599 275.424 343.689 276.579C344.828 277.784 346.155 278.679 347.669 279.265C349.199 279.834 350.81 280.119 352.503 280.119C354.83 280.119 357.011 279.721 359.046 278.923C361.08 278.125 362.984 276.929 364.758 275.334H365.1V280.998ZM401.16 283.635H394.885L380.506 267.448L376.892 271.306V283.635H372.058V247.282H376.892V266.252L394.544 247.282H400.403L384.168 264.372L401.16 283.635ZM456.555 283.635H451.721V252.312L441.614 273.625H438.733L428.699 252.312V283.635H424.182V247.282H430.774L440.466 267.522L449.841 247.282H456.555V283.635ZM494.983 283.635H489.832L486.267 273.503H470.545L466.98 283.635H462.073L475.305 247.282H481.751L494.983 283.635ZM484.778 269.353L478.406 251.506L472.009 269.353H484.778ZM530.823 280.949C528.837 281.861 526.664 282.658 524.304 283.342C521.961 284.009 519.69 284.343 517.493 284.343C514.661 284.343 512.065 283.952 509.705 283.171C507.345 282.39 505.335 281.218 503.674 279.655C501.998 278.077 500.704 276.107 499.793 273.747C498.881 271.371 498.425 268.596 498.425 265.422C498.425 259.611 500.118 255.03 503.504 251.677C506.905 248.308 511.568 246.623 517.493 246.623C519.56 246.623 521.668 246.875 523.816 247.38C525.981 247.868 528.308 248.707 530.798 249.895V255.632H530.359C529.854 255.241 529.122 254.729 528.162 254.094C527.201 253.459 526.257 252.93 525.33 252.507C524.207 252.002 522.929 251.587 521.497 251.262C520.081 250.92 518.469 250.749 516.663 250.749C512.594 250.749 509.371 252.059 506.995 254.68C504.635 257.284 503.455 260.816 503.455 265.276C503.455 269.979 504.692 273.641 507.166 276.262C509.64 278.866 513.009 280.168 517.273 280.168C518.836 280.168 520.39 280.013 521.936 279.704C523.499 279.395 524.866 278.996 526.038 278.508V269.597H516.297V265.349H530.823V280.949ZM552.088 283.635H537.732V279.924H542.493V250.993H537.732V247.282H552.088V250.993H547.327V279.924H552.088V283.635ZM588.391 280.998C587.496 281.389 586.682 281.755 585.95 282.097C585.234 282.439 584.29 282.797 583.118 283.171C582.125 283.48 581.043 283.741 579.871 283.952C578.715 284.18 577.437 284.294 576.038 284.294C573.401 284.294 571 283.928 568.836 283.195C566.687 282.447 564.815 281.283 563.22 279.704C561.658 278.158 560.437 276.197 559.558 273.82C558.679 271.428 558.24 268.653 558.24 265.495C558.24 262.5 558.663 259.823 559.509 257.463C560.356 255.103 561.576 253.109 563.172 251.482C564.718 249.903 566.581 248.698 568.762 247.868C570.96 247.038 573.393 246.623 576.062 246.623C578.015 246.623 579.96 246.859 581.897 247.331C583.85 247.803 586.015 248.633 588.391 249.821V255.559H588.025C586.023 253.882 584.037 252.662 582.068 251.897C580.099 251.132 577.991 250.749 575.745 250.749C573.906 250.749 572.245 251.05 570.764 251.652C569.299 252.238 567.989 253.158 566.834 254.411C565.711 255.632 564.832 257.178 564.197 259.05C563.578 260.905 563.269 263.054 563.269 265.495C563.269 268.051 563.611 270.248 564.295 272.087C564.994 273.926 565.89 275.424 566.98 276.579C568.119 277.784 569.446 278.679 570.96 279.265C572.49 279.834 574.101 280.119 575.794 280.119C578.121 280.119 580.302 279.721 582.337 278.923C584.371 278.125 586.275 276.929 588.049 275.334H588.391V280.998ZM621.643 273.259C621.643 274.675 621.31 276.075 620.642 277.458C619.991 278.842 619.072 280.013 617.883 280.974C616.581 282.015 615.06 282.829 613.318 283.415C611.593 284.001 609.509 284.294 607.068 284.294C604.448 284.294 602.088 284.05 599.988 283.562C597.905 283.073 595.781 282.349 593.616 281.389V275.334H593.958C595.797 276.864 597.921 278.044 600.33 278.874C602.739 279.704 605.001 280.119 607.117 280.119C610.112 280.119 612.439 279.558 614.099 278.435C615.776 277.312 616.614 275.814 616.614 273.943C616.614 272.331 616.215 271.143 615.418 270.378C614.636 269.613 613.44 269.019 611.829 268.596C610.608 268.27 609.282 268.002 607.849 267.79C606.433 267.579 604.928 267.31 603.333 266.985C600.11 266.301 597.717 265.137 596.155 263.493C594.609 261.833 593.836 259.677 593.836 257.024C593.836 253.98 595.121 251.49 597.693 249.553C600.265 247.6 603.528 246.623 607.483 246.623C610.038 246.623 612.382 246.867 614.514 247.356C616.646 247.844 618.534 248.446 620.178 249.162V254.875H619.837C618.453 253.703 616.63 252.735 614.368 251.97C612.122 251.189 609.819 250.798 607.459 250.798C604.871 250.798 602.787 251.335 601.209 252.409C599.646 253.484 598.865 254.867 598.865 256.56C598.865 258.073 599.256 259.262 600.037 260.124C600.818 260.987 602.193 261.646 604.163 262.102C605.204 262.33 606.686 262.606 608.606 262.932C610.527 263.257 612.154 263.591 613.489 263.933C616.191 264.649 618.225 265.731 619.592 267.18C620.96 268.628 621.643 270.655 621.643 273.259ZM673.401 273.259C673.401 274.675 673.067 276.075 672.4 277.458C671.749 278.842 670.829 280.013 669.641 280.974C668.339 282.015 666.817 282.829 665.076 283.415C663.351 284.001 661.267 284.294 658.826 284.294C656.205 284.294 653.845 284.05 651.746 283.562C649.662 283.073 647.538 282.349 645.374 281.389V275.334H645.715C647.555 276.864 649.679 278.044 652.088 278.874C654.496 279.704 656.759 280.119 658.875 280.119C661.869 280.119 664.197 279.558 665.857 278.435C667.534 277.312 668.372 275.814 668.372 273.943C668.372 272.331 667.973 271.143 667.175 270.378C666.394 269.613 665.198 269.019 663.587 268.596C662.366 268.27 661.039 268.002 659.607 267.79C658.191 267.579 656.686 267.31 655.09 266.985C651.868 266.301 649.475 265.137 647.913 263.493C646.367 261.833 645.593 259.677 645.593 257.024C645.593 253.98 646.879 251.49 649.451 249.553C652.022 247.6 655.286 246.623 659.241 246.623C661.796 246.623 664.14 246.867 666.272 247.356C668.404 247.844 670.292 248.446 671.936 249.162V254.875H671.594C670.211 253.703 668.388 252.735 666.126 251.97C663.88 251.189 661.576 250.798 659.216 250.798C656.629 250.798 654.545 251.335 652.966 252.409C651.404 253.484 650.623 254.867 650.623 256.56C650.623 258.073 651.013 259.262 651.795 260.124C652.576 260.987 653.951 261.646 655.921 262.102C656.962 262.33 658.443 262.606 660.364 262.932C662.284 263.257 663.912 263.591 665.247 263.933C667.949 264.649 669.983 265.731 671.35 267.18C672.717 268.628 673.401 270.655 673.401 273.259ZM708.264 251.457C709.745 253.085 710.877 255.079 711.658 257.439C712.455 259.799 712.854 262.476 712.854 265.471C712.854 268.466 712.447 271.151 711.633 273.527C710.836 275.888 709.713 277.857 708.264 279.436C706.767 281.08 704.993 282.317 702.942 283.147C700.908 283.977 698.58 284.392 695.96 284.392C693.404 284.392 691.077 283.969 688.977 283.122C686.894 282.276 685.12 281.047 683.655 279.436C682.19 277.824 681.059 275.847 680.261 273.503C679.48 271.159 679.09 268.482 679.09 265.471C679.09 262.509 679.48 259.856 680.261 257.512C681.043 255.152 682.182 253.134 683.679 251.457C685.112 249.862 686.886 248.641 689.002 247.795C691.134 246.949 693.453 246.526 695.96 246.526C698.564 246.526 700.899 246.957 702.966 247.819C705.05 248.666 706.816 249.878 708.264 251.457ZM707.825 265.471C707.825 260.751 706.767 257.113 704.651 254.558C702.535 251.986 699.646 250.7 695.984 250.7C692.289 250.7 689.384 251.986 687.268 254.558C685.169 257.113 684.119 260.751 684.119 265.471C684.119 270.24 685.193 273.894 687.341 276.433C689.49 278.956 692.371 280.217 695.984 280.217C699.597 280.217 702.47 278.956 704.602 276.433C706.751 273.894 707.825 270.24 707.825 265.471ZM743.518 283.635H720.52V247.282H725.354V279.338H743.518V283.635ZM779.065 265.495C779.065 268.799 778.341 271.794 776.892 274.48C775.46 277.165 773.548 279.249 771.155 280.73C769.495 281.755 767.639 282.496 765.589 282.951C763.554 283.407 760.868 283.635 757.532 283.635H748.352V247.282H757.434C760.982 247.282 763.798 247.543 765.882 248.064C767.981 248.568 769.755 249.268 771.204 250.163C773.678 251.709 775.606 253.768 776.99 256.34C778.373 258.912 779.065 261.963 779.065 265.495ZM774.011 265.422C774.011 262.574 773.515 260.173 772.522 258.22C771.529 256.267 770.048 254.729 768.079 253.606C766.646 252.792 765.125 252.23 763.513 251.921C761.902 251.596 759.973 251.433 757.727 251.433H753.186V279.485H757.727C760.055 279.485 762.081 279.314 763.806 278.972C765.548 278.63 767.143 277.995 768.591 277.068C770.398 275.912 771.749 274.39 772.644 272.502C773.556 270.614 774.011 268.254 774.011 265.422Z" fill="black"/>
<path d="M581.373 309.852H573.756L574.268 307.642H581.886L581.373 309.852ZM607.703 316.7H604.847L599.244 308.582L596.754 310.694L595.374 316.7H592.933L597.132 298.524H599.574L597.376 307.96L608.057 298.524H611.134L601.161 307.227L607.703 316.7ZM616.724 298.402L616.175 300.782H613.587L614.137 298.402H616.724ZM615.504 303.065L612.354 316.7H610.059L613.209 303.065H615.504ZM627.125 303.065L626.71 304.92H621.974L620.509 311.207C620.427 311.524 620.354 311.891 620.289 312.306C620.224 312.712 620.191 313.038 620.191 313.282C620.191 313.876 620.342 314.32 620.643 314.613C620.944 314.898 621.502 315.04 622.315 315.04C622.649 315.04 623.044 314.983 623.499 314.869C623.963 314.755 624.277 314.666 624.439 314.6H624.561L624.134 316.578C623.678 316.692 623.19 316.786 622.669 316.859C622.157 316.932 621.701 316.969 621.302 316.969C620.179 316.969 619.308 316.725 618.69 316.236C618.079 315.74 617.774 314.959 617.774 313.892C617.774 313.632 617.791 313.376 617.823 313.123C617.864 312.863 617.917 312.57 617.982 312.245L619.679 304.92H618.128L618.543 303.065H620.094L621.009 299.146H623.304L622.389 303.065H627.125ZM632.667 317.005C631.804 317.005 631.039 316.904 630.372 316.7C629.713 316.497 629.135 316.175 628.639 315.736C628.158 315.313 627.788 314.78 627.528 314.137C627.267 313.494 627.137 312.745 627.137 311.891C627.137 310.613 627.336 309.421 627.735 308.314C628.134 307.207 628.7 306.235 629.432 305.396C630.14 304.583 631.015 303.94 632.057 303.468C633.098 302.988 634.221 302.747 635.426 302.747C636.223 302.747 636.972 302.857 637.672 303.077C638.38 303.297 639.002 303.557 639.539 303.858L639.039 306.336H638.905C638.742 306.19 638.538 306.019 638.294 305.824C638.05 305.628 637.761 305.445 637.428 305.274C637.094 305.095 636.724 304.949 636.317 304.835C635.91 304.713 635.446 304.652 634.925 304.652C633.346 304.652 632.057 305.319 631.056 306.654C630.063 307.988 629.566 309.612 629.566 311.524C629.566 312.672 629.859 313.555 630.445 314.173C631.039 314.792 631.882 315.101 632.972 315.101C633.485 315.101 633.997 315.028 634.51 314.881C635.023 314.735 635.458 314.576 635.816 314.405C636.215 314.218 636.585 314.019 636.927 313.807C637.269 313.595 637.517 313.437 637.672 313.331H637.806L637.318 315.833C636.61 316.151 635.861 316.427 635.072 316.663C634.282 316.891 633.481 317.005 632.667 317.005ZM653.455 306.178C653.455 306.373 653.435 306.637 653.394 306.971C653.362 307.305 653.313 307.598 653.248 307.85L651.197 316.7H648.902L650.697 308.936C650.794 308.505 650.868 308.131 650.916 307.813C650.973 307.488 651.002 307.166 651.002 306.849C651.002 306.165 650.831 305.653 650.489 305.311C650.155 304.961 649.549 304.786 648.67 304.786C648.052 304.786 647.368 304.957 646.62 305.299C645.879 305.641 645.155 306.047 644.447 306.519L642.091 316.7H639.796L644.178 297.706H646.473L644.886 304.579C645.757 303.968 646.571 303.5 647.328 303.175C648.092 302.849 648.878 302.686 649.683 302.686C650.872 302.686 651.795 302.988 652.454 303.59C653.122 304.184 653.455 305.046 653.455 306.178ZM666.651 308.399C666.692 308.163 666.72 307.964 666.737 307.801C666.753 307.638 666.761 307.459 666.761 307.264C666.761 306.393 666.521 305.714 666.041 305.225C665.569 304.737 664.808 304.493 663.758 304.493C662.603 304.493 661.577 304.851 660.682 305.567C659.787 306.283 659.181 307.227 658.863 308.399H666.651ZM662.061 317.017C660.173 317.017 658.692 316.574 657.618 315.687C656.544 314.8 656.007 313.502 656.007 311.793C656.007 309.295 656.796 307.154 658.375 305.372C659.954 303.582 661.907 302.686 664.234 302.686C665.78 302.686 666.965 303.073 667.786 303.846C668.608 304.611 669.019 305.689 669.019 307.081C669.019 307.325 668.983 307.712 668.91 308.241C668.844 308.77 668.735 309.384 668.58 310.084H658.534C658.485 310.32 658.448 310.552 658.424 310.78C658.407 311.008 658.399 311.219 658.399 311.414C658.399 312.562 658.749 313.465 659.449 314.124C660.149 314.775 661.142 315.101 662.428 315.101C663.323 315.101 664.242 314.926 665.186 314.576C666.139 314.226 666.936 313.831 667.579 313.392H667.713L667.213 315.87C666.806 316.017 666.44 316.151 666.114 316.273C665.789 316.395 665.374 316.517 664.869 316.639C664.364 316.761 663.917 316.855 663.526 316.92C663.136 316.985 662.647 317.017 662.061 317.017ZM684.168 306.178C684.168 306.373 684.148 306.637 684.107 306.971C684.075 307.305 684.026 307.598 683.961 307.85L681.91 316.7H679.615L681.41 308.936C681.507 308.505 681.58 308.131 681.629 307.813C681.686 307.488 681.715 307.166 681.715 306.849C681.715 306.165 681.544 305.653 681.202 305.311C680.868 304.961 680.262 304.786 679.383 304.786C678.765 304.786 678.081 304.957 677.332 305.299C676.592 305.641 675.868 306.047 675.16 306.519L672.804 316.7H670.509L673.658 303.065H675.953L675.599 304.579C676.47 303.968 677.284 303.5 678.04 303.175C678.805 302.849 679.591 302.686 680.396 302.686C681.585 302.686 682.508 302.988 683.167 303.59C683.835 304.184 684.168 305.046 684.168 306.178ZM720.533 298.524L711.805 316.7H709.01L708.473 301.649L701.417 316.7H698.731L697.987 298.524H700.44L700.929 313.612L708.045 298.524H710.499L710.987 313.758L718.153 298.524H720.533ZM730.909 308.399C730.95 308.163 730.978 307.964 730.995 307.801C731.011 307.638 731.019 307.459 731.019 307.264C731.019 306.393 730.779 305.714 730.299 305.225C729.827 304.737 729.066 304.493 728.016 304.493C726.86 304.493 725.835 304.851 724.94 305.567C724.045 306.283 723.438 307.227 723.121 308.399H730.909ZM726.319 317.017C724.431 317.017 722.95 316.574 721.876 315.687C720.802 314.8 720.265 313.502 720.265 311.793C720.265 309.295 721.054 307.154 722.633 305.372C724.211 303.582 726.165 302.686 728.492 302.686C730.038 302.686 731.222 303.073 732.044 303.846C732.866 304.611 733.277 305.689 733.277 307.081C733.277 307.325 733.241 307.712 733.167 308.241C733.102 308.77 732.992 309.384 732.838 310.084H722.791C722.743 310.32 722.706 310.552 722.682 310.78C722.665 311.008 722.657 311.219 722.657 311.414C722.657 312.562 723.007 313.465 723.707 314.124C724.407 314.775 725.4 315.101 726.685 315.101C727.581 315.101 728.5 314.926 729.444 314.576C730.396 314.226 731.194 313.831 731.837 313.392H731.971L731.471 315.87C731.064 316.017 730.697 316.151 730.372 316.273C730.046 316.395 729.631 316.517 729.127 316.639C728.622 316.761 728.175 316.855 727.784 316.92C727.393 316.985 726.905 317.017 726.319 317.017ZM745.802 308.399C745.842 308.163 745.871 307.964 745.887 307.801C745.903 307.638 745.911 307.459 745.911 307.264C745.911 306.393 745.671 305.714 745.191 305.225C744.719 304.737 743.958 304.493 742.909 304.493C741.753 304.493 740.728 304.851 739.832 305.567C738.937 306.283 738.331 307.227 738.014 308.399H745.802ZM741.212 317.017C739.324 317.017 737.843 316.574 736.768 315.687C735.694 314.8 735.157 313.502 735.157 311.793C735.157 309.295 735.946 307.154 737.525 305.372C739.104 303.582 741.057 302.686 743.385 302.686C744.931 302.686 746.115 303.073 746.937 303.846C747.759 304.611 748.17 305.689 748.17 307.081C748.17 307.325 748.133 307.712 748.06 308.241C747.995 308.77 747.885 309.384 747.73 310.084H737.684C737.635 310.32 737.599 310.552 737.574 310.78C737.558 311.008 737.55 311.219 737.55 311.414C737.55 312.562 737.9 313.465 738.599 314.124C739.299 314.775 740.292 315.101 741.578 315.101C742.473 315.101 743.393 314.926 744.337 314.576C745.289 314.226 746.086 313.831 746.729 313.392H746.864L746.363 315.87C745.956 316.017 745.59 316.151 745.265 316.273C744.939 316.395 744.524 316.517 744.019 316.639C743.515 316.761 743.067 316.855 742.677 316.92C742.286 316.985 741.798 317.017 741.212 317.017ZM762.183 316.7H759.4L755.042 310.706L753.065 312.306L752.064 316.7H749.745L754.139 297.706H756.458L753.626 309.913L761.622 303.065H764.637L756.861 309.51L762.183 316.7ZM771.046 297.706L766.651 316.7H764.356L768.751 297.706H771.046ZM773.658 321.729H771.131L775.099 315.907L772.633 303.065H774.989L776.917 313.209L783.436 303.065H785.938L773.658 321.729Z" fill="black"/>
<defs>
<radialGradient id="paint0_radial_17_7" cx="0" cy="0" r="1" gradientUnits="userSpaceOnUse" gradientTransform="translate(515.5 187.904) rotate(-90) scale(201.071 518.34)">
<stop stop-color="white" stop-opacity="0"/>
<stop offset="1" stop-color="white" stop-opacity="0.4"/>
</radialGradient>
<linearGradient id="paint1_linear_17_7" x1="515.5" y1="388.975" x2="515.5" y2="-13.1671" gradientUnits="userSpaceOnUse">
<stop offset="0.586" stop-color="white" stop-opacity="0"/>
<stop offset="1" stop-color="white" stop-opacity="0.62"/>
</linearGradient>
</defs>
</svg>
